<svg width="16" height="16" viewBox="0 0 16 16" fill="none" xmlns="http://www.w3.org/2000/svg">
<path fill-rule="evenodd" clip-rule="evenodd" d="M7.99996 0.666672C12.05 0.666672 15.3333 3.94992 15.3333 8C15.3333 12.0501 12.05 15.3333 7.99996 15.3333C3.94987 15.3333 0.666626 12.0501 0.666626 8C0.666626 3.94992 3.94987 0.666672 7.99996 0.666672ZM7.99996 2.00001C4.68625 2.00001 1.99996 4.6863 1.99996 8.00001C1.99996 11.3137 4.68625 14 7.99996 14C11.3137 14 14 11.3137 14 8.00001C14 4.6863 11.3137 2.00001 7.99996 2.00001ZM7.99996 3.33334C8.36815 3.33334 8.66663 3.63182 8.66663 4.00001V7.67395L11.4093 9.8071C11.6999 10.0332 11.7522 10.452 11.5262 10.7426C11.3001 11.0333 10.8813 11.0856 10.5907 10.8596L7.59067 8.52624C7.42827 8.39994 7.33329 8.20573 7.33329 8.00001V4.00001C7.33329 3.63182 7.63177 3.33334 7.99996 3.33334Z" fill="#4A2182"/>
</svg>
