<svg width="32" height="35" viewBox="0 0 32 35" fill="none" xmlns="http://www.w3.org/2000/svg">
<path d="M0.550758 25.3073C0.183586 22.664 0 20.0357 0 17.4224C0 14.8094 0.183536 12.1815 0.550609 9.53854C0.632328 8.95015 0.939705 8.41676 1.40758 8.05143C3.49736 6.41968 5.67878 4.94684 7.95184 3.63292C10.2255 2.31864 12.5909 1.16337 15.0479 0.167094C15.597 -0.055521 16.2109 -0.0557043 16.7601 0.166582C19.2038 1.15577 21.569 2.31121 23.8555 3.63292C26.1417 4.95445 28.3235 6.42723 30.4008 8.05127C30.868 8.41657 31.1749 8.94958 31.2566 9.53746C31.6238 12.1808 31.8074 14.8091 31.8074 17.4224C31.8074 20.0353 31.6238 22.6633 31.2568 25.3062C31.175 25.8946 30.8677 26.428 30.3998 26.7933C28.31 28.4251 26.1286 29.8979 23.8555 31.2118C21.5818 32.5261 19.2165 33.6814 16.7594 34.6777C16.2104 34.9003 15.5964 34.9005 15.0473 34.6782C12.6035 33.689 10.2384 32.5335 7.95184 31.2118C5.66562 29.8903 3.48388 28.4175 1.40661 26.7935C0.93936 26.4282 0.632419 25.8952 0.550758 25.3073Z" fill="#50B5FF"/>
<mask id="mask0" mask-type="alpha" maskUnits="userSpaceOnUse" x="0" y="0" width="32" height="35">
<path d="M0.550758 25.3073C0.183586 22.664 0 20.0357 0 17.4224C0 14.8094 0.183536 12.1815 0.550609 9.53854C0.632328 8.95015 0.939705 8.41676 1.40758 8.05143C3.49736 6.41968 5.67878 4.94684 7.95184 3.63292C10.2255 2.31864 12.5909 1.16337 15.0479 0.167094C15.597 -0.055521 16.2109 -0.0557043 16.7601 0.166582C19.2038 1.15577 21.569 2.31121 23.8555 3.63292C26.1417 4.95445 28.3235 6.42723 30.4008 8.05127C30.868 8.41657 31.1749 8.94958 31.2566 9.53746C31.6238 12.1808 31.8074 14.8091 31.8074 17.4224C31.8074 20.0353 31.6238 22.6633 31.2568 25.3062C31.175 25.8946 30.8677 26.428 30.3998 26.7933C28.31 28.4251 26.1286 29.8979 23.8555 31.2118C21.5818 32.5261 19.2165 33.6814 16.7594 34.6777C16.2104 34.9003 15.5964 34.9005 15.0473 34.6782C12.6035 33.689 10.2384 32.5335 7.95184 31.2118C5.66562 29.8903 3.48388 28.4175 1.40661 26.7935C0.93936 26.4282 0.632419 25.8952 0.550758 25.3073Z" fill="white"/>
</mask>
<g mask="url(#mask0)">
</g>
<path d="M12.7717 10.2032H19.5322L24.1358 5.81388C24.6196 5.35259 24.2931 4.53703 23.6246 4.53703H20.1971C19.2453 4.53703 18.3301 4.90343 17.6413 5.56022L12.7717 10.2032Z" fill="#F1543F"/>
<path fill-rule="evenodd" clip-rule="evenodd" d="M11.1904 9.81073V13.2253H20.786V9.81073C20.786 9.40163 20.4543 9.06999 20.0452 9.06999H11.9312C11.5221 9.06999 11.1904 9.40163 11.1904 9.81073ZM19.6956 12.146H12.2808V10.1493H19.6956V12.146Z" fill="#F8B64C"/>
<path d="M19.5321 10.2032H12.7717L8.12832 5.8162C7.64122 5.356 7.96692 4.53703 8.63703 4.53703H12.1067C13.0585 4.53703 13.9737 4.90343 14.6625 5.56021L19.5321 10.2032Z" fill="#FF7058"/>
<path d="M15.9883 30.4398C21.5588 30.4398 26.0746 25.9701 26.0746 20.4564C26.0746 14.9428 21.5588 10.4731 15.9883 10.4731C10.4179 10.4731 5.9021 14.9428 5.9021 20.4564C5.9021 25.9701 10.4179 30.4398 15.9883 30.4398Z" fill="#FFD15C"/>
<path d="M15.9627 28.0135C11.7646 28.0135 8.32983 24.6138 8.32983 20.4585C8.32983 16.3033 11.7646 12.9036 15.9627 12.9036C20.1607 12.9036 23.5955 16.3033 23.5955 20.4585C23.5955 24.6138 20.1607 28.0135 15.9627 28.0135Z" fill="#F8B64C"/>
<path d="M15.9479 15.4858L17.213 19.283H21.27L17.9546 21.6562L19.2196 25.4534L15.9479 23.0802L12.676 25.4534L13.9411 21.6562L10.6257 19.283H14.6827L15.9479 15.4858Z" fill="#FFD15C"/>
</svg>
