<svg width="32" height="35" viewBox="0 0 32 35" fill="none" xmlns="http://www.w3.org/2000/svg">
<path d="M0.537938 25.3073C0.179313 22.664 0 20.0357 0 17.4224C0 14.8094 0.179264 12.1815 0.537793 9.53854C0.61761 8.95015 0.917831 8.41676 1.37481 8.05143C3.41595 6.41968 5.5466 4.94684 7.76675 3.63292C9.9875 2.31864 12.2978 1.16337 14.6977 0.167094C15.2339 -0.055521 15.8336 -0.0557043 16.37 0.166582C18.7568 1.15577 21.0669 2.31121 23.3002 3.63292C25.5333 4.95445 27.6642 6.42723 29.6931 8.05127C30.1495 8.41657 30.4493 8.94958 30.5291 9.53746C30.8877 12.1808 31.067 14.8091 31.067 17.4224C31.067 20.0353 30.8877 22.6633 30.5292 25.3062C30.4494 25.8946 30.1492 26.428 29.6922 26.7933C27.651 28.4251 25.5204 29.8979 23.3002 31.2118C21.0795 32.5261 18.7692 33.6814 16.3693 34.6777C15.8331 34.9003 15.2334 34.9005 14.697 34.6782C12.3102 33.689 10.0001 32.5335 7.76675 31.2118C5.53374 29.8903 3.40278 28.4175 1.37387 26.7935C0.917495 26.4282 0.617699 25.8952 0.537938 25.3073Z" fill="#82C43C"/>
<mask id="mask0" mask-type="alpha" maskUnits="userSpaceOnUse" x="0" y="0" width="32" height="35">
<path d="M0.537938 25.3073C0.179313 22.664 0 20.0357 0 17.4224C0 14.8094 0.179264 12.1815 0.537793 9.53854C0.61761 8.95015 0.917831 8.41676 1.37481 8.05143C3.41595 6.41968 5.5466 4.94684 7.76675 3.63292C9.9875 2.31864 12.2978 1.16337 14.6977 0.167094C15.2339 -0.055521 15.8336 -0.0557043 16.37 0.166582C18.7568 1.15577 21.0669 2.31121 23.3002 3.63292C25.5333 4.95445 27.6642 6.42723 29.6931 8.05127C30.1495 8.41657 30.4493 8.94958 30.5291 9.53746C30.8877 12.1808 31.067 14.8091 31.067 17.4224C31.067 20.0353 30.8877 22.6633 30.5292 25.3062C30.4494 25.8946 30.1492 26.428 29.6922 26.7933C27.651 28.4251 25.5204 29.8979 23.3002 31.2118C21.0795 32.5261 18.7692 33.6814 16.3693 34.6777C15.8331 34.9003 15.2334 34.9005 14.697 34.6782C12.3102 33.689 10.0001 32.5335 7.76675 31.2118C5.53374 29.8903 3.40278 28.4175 1.37387 26.7935C0.917495 26.4282 0.617699 25.8952 0.537938 25.3073Z" fill="white"/>
</mask>
<g mask="url(#mask0)">
</g>
<path d="M14.4976 17.8241L15.6275 28.2265L20.3455 30.234C21.3227 30.6497 22.407 29.9327 22.407 28.8708V17.8241H14.4976Z" fill="#F1543F"/>
<path d="M8.8479 17.8241V28.8696C8.8479 29.9318 9.93285 30.6489 10.9101 30.2325L15.6274 28.2226V17.8241H8.8479Z" fill="#FF7058"/>
<path d="M13.9326 13.4913L25.5143 14.6467C25.5143 20.2209 21.0788 24.7564 15.6275 24.7564L13.9326 13.4913Z" fill="#FFD15C"/>
<path d="M25.5143 14.6467H13.9326L15.6275 4.53703C21.0788 4.53703 25.5143 9.07253 25.5143 14.6467Z" fill="#FFD15C"/>
<path d="M15.6276 14.6467V24.7564C10.1762 24.7564 5.74072 20.2209 5.74072 14.6467L10.6841 12.9136L15.6276 14.6467Z" fill="#FFD15C"/>
<path d="M15.6276 4.53703V14.6467H5.74072C5.74072 9.07253 10.1762 4.53703 15.6276 4.53703Z" fill="#FFD15C"/>
<path d="M15.6275 7.42552C11.7332 7.42552 8.56543 10.6647 8.56543 14.6467L15.6275 20.7126C20.8251 20.7126 22.6895 14.6467 22.6895 14.6467C22.6895 10.6647 19.5217 7.42552 15.6275 7.42552Z" fill="white"/>
<path d="M20.9946 14.6467C20.9946 17.6727 18.5867 20.1349 15.6275 20.1349V9.15862C12.6682 9.15862 10.2603 11.6208 10.2603 14.6467H8.56543C8.56543 18.6288 11.7332 21.868 15.6275 21.868C19.5217 21.868 22.6895 18.6288 22.6895 14.6467H20.9946Z" fill="white"/>
<path fill-rule="evenodd" clip-rule="evenodd" d="M15.6276 22.037C19.6789 22.037 22.963 18.6999 22.963 14.5833C22.963 10.4668 19.6789 7.12962 15.6276 7.12962C11.5764 7.12962 8.29224 10.4668 8.29224 14.5833C8.29224 18.6999 11.5764 22.037 15.6276 22.037Z" fill="#F8B64C"/>
<path d="M18.6062 16.6424V18.1481H13.5538V16.6424H15.3209V12.8717C15.2462 12.9713 15.1259 13.075 14.96 13.1828C14.8024 13.2824 14.6281 13.3778 14.4373 13.469C14.2465 13.5603 14.0474 13.635 13.84 13.693C13.6409 13.7511 13.4625 13.7801 13.3049 13.7801V12.2246C13.4542 12.2246 13.6367 12.179 13.8524 12.0877C14.0681 11.9881 14.2797 11.872 14.4871 11.7393C14.6945 11.6065 14.8729 11.4779 15.0222 11.3535C15.1798 11.2207 15.2794 11.117 15.3209 11.0424H17.0258V16.6424H18.6062Z" fill="#FFEFC8"/>
</svg>
