<svg width="1172" height="890" viewBox="0 0 1172 890" fill="none" xmlns="http://www.w3.org/2000/svg">
<path fill-rule="evenodd" clip-rule="evenodd" d="M1020.5 32C1089.81 32 1146 88.1883 1146 157.5C1146 226.812 1089.81 283 1020.5 283L1020.5 254.038C1073.82 254.038 1117.04 210.817 1117.04 157.5C1117.04 104.183 1073.82 60.9615 1020.5 60.9615L1020.5 32Z" fill="#8E64C8"/>
<circle cx="1126" cy="602" r="46" fill="#FFC700"/>
<path fill-rule="evenodd" clip-rule="evenodd" d="M1134.81 550.744C1115.32 506.717 1071.25 476 1020 476V504.962C1056.32 504.962 1087.96 525.021 1104.44 554.667C1111.01 551.67 1118.31 550 1126 550C1129 550 1131.95 550.255 1134.81 550.744ZM1134.33 653.337C1131.62 653.773 1128.83 654 1126 654C1118.13 654 1110.68 652.253 1103.99 649.127C1087.39 678.336 1056 698.038 1020 698.038V727C1070.83 727 1114.6 696.785 1134.33 653.337Z" fill="url(#paint0_linear)"/>
<path d="M1116.66 611.416C1119.73 608.856 1122.18 606.728 1124 605.032C1125.82 603.304 1127.34 601.512 1128.56 599.656C1129.78 597.8 1130.38 595.976 1130.38 594.184C1130.38 592.552 1130 591.272 1129.23 590.344C1128.46 589.416 1127.28 588.952 1125.68 588.952C1124.08 588.952 1122.85 589.496 1121.98 590.584C1121.12 591.64 1120.67 593.096 1120.64 594.952H1114.11C1114.24 591.112 1115.38 588.2 1117.52 586.216C1119.7 584.232 1122.45 583.24 1125.78 583.24C1129.42 583.24 1132.22 584.216 1134.18 586.168C1136.13 588.088 1137.1 590.632 1137.1 593.8C1137.1 596.296 1136.43 598.68 1135.09 600.952C1133.74 603.224 1132.21 605.208 1130.48 606.904C1128.75 608.568 1126.5 610.584 1123.71 612.952H1137.87V618.52H1114.16V613.528L1116.66 611.416Z" fill="white"/>
<circle cx="919" cy="269" r="28" fill="#EDEDED"/>
<path fill-rule="evenodd" clip-rule="evenodd" d="M125.5 254C56.1883 254 0 310.188 0 379.5C0 448.812 56.1883 505 125.5 505L125.5 476.038C72.1833 476.038 28.9615 432.817 28.9615 379.5C28.9615 326.183 72.1833 282.962 125.5 282.962L125.5 254Z" fill="#8E64C8"/>
<circle cx="46" cy="46" r="46" fill="#4AD65F"/>
<circle cx="329" cy="46" r="28" fill="#4AD65F"/>
<circle cx="624" cy="46" r="28" fill="#4AD65F"/>
<path fill-rule="evenodd" clip-rule="evenodd" d="M951.736 61C953.832 56.4337 955 51.3533 955 46C955 41.0344 953.995 36.3036 952.176 32H1024V61H951.736ZM886.264 61H656.736C658.832 56.4337 660 51.3533 660 46C660 41.0344 658.995 36.3036 657.176 32H885.824C884.005 36.3036 883 41.0344 883 46C883 51.3533 884.168 56.4337 886.264 61ZM361.736 61H591.264C589.168 56.4337 588 51.3533 588 46C588 41.0344 589.005 36.3036 590.824 32H362.176C363.995 36.3036 365 41.0344 365 46C365 51.3533 363.832 56.4337 361.736 61ZM296.264 61H95.4989C97.1198 56.2986 98 51.2521 98 46C98 41.1184 97.2396 36.4144 95.8308 32H295.824C294.005 36.3036 293 41.0344 293 46C293 51.3533 294.168 56.4337 296.264 61Z" fill="url(#paint1_linear)"/>
<path d="M947.11 43.5C947.11 58.964 934.574 71.5 919.11 71.5C903.646 71.5 891.11 58.964 891.11 43.5C891.11 28.036 903.646 15.5 919.11 15.5C934.574 15.5 947.11 28.036 947.11 43.5Z" fill="#EDEDED"/>
<path d="M942 43.5C942 55.9264 931.703 66 919 66C906.297 66 896 55.9264 896 43.5C896 31.0736 906.297 21 919 21C931.703 21 942 31.0736 942 43.5Z" fill="#8E64C7"/>
<circle cx="328.501" cy="490" r="28" fill="#EDEDED"/>
<path d="M352 490C352 502.703 341.479 513 328.5 513C315.521 513 305 502.703 305 490C305 477.297 315.521 467 328.5 467C341.479 467 352 477.297 352 490Z" fill="#8E64C7"/>
<circle cx="623.501" cy="490" r="28" fill="#EDEDED"/>
<path d="M647 490C647 502.703 636.479 513 623.5 513C610.521 513 600 502.703 600 490C600 477.297 610.521 467 623.5 467C636.479 467 647 477.297 647 490Z" fill="#8E64C7"/>
<path fill-rule="evenodd" clip-rule="evenodd" d="M951.237 505C953.333 500.434 954.501 495.353 954.501 490C954.501 485.034 953.496 480.304 951.677 476H1022.5V505H951.237ZM885.765 505H656.237C658.333 500.434 659.501 495.353 659.501 490C659.501 485.034 658.496 480.304 656.677 476H885.325C883.506 480.304 882.501 485.034 882.501 490C882.501 495.353 883.669 500.434 885.765 505ZM361.237 505H590.765C588.67 500.434 587.501 495.353 587.501 490C587.501 485.034 588.506 480.304 590.325 476H361.677C363.496 480.304 364.501 485.034 364.501 490C364.501 495.353 363.333 500.434 361.237 505ZM295.765 505H121.5V476H295.325C293.506 480.304 292.501 485.034 292.501 490C292.501 495.353 293.67 500.434 295.765 505Z" fill="#8E64C8"/>
<circle cx="918.501" cy="490" r="28" fill="#EDEDED"/>
<path d="M942 490C942 502.703 931.479 513 918.5 513C905.521 513 895 502.703 895 490C895 477.297 905.521 467 918.5 467C931.479 467 942 477.297 942 490Z" fill="#8E64C7"/>
<path fill-rule="evenodd" clip-rule="evenodd" d="M980.137 727C981.981 722.696 983 717.966 983 713C983 707.647 981.815 702.566 979.69 698H1021V727H980.137Z" fill="#FFD15C"/>
<circle cx="946.501" cy="713" r="28" fill="#EDEDED"/>
<path d="M970 713C970 725.703 959.479 736 946.5 736C933.521 736 923 725.703 923 713C923 700.297 933.521 690 946.5 690C959.479 690 970 700.297 970 713Z" fill="#FFD15C"/>
<path fill-rule="evenodd" clip-rule="evenodd" d="M362.176 283C363.995 278.696 365 273.966 365 269C365 263.647 363.832 258.566 361.736 254H574.196C572.768 258.749 572 263.785 572 269C572 273.85 572.664 278.546 573.906 283H362.176ZM295.824 283H125V254H296.264C294.168 258.566 293 263.647 293 269C293 273.966 294.005 278.696 295.824 283ZM955 269C955 273.966 953.995 278.696 952.176 283H1021V254H951.736C953.832 258.566 955 263.647 955 269ZM674.094 283H885.824C884.005 278.696 883 273.966 883 269C883 263.647 884.168 258.566 886.264 254H673.804C675.232 258.749 676 263.785 676 269C676 273.85 675.336 278.546 674.094 283Z" fill="#8E64C8"/>
<circle cx="329" cy="269" r="28" fill="#EDEDED"/>
<circle cx="624" cy="269" r="46" fill="#BD8DFF"/>
<path d="M616.728 257.2V251.008H628.296V286H621.384V257.2H616.728Z" fill="white"/>
<path fill-rule="evenodd" clip-rule="evenodd" d="M912.863 727C911.019 722.696 910 717.966 910 713C910 707.647 911.185 702.566 913.31 698H684.69C686.815 702.566 688 707.647 688 713C688 717.966 686.981 722.696 685.137 727H912.863ZM572 727H617.863C616.019 722.696 615 717.966 615 713C615 707.647 616.185 702.566 618.31 698H543C526.431 698 513 711.431 513 728V860C513 876.239 525.903 889.465 542.016 889.984C542.005 889.657 542 889.329 542 889V757C542 740.431 555.431 727 572 727Z" fill="#FFD15C"/>
<circle cx="651.501" cy="713" r="28" fill="#EDEDED"/>
<path d="M327.021 56C326.42 56 326.019 55.7995 325.618 55.3985L317.601 47.378C316.8 46.5759 316.8 45.3728 317.601 44.5708C318.403 43.7687 319.606 43.7687 320.407 44.5708L326.821 50.9872L337.444 36.7508C338.045 35.9487 339.448 35.7482 340.25 36.3498C341.051 36.9513 341.252 38.3549 340.65 39.1569L328.625 55.1979C328.224 55.599 327.823 56 327.021 56Z" fill="white"/>
<path d="M622.021 57C621.42 57 621.019 56.7995 620.618 56.3985L612.601 48.378C611.8 47.5759 611.8 46.3728 612.601 45.5708C613.403 44.7687 614.606 44.7687 615.407 45.5708L621.821 51.9872L632.444 37.7508C633.045 36.9487 634.448 36.7482 635.25 37.3498C636.051 37.9513 636.252 39.3549 635.65 40.1569L623.625 56.1979C623.224 56.599 622.823 57 622.021 57Z" fill="white"/>
<path d="M942 269C942 281.703 931.479 292 918.5 292C905.521 292 895 281.703 895 269C895 256.297 905.521 246 918.5 246C931.479 246 942 256.297 942 269Z" fill="#8E64C7"/>
<path d="M352 268.5C352 280.926 341.703 291 329 291C316.297 291 306 280.926 306 268.5C306 256.074 316.297 246 329 246C341.703 246 352 256.074 352 268.5Z" fill="#8E64C7"/>
<path d="M675 713C675 725.703 664.479 736 651.5 736C638.521 736 628 725.703 628 713C628 700.297 638.521 690 651.5 690C664.479 690 675 700.297 675 713Z" fill="#FFD15C"/>
<path d="M33.544 46.048C33.544 40.512 34.536 36.176 36.52 33.04C38.536 29.904 41.864 28.336 46.504 28.336C51.144 28.336 54.456 29.904 56.44 33.04C58.456 36.176 59.464 40.512 59.464 46.048C59.464 51.616 58.456 55.984 56.44 59.152C54.456 62.32 51.144 63.904 46.504 63.904C41.864 63.904 38.536 62.32 36.52 59.152C34.536 55.984 33.544 51.616 33.544 46.048ZM52.84 46.048C52.84 43.68 52.68 41.696 52.36 40.096C52.072 38.464 51.464 37.136 50.536 36.112C49.64 35.088 48.296 34.576 46.504 34.576C44.712 34.576 43.352 35.088 42.424 36.112C41.528 37.136 40.92 38.464 40.6 40.096C40.312 41.696 40.168 43.68 40.168 46.048C40.168 48.48 40.312 50.528 40.6 52.192C40.888 53.824 41.496 55.152 42.424 56.176C43.352 57.168 44.712 57.664 46.504 57.664C48.296 57.664 49.656 57.168 50.584 56.176C51.512 55.152 52.12 53.824 52.408 52.192C52.696 50.528 52.84 48.48 52.84 46.048Z" fill="white"/>
<defs>
<linearGradient id="paint0_linear" x1="1082.75" y1="476" x2="1082.75" y2="727" gradientUnits="userSpaceOnUse">
<stop stop-color="#8E64C8"/>
<stop offset="1" stop-color="#FFD15C"/>
</linearGradient>
<linearGradient id="paint1_linear" x1="856" y1="46.999" x2="243" y2="46.9995" gradientUnits="userSpaceOnUse">
<stop stop-color="#8E64C8"/>
<stop offset="0.5625" stop-color="#2FD055"/>
</linearGradient>
</defs>
</svg>
