<svg width="16" height="16" viewBox="0 0 16 16" fill="none" xmlns="http://www.w3.org/2000/svg">
<path fill-rule="evenodd" clip-rule="evenodd" d="M4.00004 0.666672H10.3545C10.7502 0.666672 11.1254 0.842436 11.3788 1.14643L14.3577 4.72113C14.5574 4.96075 14.6667 5.26279 14.6667 5.5747V12.6667C14.6667 14.1394 13.4728 15.3333 12 15.3333H4.00004C2.52728 15.3333 1.33337 14.1394 1.33337 12.6667V3.33334C1.33337 1.86058 2.52728 0.666672 4.00004 0.666672ZM13.3334 12.6667V6.00001H11.3334C10.597 6.00001 10 5.40305 10 4.66667V2.00001H4.00004C3.26366 2.00001 2.66671 2.59696 2.66671 3.33334V12.6667C2.66671 13.4031 3.26366 14 4.00004 14H12C12.7364 14 13.3334 13.4031 13.3334 12.6667ZM12.5767 4.66666L11.3334 3.17469V4.66666H12.5767ZM5.33337 9.33334C4.96518 9.33334 4.66671 9.03486 4.66671 8.66667C4.66671 8.29848 4.96518 8.00001 5.33337 8.00001H10.6667C11.0349 8.00001 11.3334 8.29848 11.3334 8.66667C11.3334 9.03486 11.0349 9.33334 10.6667 9.33334H5.33337ZM5.33337 12C4.96518 12 4.66671 11.7015 4.66671 11.3333C4.66671 10.9651 4.96518 10.6667 5.33337 10.6667H9.33337C9.70156 10.6667 10 10.9651 10 11.3333C10 11.7015 9.70156 12 9.33337 12H5.33337ZM5.33337 6.66667C4.96518 6.66667 4.66671 6.3682 4.66671 6.00001C4.66671 5.63182 4.96518 5.33334 5.33337 5.33334H7.33337C7.70156 5.33334 8.00004 5.63182 8.00004 6.00001C8.00004 6.3682 7.70156 6.66667 7.33337 6.66667H5.33337Z" fill="#4A2182"/>
</svg>
