<svg width="32" height="35" viewBox="0 0 32 35" fill="none" xmlns="http://www.w3.org/2000/svg">
<path d="M0.550758 25.3073C0.183586 22.664 0 20.0357 0 17.4224C0 14.8094 0.183536 12.1815 0.550609 9.53854C0.632328 8.95015 0.939705 8.41676 1.40758 8.05143C3.49736 6.41968 5.67878 4.94684 7.95184 3.63292C10.2255 2.31864 12.5909 1.16337 15.0479 0.167094C15.597 -0.055521 16.2109 -0.0557043 16.7601 0.166582C19.2038 1.15577 21.569 2.31121 23.8555 3.63292C26.1417 4.95445 28.3235 6.42723 30.4008 8.05127C30.868 8.41657 31.1749 8.94958 31.2566 9.53746C31.6238 12.1808 31.8074 14.8091 31.8074 17.4224C31.8074 20.0353 31.6238 22.6633 31.2568 25.3062C31.175 25.8946 30.8677 26.428 30.3998 26.7933C28.31 28.4251 26.1286 29.8979 23.8555 31.2118C21.5818 32.5261 19.2165 33.6814 16.7594 34.6777C16.2104 34.9003 15.5964 34.9005 15.0473 34.6782C12.6035 33.689 10.2384 32.5335 7.95184 31.2118C5.66562 29.8903 3.48388 28.4175 1.40661 26.7935C0.93936 26.4282 0.632419 25.8952 0.550758 25.3073Z" fill="#FFC542"/>
<mask id="mask0" mask-type="alpha" maskUnits="userSpaceOnUse" x="0" y="0" width="32" height="35">
<path d="M0.550758 25.3073C0.183586 22.664 0 20.0357 0 17.4224C0 14.8094 0.183536 12.1815 0.550609 9.53854C0.632328 8.95015 0.939705 8.41676 1.40758 8.05143C3.49736 6.41968 5.67878 4.94684 7.95184 3.63292C10.2255 2.31864 12.5909 1.16337 15.0479 0.167094C15.597 -0.055521 16.2109 -0.0557043 16.7601 0.166582C19.2038 1.15577 21.569 2.31121 23.8555 3.63292C26.1417 4.95445 28.3235 6.42723 30.4008 8.05127C30.868 8.41657 31.1749 8.94958 31.2566 9.53746C31.6238 12.1808 31.8074 14.8091 31.8074 17.4224C31.8074 20.0353 31.6238 22.6633 31.2568 25.3062C31.175 25.8946 30.8677 26.428 30.3998 26.7933C28.31 28.4251 26.1286 29.8979 23.8555 31.2118C21.5818 32.5261 19.2165 33.6814 16.7594 34.6777C16.2104 34.9003 15.5964 34.9005 15.0473 34.6782C12.6035 33.689 10.2384 32.5335 7.95184 31.2118C5.66562 29.8903 3.48388 28.4175 1.40661 26.7935C0.93936 26.4282 0.632419 25.8952 0.550758 25.3073Z" fill="white"/>
</mask>
<g mask="url(#mask0)">
</g>
<path d="M6.2267 17.1969C6.2267 17.1969 7.20639 18.6265 9.25975 19.8365C9.25975 19.8365 7.77262 7.35321 17.4622 5.18518C14.9797 14.2347 20.62 16.7868 22.6761 12.0058C26.1096 16.5589 23.5026 20.5313 23.5026 20.5313C24.9105 20.7328 26.0931 19.2051 26.0931 19.2051C26.1037 19.3933 26.1096 19.5827 26.1096 19.7736C26.1097 25.3192 21.5834 29.8148 15.9999 29.8148C10.4164 29.8148 5.89014 25.3192 5.89014 19.7735C5.89014 18.8827 6.00754 18.0192 6.2267 17.1969Z" fill="#FF7058"/>
<path d="M11.5662 25.4111C11.5662 27.8432 13.5512 29.8148 15.9999 29.8148C18.4486 29.8148 20.4336 27.8432 20.4336 25.4111C20.4336 24.1093 19.865 22.9395 18.9609 22.1333C17.2466 24.4465 14.8038 20.9377 16.7076 18.3753C16.7076 18.3753 11.5662 19.0152 11.5662 25.4111Z" fill="#FFC065"/>
<path d="M20.4335 25.4111C20.4335 24.1093 19.8649 22.9395 18.9608 22.1333C17.2466 24.4465 14.8037 20.9377 16.7075 18.3753C16.7075 18.3753 15.6874 18.8947 15.2075 19.6805C12.7661 24.3799 15.9998 29.8148 15.9998 29.8148C18.4485 29.8148 20.4335 27.8432 20.4335 25.4111Z" fill="#FFA624"/>
</svg>
