<svg width="32" height="35" viewBox="0 0 32 35" fill="none" xmlns="http://www.w3.org/2000/svg">
<path d="M0.550758 25.3073C0.183586 22.664 0 20.0357 0 17.4224C0 14.8094 0.183536 12.1815 0.550609 9.53854C0.632328 8.95015 0.939705 8.41676 1.40758 8.05143C3.49736 6.41968 5.67878 4.94684 7.95184 3.63292C10.2255 2.31864 12.5909 1.16337 15.0479 0.167094C15.597 -0.055521 16.2109 -0.0557043 16.7601 0.166582C19.2038 1.15577 21.569 2.31121 23.8555 3.63292C26.1417 4.95445 28.3235 6.42723 30.4008 8.05127C30.868 8.41657 31.1749 8.94958 31.2566 9.53746C31.6238 12.1808 31.8074 14.8091 31.8074 17.4224C31.8074 20.0353 31.6238 22.6633 31.2568 25.3062C31.175 25.8946 30.8677 26.428 30.3998 26.7933C28.31 28.4251 26.1286 29.8979 23.8555 31.2118C21.5818 32.5261 19.2165 33.6814 16.7594 34.6777C16.2104 34.9003 15.5964 34.9005 15.0473 34.6782C12.6035 33.689 10.2384 32.5335 7.95184 31.2118C5.66562 29.8903 3.48388 28.4175 1.40661 26.7935C0.93936 26.4282 0.632419 25.8952 0.550758 25.3073Z" fill="#A461D8"/>
<mask id="mask0" mask-type="alpha" maskUnits="userSpaceOnUse" x="0" y="0" width="32" height="35">
<path d="M0.550758 25.3073C0.183586 22.664 0 20.0357 0 17.4224C0 14.8094 0.183536 12.1815 0.550609 9.53854C0.632328 8.95015 0.939705 8.41676 1.40758 8.05143C3.49736 6.41968 5.67878 4.94684 7.95184 3.63292C10.2255 2.31864 12.5909 1.16337 15.0479 0.167094C15.597 -0.055521 16.2109 -0.0557043 16.7601 0.166582C19.2038 1.15577 21.569 2.31121 23.8555 3.63292C26.1417 4.95445 28.3235 6.42723 30.4008 8.05127C30.868 8.41657 31.1749 8.94958 31.2566 9.53746C31.6238 12.1808 31.8074 14.8091 31.8074 17.4224C31.8074 20.0353 31.6238 22.6633 31.2568 25.3062C31.175 25.8946 30.8677 26.428 30.3998 26.7933C28.31 28.4251 26.1286 29.8979 23.8555 31.2118C21.5818 32.5261 19.2165 33.6814 16.7594 34.6777C16.2104 34.9003 15.5964 34.9005 15.0473 34.6782C12.6035 33.689 10.2384 32.5335 7.95184 31.2118C5.66562 29.8903 3.48388 28.4175 1.40661 26.7935C0.93936 26.4282 0.632419 25.8952 0.550758 25.3073Z" fill="white"/>
</mask>
<g mask="url(#mask0)">
</g>
<path d="M21.8462 9.72223H10.1535C9.31452 9.72223 8.52895 10.1379 8.05045 10.835L6.28146 13.4124C5.66533 14.3101 5.76264 15.5231 6.51361 16.3086L14.4354 24.5942C15.2907 25.4888 16.709 25.4888 17.5643 24.5942L25.4861 16.3086C26.2372 15.5231 26.3344 14.3101 25.7182 13.4124L23.9493 10.8349C23.4709 10.1379 22.6852 9.72223 21.8462 9.72223Z" fill="#7DE2E2"/>
<path d="M12.9602 9.72223H10.1536C9.31457 9.72223 8.529 10.1379 8.0505 10.835L6.28151 13.4124C5.66538 14.3101 5.76253 15.5231 6.51366 16.3086L14.4354 24.5942C14.8138 24.9901 15.3022 25.2108 15.8034 25.2562C15.8034 25.2562 10.3848 18.613 10.3848 14.957C10.3849 12.5981 11.8912 10.7424 12.9602 9.72223Z" fill="#66D3D0"/>
<path d="M19.5928 14.957H26.1099C26.1652 14.4264 26.0373 13.8771 25.7185 13.4124L23.9492 10.8349C23.7021 10.4745 23.3726 10.1894 22.9962 9.99809L19.5928 14.957Z" fill="#A0F0F2"/>
<path d="M12.407 14.957H19.5926L15.9998 9.72223L12.407 14.957Z" fill="#BDFAFF"/>
<path d="M9.00362 9.99809C8.62721 10.1896 8.29791 10.4745 8.05062 10.8349L6.28148 13.4126C5.96253 13.8771 5.83464 14.4264 5.88993 14.957H12.4071L9.00362 9.99809Z" fill="#A0F0F2"/>
<path d="M5.88989 14.957C5.94117 15.4514 6.15139 15.9297 6.51359 16.3086L14.4353 24.5942C15.2907 25.4888 16.7089 25.4888 17.5643 24.5942L25.4861 16.3086C25.8483 15.9297 26.0583 15.4514 26.1098 14.957H5.88989Z" fill="#7DE2E2"/>
<path d="M15.8035 25.2564L12.407 14.957H5.88989C5.94117 15.4514 6.15139 15.9297 6.51359 16.3086L14.4353 24.5942C14.8138 24.9901 15.3022 25.2108 15.8035 25.2564V25.2564Z" fill="#66D3D0"/>
<path d="M16.1958 25.2564L19.5926 14.957H26.1097C26.0585 15.4514 25.8482 15.9297 25.486 16.3086L17.5643 24.5942C17.1859 24.9901 16.697 25.2108 16.1958 25.2564V25.2564Z" fill="#66D3D0"/>
<path d="M10.3849 14.957H5.88989C5.94117 15.4514 6.15139 15.9297 6.51359 16.3086L14.4353 24.5942C14.8138 24.9901 15.3022 25.2108 15.8035 25.2564C15.8035 25.2564 10.3849 18.613 10.3849 14.957Z" fill="#57C1BC"/>
<path d="M10.3849 14.957C10.3849 14.1355 10.5676 13.3749 10.8509 12.6895L9.00362 9.99809C8.62721 10.1894 8.29791 10.4745 8.05062 10.8349L6.28148 13.4126C5.96253 13.8771 5.83464 14.4264 5.88993 14.957H10.3849Z" fill="#7DE2E2"/>
</svg>
