<svg width="208" height="195" viewBox="0 0 208 195" fill="none" xmlns="http://www.w3.org/2000/svg">
<path d="M143.576 44.8044C141.325 44.259 136.416 42.6369 136.416 42.6369C136.416 42.6369 131.298 41.8398 129.047 41.2944C126.795 40.7491 125.817 44.3849 125.817 44.3849L135.437 46.7062L145.058 49.0275C145.044 49.0415 145.814 45.3497 143.576 44.8044Z" fill="white"/>
<path d="M144.574 42.8595L129.514 39.22L129.008 41.3132L144.068 44.9528L144.574 42.8595Z" fill="#EF4545"/>
<path d="M147.575 2.559C147.687 2.08355 147.492 1.60809 147.128 1.32841L146.988 -6.10352e-05L146.261 1.11866C145.8 1.18858 145.408 1.5242 145.296 1.99965C145.198 2.37722 145.31 2.75477 145.534 3.03445L143.548 10.1523L144.429 10.5858L145.408 10.5998L146.876 3.37007C147.226 3.23023 147.478 2.93656 147.575 2.559Z" fill="#FF9200"/>
<path d="M149.771 14.6272L137.731 11.7185L137.745 11.6486C138.164 9.91459 139.912 8.83781 141.646 9.25733L147.394 10.6417C149.128 11.0613 150.205 12.8093 149.785 14.5433L149.771 14.6272Z" fill="white"/>
<path d="M150.647 13.7674L137.408 10.568L136.964 12.4029L150.203 15.6024L150.647 13.7674Z" fill="#EF4545"/>
<path d="M151.113 15.5362L136.221 11.9423C135.521 11.7745 134.794 12.208 134.626 12.9212L128.529 38.1621C128.362 38.8613 128.795 39.5885 129.508 39.7563L144.401 43.3502C145.1 43.518 145.827 43.0845 145.995 42.3713L152.092 17.1303C152.26 16.4311 151.813 15.704 151.113 15.5362Z" fill="white"/>
<path d="M143.044 27.3894L129.466 24.1078L128.828 26.7448L142.407 30.0263L143.044 27.3894Z" fill="white"/>
<path d="M78.481 0.713135L72.9573 23.5908L127.033 36.6518L132.557 13.7741L78.481 0.713135ZM76.4533 12.8512L81.5155 14.0818L79.0683 24.1781L74.0061 22.9476L76.4533 12.8512ZM129.019 24.6396L122.894 23.1573L125.355 12.9491L131.48 14.4314L129.019 24.6396ZM82.3685 14.2776L88.2277 15.6899L85.7806 25.7863L79.9213 24.3739L82.3685 14.2776ZM89.0947 15.8997L94.954 17.312L92.5068 27.4084L86.6476 25.9961L89.0947 15.8997ZM95.8071 17.5218L101.666 18.9342L99.2191 29.0306L93.3599 27.6182L95.8071 17.5218ZM102.533 19.1439L108.393 20.5563L105.945 30.6527L100.086 29.2403L102.533 19.1439ZM109.246 20.7801L115.105 22.1925L112.658 32.2888L106.798 30.8765L109.246 20.7801ZM115.972 22.4022L121.831 23.8146L119.384 33.911L113.525 32.4986L115.972 22.4022ZM122.684 24.0243L128.809 25.5066L126.362 35.603L120.237 34.1207L122.684 24.0243ZM122.041 22.9616L116.182 21.5492L118.643 11.3409L124.502 12.7533L122.041 22.9616ZM115.315 21.3255L109.455 19.9131L111.917 9.7048L117.776 11.1172L115.315 21.3255ZM108.602 19.7033L102.743 18.2909L105.204 8.08266L111.064 9.49505L108.602 19.7033ZM101.876 18.0812L96.0168 16.6688L98.478 6.46053L104.337 7.87291L101.876 18.0812ZM95.1638 16.459L89.3045 15.0466L91.7657 4.83841L97.6249 6.25077L95.1638 16.459ZM88.4375 14.8369L82.5783 13.4245L85.0394 3.21627L90.8987 4.62864L88.4375 14.8369ZM81.7252 13.2148L76.6631 11.9842L79.1242 1.77593L84.1864 3.00652L81.7252 13.2148Z" fill="white"/>
<path d="M137.91 28.228L151.489 31.5096L152.126 28.8727L138.547 25.5911L137.91 28.228Z" fill="white"/>
<path d="M202.476 54.9008L208 32.0231L153.924 18.9622L148.401 41.8398L202.476 54.9008ZM204.49 42.7628L199.428 41.5322L201.875 31.4358L206.937 32.6664L204.49 42.7628ZM151.924 30.9743L158.049 32.4566L155.588 42.6649L149.463 41.1826L151.924 30.9743ZM198.575 41.3364L192.716 39.924L195.163 29.8276L201.022 31.24L198.575 41.3364ZM191.849 39.7143L185.989 38.3019L188.436 28.2055L194.296 29.6179L191.849 39.7143ZM185.136 38.0921L179.277 36.6798L181.724 26.5834L187.583 27.9958L185.136 38.0921ZM178.41 36.47L172.551 35.0576L174.998 24.9612L180.857 26.3736L178.41 36.47ZM171.698 34.8479L165.838 33.4355L168.286 23.3391L174.145 24.7515L171.698 34.8479ZM164.985 33.2257L159.126 31.8134L161.573 21.717L167.433 23.1293L164.985 33.2257ZM158.259 31.5896L152.134 30.1073L154.581 20.011L160.706 21.4932L158.259 31.5896ZM158.916 32.6664L164.776 34.0788L162.315 44.287L156.455 42.8746L158.916 32.6664ZM165.629 34.2885L171.488 35.7009L169.027 45.9092L163.168 44.4968L165.629 34.2885ZM172.341 35.9107L178.2 37.323L175.739 47.5313L169.88 46.1189L172.341 35.9107ZM179.067 37.5328L184.926 38.9451L182.465 49.1534L176.606 47.741L179.067 37.5328ZM185.78 39.1549L191.639 40.5673L189.178 50.7756L183.318 49.3632L185.78 39.1549ZM192.506 40.777L198.365 42.1894L195.904 52.3977L190.045 50.9853L192.506 40.777ZM199.218 42.3992L204.28 43.6298L201.819 53.8381L196.757 52.6075L199.218 42.3992Z" fill="white"/>
<path d="M75.013 61.1376C81.977 68.7309 92.7166 72.115 102.729 69.4021C107.484 68.1156 111.93 65.5565 115.371 62.0186C118.489 58.8163 121.3 53.9219 119.636 49.3352C118.503 46.2168 114.923 43.8815 111.595 44.4408C107.777 45.0841 106.351 49.0975 107.554 52.4676C110.63 61.1376 122.027 60.5503 128.446 56.425C138.85 49.7267 139.675 36.3721 138.29 25.2409C138.094 23.6048 135.493 23.5908 135.703 25.2409C136.654 32.9181 136.85 41.3224 132.85 48.2305C129.494 54.0198 122.013 58.4807 115.245 56.3272C112.35 55.4042 108.113 51.7264 110.155 48.3423C112.448 44.5667 117.398 48.7758 117.524 51.8803C117.86 59.921 107.568 65.7104 100.883 67.1927C92.0594 69.1644 82.9139 65.9061 76.8588 59.3057C75.7121 58.0751 73.8803 59.9071 75.013 61.1376Z" fill="white"/>
<path d="M97.8347 106.655C90.9406 94.4474 94.157 91.9722 68.2727 52.6634L48.7092 75.2195L18.8815 73.919C29.6212 119.73 33.6346 119.115 37.7598 132.498C38.9624 136.399 41.6474 144.44 45.1154 153.977C45.1154 153.977 53.5197 186.517 69.1677 192.503C87.137 199.383 103.093 190.349 113.553 181.218C120.824 187.58 127.173 191.747 130.11 190.279C139.297 185.678 105.218 119.744 97.8347 106.655ZM81.4876 162.144C72.1603 146.957 81.4176 151.306 81.4176 151.306C81.4176 151.306 93.9612 154.984 104.575 172.785C104.575 172.785 90.8148 177.33 81.4876 162.144Z" fill="#EDF5F9"/>
<path d="M137.507 93.1469C117.23 69.0246 86.284 54.2157 54.7783 53.5724C54.7783 53.5724 54.6664 83.0924 74.4816 84.4349C94.2968 85.7773 127.327 102.67 127.327 102.67C127.327 102.712 127.341 102.74 127.341 102.782C127.075 103.845 127.047 105.145 127.313 106.53C127.914 109.564 129.746 111.759 131.41 111.424C132.822 111.144 133.648 109.144 133.494 106.697C134.095 107.215 134.766 107.704 135.465 108.152C137.731 109.606 140.346 110.711 142.22 111.06C144.947 111.55 147.659 108.879 147.072 106.166C145.59 99.146 137.507 93.1469 137.507 93.1469Z" fill="#EDF5F9"/>
<path d="M96.4084 73.2337C99.1213 73.01 101.191 69.7657 101.876 65.3048C97.597 63.1793 93.2061 61.3194 88.7032 59.7532C88.7172 60.2566 88.7312 60.7461 88.7732 61.2635C89.3186 68.1715 92.7446 73.5274 96.4084 73.2337Z" fill="#F74D5E"/>
<path d="M0.688426 152.019C-2.89146 120.709 7.63847 88.0567 28.8241 64.7316C28.8241 64.7316 50.3453 84.9383 37.6899 100.251C25.0345 115.563 14.6024 151.166 14.6024 151.166C14.6304 151.194 14.6444 151.222 14.6723 151.25C15.6232 151.781 16.6022 152.662 17.4132 153.809C19.2032 156.326 19.5388 159.165 18.1544 160.144C16.9797 160.969 14.966 160.2 13.2879 158.41C13.246 159.207 13.1481 160.018 12.9943 160.857C12.5049 163.5 11.498 166.157 10.4492 167.765C8.92497 170.086 5.13534 170.212 3.55515 167.933C-0.528149 162.018 0.688426 152.019 0.688426 152.019Z" fill="#EDF5F9"/>
<path d="M0.688465 152.019C0.688465 152.019 0.646546 152.425 0.59061 153.11L14.7423 151.32C14.7144 151.306 14.6864 151.278 14.6584 151.264C14.6305 151.236 14.6164 151.208 14.5885 151.18C14.5885 151.18 15.1059 149.418 16.0428 146.523L0.338867 148.509C0.450739 149.67 0.56261 150.844 0.688465 152.019Z" fill="#F74D5E"/>
<path d="M84.6199 165.066C82.6482 162.032 81.4595 157.431 80.7464 152.9C80.6345 152.201 80.9421 151.642 81.4176 151.306C78.5229 150.663 72.9853 148.635 65.2522 142.258C65.2522 142.258 77.5441 181.609 104.575 172.785C96.8279 173.289 88.9689 171.764 84.6199 165.066Z" fill="#EDF5F9"/>
<path d="M84.6199 165.066C82.6482 162.032 81.4595 157.431 80.7464 152.9C80.6345 152.201 80.9421 151.642 81.4176 151.306C78.5229 150.663 72.9853 148.635 65.2522 142.258C65.2522 142.258 77.5441 181.609 104.575 172.785C96.8279 173.289 88.9689 171.764 84.6199 165.066Z" fill="#D6E4EA"/>
<path d="M12.7007 85.2179C14.6864 94.8109 20.7274 108.529 32.4319 119.241C32.4319 119.241 18.0984 87.1197 22.3775 73.5973C16.1547 73.2197 11.4002 78.9391 12.7007 85.2179Z" fill="#6B9EB2"/>
<path d="M80.7184 55.9496C86.3259 63.9904 92.1293 77.8065 91.8496 93.6783C91.8496 93.6783 78.3831 61.1936 65.6158 54.9987C69.6292 50.2022 77.0406 50.6917 80.7184 55.9496Z" fill="#6B9EB2"/>
<path d="M136.528 92.0282L124.74 101.397C126.376 102.194 127.313 102.67 127.313 102.67C127.313 102.712 127.327 102.74 127.327 102.782C127.313 102.852 127.299 102.922 127.285 102.992L138.57 94.0279C137.913 93.4825 137.493 93.1609 137.493 93.1609C137.185 92.7693 136.85 92.3918 136.528 92.0282Z" fill="#F74D5E"/>
<path d="M39.5218 137.909C39.8854 139.014 40.2909 140.203 40.7244 141.489C63.3364 138.58 84.6619 129.337 102.254 114.836C101.624 113.633 101.037 112.528 100.478 111.508C82.844 125.52 61.8122 134.637 39.5218 137.909Z" fill="#EDF5F9"/>
<path d="M97.2334 105.565C91.1085 94.2656 93.3599 90.7696 68.2727 52.6634L48.7092 75.2195L18.8815 73.919C29.3415 118.528 33.4248 119.115 37.4382 131.477C59.365 128.47 80.0472 119.507 97.2334 105.565Z" fill="#EDF5F9"/>
<path d="M97.2334 105.565C80.0472 119.506 59.3649 128.47 37.4521 131.477C37.564 131.812 37.6619 132.148 37.7738 132.498C38.1933 133.84 38.7806 135.686 39.5218 137.909C61.8121 134.637 82.844 125.534 100.492 111.494C99.4289 109.494 98.5199 107.844 97.8487 106.655C97.6249 106.278 97.4152 105.914 97.2334 105.565Z" fill="#2553D6"/>
<path d="M42.9478 147.894C43.633 149.823 44.3602 151.865 45.1153 153.977C45.1153 153.977 53.5197 186.517 69.1677 192.502C87.137 199.382 103.093 190.349 113.553 181.217C120.824 187.58 127.173 191.747 130.11 190.279C137.367 186.643 117.636 144.747 105.372 120.849C87.4027 135.35 65.8255 144.705 42.9478 147.894ZM81.4036 151.306C81.4036 151.306 93.9472 154.984 104.561 172.785C104.561 172.785 90.8008 177.33 81.4735 162.143C72.1602 146.957 81.4036 151.306 81.4036 151.306Z" fill="#EDF5F9"/>
<path d="M40.7244 141.489C41.3957 143.447 42.1368 145.601 42.9479 147.908C65.8256 144.706 87.4028 135.364 105.386 120.863C104.267 118.696 103.219 116.668 102.254 114.836C84.6619 129.337 63.3224 138.567 40.7244 141.489Z" fill="#2553D6"/>
<path d="M14.4626 108.501C12.4489 110.319 8.6593 109.592 4.93958 107.019C6.33797 102.46 8.01605 97.9852 9.97379 93.6362C10.3234 93.9858 10.687 94.3494 11.0226 94.727C15.6513 99.8731 17.1895 106.04 14.4626 108.501Z" fill="#F74D5E"/>
<path d="M39.5218 137.909C39.8854 139.014 40.2909 140.203 40.7244 141.489C63.3364 138.58 84.6619 129.337 102.254 114.836C101.624 113.633 101.037 112.528 100.478 111.508C82.844 125.52 61.8122 134.637 39.5218 137.909Z" fill="#EDF5F9"/>
<path d="M97.2334 105.565C91.1085 94.2656 93.3599 90.7696 68.2727 52.6634L48.7092 75.2195L18.8815 73.919C29.3415 118.528 33.4248 119.115 37.4382 131.477C59.365 128.47 80.0472 119.507 97.2334 105.565Z" fill="#EDF5F9"/>
<path d="M97.2334 105.565C80.0472 119.506 59.3649 128.47 37.4521 131.477C37.564 131.812 37.6619 132.148 37.7738 132.498C38.1933 133.84 38.7806 135.686 39.5218 137.909C61.8121 134.637 82.844 125.534 100.492 111.494C99.4289 109.494 98.5199 107.844 97.8487 106.655C97.6249 106.278 97.4152 105.914 97.2334 105.565Z" fill="#2553D6"/>
<path d="M40.7244 141.489C41.3957 143.447 42.1368 145.601 42.9479 147.908C65.8256 144.706 87.4028 135.364 105.386 120.863C104.267 118.696 103.219 116.668 102.254 114.836C84.6619 129.337 63.3224 138.567 40.7244 141.489Z" fill="#2553D6"/>
<path d="M122.586 178.519C119.594 179.805 117.021 181.273 115.217 182.644C116.825 184 118.391 185.245 119.859 186.308C121.481 185.846 123.285 185.217 125.131 184.42C127.397 183.441 129.41 182.364 131.046 181.315C130.711 179.749 130.263 178.029 129.704 176.183C127.648 176.617 125.173 177.4 122.586 178.519Z" fill="#2553D6"/>
<path d="M99.4848 173.414C98.0165 173.4 96.2965 173.205 94.4786 172.701C95.1638 175.288 96.3105 178.547 97.7928 182.001C99.0373 184.895 100.352 187.524 101.568 189.636C102.883 188.923 104.169 188.167 105.414 187.37C104.729 185.147 103.778 182.588 102.631 179.903C101.596 177.512 100.52 175.302 99.4848 173.414Z" fill="#2553D6"/>
<path d="M45.6887 104.544C46.318 106.026 45.5908 107.76 44.0526 108.417C42.5143 109.075 40.7524 108.417 40.1091 106.949C39.4798 105.467 40.207 103.733 41.7452 103.075C43.2974 102.404 45.0594 103.061 45.6887 104.544Z" fill="#3D3C4F"/>
<path d="M43.7729 107.746C42.5843 108.264 41.2278 107.774 40.7524 106.655C40.2769 105.537 40.8502 104.222 42.0389 103.719C43.2275 103.201 44.5839 103.691 45.0594 104.809C45.5348 105.914 44.9615 107.243 43.7729 107.746Z" fill="#F74D5E"/>
<path d="M45.7447 122.443L38.0535 125.114C37.2424 125.394 36.809 126.289 37.0886 127.1C37.3683 127.911 38.2633 128.344 39.0743 128.065L46.7655 125.394C47.5766 125.114 48.0101 124.219 47.7304 123.408C47.4507 122.597 46.5557 122.164 45.7447 122.443Z" fill="#6B9EB2"/>
<path d="M84.4242 105.802L91.6399 102.055C92.409 101.663 93.3459 101.957 93.7515 102.726C94.143 103.495 93.8493 104.432 93.0802 104.837L85.8645 108.585C85.0954 108.977 84.1585 108.683 83.753 107.914C83.3614 107.145 83.669 106.208 84.4242 105.802Z" fill="#6B9EB2"/>
<path d="M39.5218 137.909C39.8854 139.014 40.2909 140.203 40.7244 141.489C63.3364 138.58 84.6619 129.337 102.254 114.836C101.624 113.633 101.037 112.528 100.478 111.508C82.844 125.52 61.8122 134.637 39.5218 137.909Z" fill="#EDF5F9"/>
<path d="M57.4492 85.7074C65.8675 81.1766 72.5238 73.5134 75.9639 64.5917C73.7265 61.0398 71.1954 57.0823 68.2727 52.6634L48.7092 75.2195L18.8815 73.919C23.8738 95.2025 27.4117 106.46 30.1806 113.759C29.3695 104.837 27.9012 95.9716 25.7616 87.2876C36.1936 90.7976 47.7583 90.9234 57.4492 85.7074Z" fill="#D3E4EA"/>
<path d="M97.2334 105.565C80.0472 119.506 59.3649 128.47 37.4521 131.477C37.564 131.812 37.6619 132.148 37.7738 132.498C38.1933 133.84 38.7806 135.686 39.5218 137.909C61.8121 134.637 82.844 125.534 100.492 111.494C99.4289 109.494 98.5199 107.844 97.8487 106.655C97.6249 106.278 97.4152 105.914 97.2334 105.565Z" fill="#2553D6"/>
<path d="M40.7244 141.489C41.3957 143.447 42.1368 145.601 42.9479 147.908C65.8256 144.706 87.4028 135.364 105.386 120.863C104.267 118.696 103.219 116.668 102.254 114.836C84.6619 129.337 63.3224 138.567 40.7244 141.489Z" fill="#2553D6"/>
<path d="M4.82772 50.8315C2.14281 51.9921 0.884225 55.1385 2.04489 57.8374L4.92562 64.5357C6.08628 67.2207 9.23263 68.4792 11.9315 67.3185C14.6164 66.1579 15.875 63.0115 14.7144 60.3126L11.8336 53.6143C10.673 50.9294 7.52661 49.6708 4.82772 50.8315Z" fill="white"/>
<path d="M60.7354 27.0309C58.0505 28.1916 56.7919 31.3379 57.9526 34.0368L60.8333 40.7351C61.994 43.42 65.1404 44.6786 67.8393 43.5179C70.5242 42.3573 71.7827 39.2109 70.622 36.512L67.7414 29.8137C66.5667 27.1288 63.4203 25.8842 60.7354 27.0309Z" fill="white"/>
<path d="M23.9298 12.3757L20.3918 13.8999C9.49838 18.5846 0.157097 30.5968 1.01012 42.4272C1.26183 46.049 4.10059 54.2855 5.62483 57.8095C15.875 81.6241 32.1243 82.3652 48.6953 75.2334C65.2662 68.1016 76.747 57.7535 65.6578 31.9812C63.9517 28.0237 59.6167 19.997 56.764 17.1163C48.7512 9.03357 34.3897 7.8729 23.9298 12.3757Z" fill="white"/>
<path d="M17.8747 36.5538C11.54 39.2806 8.08602 46.3425 10.1696 52.915C10.4353 53.768 10.7569 54.607 11.1065 55.4461C18.6019 72.856 29.1318 77.1351 46.318 69.7376C62.2177 62.8995 69.1258 55.2223 60.1481 34.3443C59.7845 33.5053 59.393 32.7082 58.9595 31.9251C55.6313 25.8841 48.122 23.5348 41.7872 26.2616L17.8747 36.5538Z" fill="#232628"/>
<path d="M23.5942 39.6023C23.5942 39.6023 10.715 43.4898 13.0503 50.3699C15.3856 57.25 23.2166 66.5073 23.2166 66.5073C23.2166 66.5073 13.5677 52.3416 14.6724 47.3773C15.5954 43.2521 23.5942 39.6023 23.5942 39.6023Z" fill="white"/>
<path d="M72.6217 75.4991C73.9082 78.4916 72.426 82.0016 69.2936 83.344C66.1752 84.6865 62.5952 83.3441 61.3087 80.3655C60.0222 77.3729 61.5045 73.863 64.6369 72.5205C67.7553 71.1641 71.3352 72.5065 72.6217 75.4991Z" fill="#3D3C4F"/>
<path d="M68.7589 82.024C71.171 80.986 72.3394 78.3157 71.3686 76.0597C70.3977 73.8036 67.6553 72.8162 65.2432 73.8542C62.8311 74.8922 61.6627 77.5626 62.6335 79.8186C63.6044 82.0746 66.3468 83.062 68.7589 82.024Z" fill="#F74D5E"/>
<path d="M35.2287 81.8198L29.8729 84.1272C27.9851 84.9382 27.0901 87.1617 27.9151 89.0495C28.7262 90.9374 30.9497 91.8323 32.8375 91.0073L38.1933 88.7C40.0811 87.8889 40.9761 85.6654 40.151 83.7776C39.326 81.8898 37.1165 81.0088 35.2287 81.8198Z" fill="#6B9EB2"/>
</svg>
