<svg width="172" height="287" viewBox="0 0 172 287" fill="none" xmlns="http://www.w3.org/2000/svg">
<path d="M170.419 75.1961C170.419 74.9218 169.494 74.6819 168.145 74.5562C167.46 74.499 166.923 73.9505 166.865 73.2763C166.751 71.9278 166.511 71.0022 166.226 71.0022C165.94 71.0022 165.711 71.9278 165.586 73.2763C165.528 73.9619 164.98 74.499 164.306 74.5562C162.957 74.6704 162.032 74.9104 162.032 75.1961C162.032 75.4704 162.957 75.7103 164.306 75.8361C164.991 75.8932 165.528 76.4417 165.586 77.1159C165.7 78.4644 165.94 79.39 166.226 79.39C166.511 79.39 166.74 78.4644 166.865 77.1159C166.923 76.4303 167.471 75.8932 168.145 75.8361C169.494 75.7103 170.419 75.4704 170.419 75.1961Z" fill="white"/>
<path d="M106.368 237.696C106.368 237.491 105.671 237.308 104.665 237.216C104.151 237.171 103.751 236.759 103.705 236.256C103.614 235.239 103.442 234.554 103.225 234.554C103.02 234.554 102.837 235.251 102.745 236.256C102.7 236.771 102.288 237.171 101.785 237.216C100.768 237.308 100.083 237.479 100.083 237.696C100.083 237.902 100.78 238.085 101.785 238.176C102.3 238.222 102.7 238.633 102.745 239.136C102.837 240.153 103.02 240.839 103.225 240.839C103.431 240.839 103.614 240.142 103.705 239.136C103.751 238.622 104.162 238.222 104.665 238.176C105.682 238.085 106.368 237.913 106.368 237.696Z" fill="white"/>
<path d="M149.393 129.546C149.393 129.386 148.856 129.249 148.056 129.169C147.656 129.135 147.336 128.815 147.301 128.415C147.233 127.626 147.096 127.078 146.924 127.078C146.764 127.078 146.627 127.615 146.547 128.415C146.513 128.815 146.193 129.135 145.793 129.169C145.005 129.237 144.456 129.375 144.456 129.546C144.456 129.706 144.993 129.843 145.793 129.923C146.193 129.957 146.513 130.277 146.547 130.677C146.616 131.466 146.753 132.014 146.924 132.014C147.084 132.014 147.221 131.477 147.301 130.677C147.336 130.277 147.656 129.957 148.056 129.923C148.856 129.855 149.393 129.706 149.393 129.546Z" fill="white"/>
<path d="M129.874 25.132C129.874 24.9835 129.372 24.8578 128.652 24.7892C128.286 24.7549 127.989 24.4692 127.955 24.0921C127.886 23.3608 127.76 22.8694 127.612 22.8694C127.463 22.8694 127.337 23.3722 127.269 24.0921C127.235 24.4578 126.949 24.7549 126.572 24.7892C125.84 24.8578 125.349 24.9835 125.349 25.132C125.349 25.2806 125.852 25.4063 126.572 25.4749C126.938 25.5091 127.235 25.7948 127.269 26.1719C127.337 26.9033 127.463 27.3947 127.612 27.3947C127.76 27.3947 127.886 26.8919 127.955 26.1719C127.989 25.8063 128.275 25.5091 128.652 25.4749C129.383 25.4063 129.874 25.2806 129.874 25.132Z" fill="white"/>
<path d="M123.384 47.21C123.384 47.05 122.846 46.9129 122.047 46.8329C121.647 46.7986 121.327 46.4786 121.292 46.0787C121.224 45.2902 121.087 44.7416 120.915 44.7416C120.755 44.7416 120.618 45.2787 120.538 46.0787C120.504 46.4786 120.184 46.7986 119.784 46.8329C118.995 46.9015 118.447 47.0386 118.447 47.21C118.447 47.37 118.984 47.5071 119.784 47.5871C120.184 47.6214 120.504 47.9414 120.538 48.3413C120.607 49.1298 120.744 49.6784 120.915 49.6784C121.075 49.6784 121.212 49.1412 121.292 48.3413C121.327 47.9414 121.647 47.6214 122.047 47.5871C122.846 47.5185 123.384 47.3814 123.384 47.21Z" fill="white"/>
<path d="M4.93672 91.5147C4.93672 91.3547 4.39964 91.2176 3.59971 91.1376C3.19975 91.1033 2.87977 90.7834 2.84549 90.3834C2.77692 89.5949 2.63977 89.0464 2.46836 89.0464C2.30837 89.0464 2.17126 89.5835 2.09127 90.3834C2.05698 90.7834 1.73701 91.1033 1.33704 91.1376C0.548539 91.2062 0 91.3433 0 91.5147C0 91.6747 0.537111 91.8118 1.33704 91.8918C1.73701 91.9261 2.05698 92.2461 2.09127 92.646C2.15983 93.4345 2.29695 93.9831 2.46836 93.9831C2.62835 93.9831 2.7655 93.446 2.84549 92.646C2.87977 92.2461 3.19975 91.9261 3.59971 91.8918C4.39964 91.8233 4.93672 91.6747 4.93672 91.5147Z" fill="white"/>
<path d="M101.934 28.5716C101.934 28.263 100.894 27.9888 99.3742 27.8516C98.6085 27.7831 97.9914 27.1774 97.9229 26.4003C97.7857 24.8805 97.5229 23.8406 97.203 23.8406C96.8944 23.8406 96.6201 24.8805 96.483 26.4003C96.4144 27.166 95.8088 27.7831 95.0317 27.8516C93.5118 27.9888 92.4719 28.2516 92.4719 28.5716C92.4719 28.8915 93.5118 29.1544 95.0317 29.2915C95.7973 29.3601 96.4144 29.9657 96.483 30.7428C96.6201 32.2627 96.883 33.3026 97.203 33.3026C97.5115 33.3026 97.7857 32.2627 97.9229 30.7428C97.9914 29.9772 98.5971 29.3601 99.3742 29.2915C100.894 29.1429 101.934 28.8801 101.934 28.5716Z" fill="white"/>
<path d="M102.334 182.501C102.334 182.341 101.797 182.204 100.997 182.124C100.597 182.09 100.277 181.77 100.243 181.37C100.174 180.581 100.037 180.033 99.8656 180.033C99.7056 180.033 99.5685 180.57 99.4885 181.37C99.4542 181.77 99.1342 182.09 98.7343 182.124C97.9458 182.193 97.3972 182.33 97.3972 182.501C97.3972 182.661 97.9343 182.798 98.7343 182.878C99.1342 182.913 99.4542 183.233 99.4885 183.633C99.557 184.421 99.6942 184.97 99.8656 184.97C100.026 184.97 100.163 184.432 100.243 183.633C100.277 183.233 100.597 182.913 100.997 182.878C101.797 182.798 102.334 182.661 102.334 182.501Z" fill="white"/>
<path d="M119.441 104.577C119.441 104.371 118.744 104.188 117.738 104.097C117.224 104.051 116.824 103.639 116.778 103.137C116.687 102.12 116.504 101.434 116.298 101.434C116.093 101.434 115.91 102.131 115.818 103.137C115.773 103.651 115.361 104.051 114.859 104.097C113.842 104.188 113.156 104.371 113.156 104.577C113.156 104.782 113.853 104.965 114.859 105.056C115.373 105.102 115.773 105.514 115.818 106.016C115.91 107.033 116.081 107.719 116.298 107.719C116.504 107.719 116.687 107.022 116.778 106.016C116.824 105.502 117.236 105.102 117.738 105.056C118.744 104.954 119.441 104.782 119.441 104.577Z" fill="white"/>
<path d="M66.9542 101.594C66.9542 101.228 65.7315 100.908 63.9487 100.76C63.046 100.68 62.326 99.9598 62.246 99.0571C62.086 97.2744 61.7775 96.0516 61.4118 96.0516C61.0461 96.0516 60.7262 97.2744 60.5776 99.0571C60.4976 99.9598 59.7777 100.68 58.8749 100.76C57.0922 100.92 55.8694 101.228 55.8694 101.594C55.8694 101.96 57.0922 102.28 58.8749 102.428C59.7777 102.508 60.4976 103.228 60.5776 104.131C60.7376 105.914 61.0461 107.136 61.4118 107.136C61.7775 107.136 62.0975 105.914 62.246 104.131C62.326 103.228 63.046 102.508 63.9487 102.428C65.7315 102.28 66.9542 101.96 66.9542 101.594Z" fill="white"/>
<path d="M144.342 81.7443C145.233 80.8758 144.742 79.3673 143.507 79.1959L140.525 78.7617C140.033 78.6931 139.622 78.3846 139.394 77.9389L138.057 75.242C137.508 74.1335 135.92 74.1335 135.371 75.242L134.034 77.9389C133.817 78.3846 133.394 78.6817 132.903 78.7617L129.92 79.1959C128.697 79.3788 128.206 80.8758 129.086 81.7443L131.246 83.847C131.6 84.1898 131.76 84.6812 131.68 85.1726L131.166 88.1437C130.96 89.3665 132.24 90.2921 133.337 89.7207L136 88.3151C136.434 88.0866 136.959 88.0866 137.394 88.3151L140.056 89.7207C141.153 90.2921 142.433 89.3665 142.228 88.1437L141.713 85.1726C141.633 84.6926 141.793 84.1898 142.148 83.847L144.342 81.7443Z" fill="#F4BD0F"/>
<path d="M114.859 162.663C115.327 162.206 115.076 161.394 114.413 161.303L112.824 161.074C112.562 161.04 112.345 160.869 112.219 160.64L111.51 159.2C111.213 158.606 110.368 158.606 110.082 159.2L109.373 160.64C109.259 160.88 109.031 161.04 108.768 161.074L107.179 161.303C106.528 161.394 106.265 162.206 106.734 162.663L107.888 163.783C108.071 163.966 108.162 164.228 108.116 164.491L107.842 166.08C107.728 166.731 108.413 167.234 108.996 166.925L110.425 166.171C110.653 166.045 110.939 166.045 111.167 166.171L112.596 166.925C113.179 167.234 113.864 166.731 113.75 166.08L113.476 164.491C113.43 164.228 113.522 163.966 113.704 163.783L114.859 162.663Z" fill="#F4BD0F"/>
<path d="M171.276 112.508C171.562 112.233 171.402 111.753 171.014 111.696L170.077 111.559C169.928 111.536 169.791 111.445 169.722 111.296L169.3 110.439C169.128 110.085 168.625 110.085 168.454 110.439L168.031 111.296C167.962 111.433 167.825 111.536 167.677 111.559L166.74 111.696C166.351 111.753 166.203 112.233 166.477 112.508L167.163 113.17C167.277 113.285 167.323 113.433 167.3 113.593L167.14 114.53C167.071 114.919 167.483 115.216 167.825 115.033L168.671 114.587C168.808 114.519 168.968 114.519 169.105 114.587L169.951 115.033C170.294 115.216 170.705 114.919 170.637 114.53L170.477 113.593C170.454 113.445 170.499 113.285 170.614 113.17L171.276 112.508Z" fill="#F4BD0F"/>
<path d="M152.398 3.25971C152.787 2.8826 152.57 2.20839 152.032 2.1284L150.718 1.93411C150.501 1.89983 150.318 1.76271 150.215 1.56844L149.621 0.368539C149.381 -0.122846 148.684 -0.122846 148.433 0.368539L147.839 1.56844C147.747 1.76271 147.553 1.89983 147.336 1.93411L146.022 2.1284C145.484 2.20839 145.267 2.87118 145.656 3.25971L146.604 4.18534C146.764 4.3339 146.833 4.55104 146.799 4.76816L146.57 6.08233C146.479 6.61942 147.039 7.03082 147.53 6.77941L148.707 6.16233C148.901 6.05948 149.13 6.05948 149.324 6.16233L150.501 6.77941C150.981 7.03082 151.553 6.61942 151.461 6.08233L151.233 4.76816C151.198 4.55104 151.267 4.3339 151.427 4.18534L152.398 3.25971Z" fill="#F4BD0F"/>
<path d="M57.5378 282.938C57.9721 282.515 57.7321 281.772 57.1265 281.681L55.6523 281.464C55.4123 281.43 55.2066 281.281 55.0924 281.064L54.4295 279.727C54.1553 279.178 53.3782 279.178 53.1039 279.727L52.4412 281.064C52.3383 281.281 52.1212 281.43 51.8812 281.464L50.407 281.681C49.8014 281.772 49.5614 282.515 49.9956 282.938L51.0584 283.978C51.2298 284.149 51.3098 284.389 51.2756 284.629L51.0241 286.092C50.9213 286.698 51.5498 287.155 52.0983 286.869L53.4125 286.172C53.6296 286.058 53.881 286.058 54.0982 286.172L55.4123 286.869C55.9494 287.155 56.5894 286.698 56.4865 286.092L56.2351 284.629C56.1894 284.389 56.2694 284.149 56.4522 283.978L57.5378 282.938Z" fill="#F4BD0F"/>
<path d="M76.2905 214.761C76.7704 214.293 76.5076 213.481 75.8448 213.39L74.2335 213.161C73.9707 213.127 73.7421 212.956 73.6279 212.716L72.9079 211.253C72.6108 210.659 71.7537 210.659 71.4566 211.253L70.7367 212.716C70.6224 212.956 70.3939 213.116 70.131 213.161L68.5197 213.39C67.8569 213.481 67.5941 214.304 68.074 214.761L69.2397 215.892C69.434 216.075 69.5139 216.35 69.4682 216.612L69.194 218.212C69.0797 218.875 69.7768 219.378 70.3596 219.058L71.7994 218.304C72.0394 218.178 72.3137 218.178 72.5537 218.304L73.9935 219.058C74.5878 219.366 75.2734 218.864 75.1592 218.212L74.8849 216.612C74.8392 216.35 74.9306 216.087 75.1134 215.892L76.2905 214.761Z" fill="#F4BD0F"/>
<path d="M72.7136 169.897C72.8508 169.428 72.3937 169.017 71.948 169.188L70.8509 169.611C70.6681 169.68 70.4738 169.657 70.3138 169.542L69.3425 168.88C68.9426 168.605 68.4054 168.902 68.4283 169.394L68.4855 170.571C68.4969 170.765 68.4055 170.948 68.2569 171.062L67.3198 171.782C66.9313 172.079 67.057 172.685 67.5255 172.811L68.6569 173.119C68.8397 173.165 68.9883 173.302 69.0568 173.485L69.4454 174.593C69.6054 175.05 70.2224 175.119 70.4853 174.719L71.1252 173.736C71.2281 173.576 71.4109 173.473 71.6052 173.473L72.7822 173.439C73.2622 173.428 73.525 172.868 73.2165 172.491L72.4737 171.576C72.348 171.428 72.3137 171.222 72.3708 171.039L72.7136 169.897Z" fill="#F4BD0F"/>
<path d="M123.361 209.31C123.989 208.853 123.829 207.87 123.086 207.642L121.269 207.093C120.972 207.002 120.744 206.773 120.641 206.476L120.07 204.671C119.83 203.928 118.847 203.779 118.401 204.419L117.315 205.973C117.144 206.225 116.847 206.373 116.538 206.373L114.641 206.362C113.864 206.362 113.419 207.253 113.887 207.87L115.03 209.379C115.213 209.63 115.27 209.95 115.179 210.247L114.584 212.053C114.344 212.796 115.053 213.493 115.784 213.241L117.578 212.624C117.875 212.521 118.195 212.567 118.447 212.75L119.978 213.87C120.607 214.327 121.498 213.87 121.475 213.093L121.441 211.196C121.429 210.887 121.578 210.59 121.829 210.407L123.361 209.31Z" fill="#F4BD0F"/>
<path d="M43.6876 84.5096C44.2933 83.9153 43.9619 82.8754 43.1162 82.7611L41.0707 82.464C40.7393 82.4183 40.4422 82.2012 40.2936 81.9041L39.3794 80.0528C39.0023 79.2871 37.9167 79.2871 37.5396 80.0528L36.6254 81.9041C36.4768 82.2126 36.1911 82.4183 35.8483 82.464L33.8028 82.7611C32.9571 82.8868 32.6257 83.9153 33.2314 84.5096L34.717 85.9494C34.9569 86.1894 35.0712 86.5208 35.0141 86.8636L34.6598 88.9092C34.5113 89.7434 35.3912 90.3833 36.1454 89.9948L37.9738 89.0349C38.271 88.8749 38.6252 88.8749 38.9337 89.0349L40.7622 89.9948C41.5164 90.3948 42.3963 89.7548 42.2477 88.9092L41.8935 86.8636C41.8363 86.5322 41.9506 86.1894 42.1906 85.9494L43.6876 84.5096Z" fill="#F4BD0F"/>
</svg>
