<svg width="189" height="163" viewBox="0 0 189 163" fill="none" xmlns="http://www.w3.org/2000/svg">
<path d="M36.6052 122.664C36.3486 122.567 35.7968 123.347 35.2023 124.564C34.9063 125.185 34.2033 125.494 33.5524 125.309C32.2507 124.939 31.3 124.836 31.199 125.103C31.0979 125.37 31.8829 125.911 33.0997 126.506C33.7208 126.802 34.0292 127.505 33.8442 128.156C33.4741 129.458 33.3712 130.408 33.6384 130.509C33.8949 130.606 34.4468 129.825 35.0413 128.609C35.3373 127.987 36.0403 127.679 36.6912 127.864C37.9929 128.234 38.9436 128.337 39.0446 128.07C39.1457 127.803 38.3607 127.261 37.1439 126.667C36.5227 126.371 36.2144 125.668 36.3994 125.017C36.7628 123.701 36.8617 122.761 36.6052 122.664Z" fill="white"/>
<path d="M108.178 116.741C107.836 116.612 107.119 117.636 106.343 119.236C105.953 120.041 105.035 120.464 104.162 120.22C102.449 119.743 101.207 119.603 101.078 119.945C100.948 120.287 101.972 121.004 103.572 121.78C104.378 122.17 104.801 123.088 104.556 123.961C104.079 125.674 103.939 126.916 104.281 127.045C104.623 127.175 105.341 126.151 106.117 124.551C106.507 123.745 107.424 123.322 108.297 123.567C110.01 124.044 111.252 124.184 111.382 123.841C111.511 123.499 110.487 122.782 108.887 122.006C108.081 121.616 107.659 120.699 107.903 119.826C108.391 118.117 108.52 116.871 108.178 116.741Z" fill="white"/>
<path d="M119.132 13.3958C118.94 13.3231 118.522 13.9104 118.081 14.8187C117.857 15.2835 117.33 15.5122 116.844 15.3771C115.86 15.1029 115.158 15.0207 115.081 15.2238C115.009 15.4162 115.596 15.8337 116.504 16.2749C116.969 16.4995 117.198 17.0258 117.063 17.5123C116.788 18.496 116.717 19.202 116.909 19.2747C117.102 19.3475 117.519 18.7601 117.961 17.8519C118.185 17.387 118.712 17.1584 119.198 17.2935C120.182 17.5677 120.884 17.6499 120.96 17.4468C121.033 17.2544 120.446 16.8368 119.538 16.3956C119.073 16.171 118.844 15.6447 118.979 15.1582C119.253 14.1746 119.325 13.4686 119.132 13.3958Z" fill="white"/>
<path d="M104.088 155.182C103.896 155.109 103.478 155.696 103.037 156.605C102.812 157.07 102.286 157.298 101.799 157.163C100.816 156.889 100.114 156.807 100.037 157.01C99.9642 157.202 100.552 157.62 101.46 158.061C101.925 158.286 102.153 158.812 102.018 159.298C101.744 160.282 101.662 160.984 101.865 161.061C102.057 161.133 102.475 160.546 102.916 159.638C103.141 159.173 103.667 158.944 104.153 159.08C105.137 159.354 105.839 159.436 105.916 159.233C105.989 159.04 105.401 158.623 104.493 158.182C104.028 157.957 103.799 157.431 103.935 156.944C104.205 155.971 104.28 155.255 104.088 155.182Z" fill="white"/>
<path d="M155.355 101.411C155.163 101.338 154.745 101.925 154.304 102.834C154.079 103.299 153.553 103.527 153.066 103.392C152.083 103.118 151.381 103.036 151.304 103.239C151.231 103.431 151.819 103.849 152.727 104.29C153.192 104.515 153.42 105.041 153.285 105.527C153.011 106.511 152.94 107.217 153.132 107.29C153.324 107.362 153.742 106.775 154.183 105.867C154.408 105.402 154.934 105.173 155.42 105.308C156.404 105.583 157.106 105.665 157.183 105.462C157.256 105.269 156.668 104.852 155.76 104.411C155.295 104.186 155.067 103.66 155.202 103.173C155.476 102.19 155.547 101.484 155.355 101.411Z" fill="white"/>
<path d="M184.626 87.9102C184.476 87.8536 184.158 88.3075 183.8 89.0275C183.627 89.3895 183.214 89.5755 182.828 89.4661C182.066 89.2514 181.505 89.1857 181.444 89.346C181.387 89.4956 181.841 89.8138 182.561 90.1716C182.923 90.3451 183.109 90.7576 183 91.1439C182.785 91.9056 182.72 92.4672 182.88 92.5278C183.029 92.5844 183.348 92.1306 183.705 91.4106C183.879 91.0486 184.291 90.8625 184.678 90.9719C185.44 91.1866 186.001 91.2524 186.062 91.0921C186.118 90.9424 185.664 90.6242 184.944 90.2664C184.582 90.0929 184.396 89.6805 184.506 89.2942C184.714 88.5177 184.776 87.9668 184.626 87.9102Z" fill="white"/>
<path d="M152.887 29.6537C152.737 29.5972 152.419 30.051 152.061 30.7709C151.887 31.1329 151.475 31.3191 151.089 31.2097C150.327 30.9949 149.765 30.9291 149.705 31.0895C149.648 31.2391 150.102 31.5574 150.822 31.9151C151.184 32.0887 151.37 32.5011 151.261 32.8874C151.046 33.6492 150.98 34.2107 151.14 34.2714C151.29 34.3279 151.608 33.8741 151.966 33.1542C152.14 32.7922 152.552 32.606 152.938 32.7154C153.7 32.9302 154.262 32.9959 154.322 32.8356C154.379 32.6859 153.925 32.3677 153.205 32.01C152.843 31.8364 152.657 31.4239 152.766 31.0377C152.975 30.2612 153.036 29.7103 152.887 29.6537Z" fill="white"/>
<path d="M183.441 58.605C183.078 58.4675 182.296 59.5648 181.472 61.2933C181.057 62.1629 180.07 62.6082 179.129 62.3502C177.284 61.8355 175.948 61.6847 175.811 62.0481C175.673 62.4115 176.77 63.193 178.499 64.0176C179.368 64.432 179.814 65.4189 179.556 66.3598C179.041 68.2055 178.89 69.5412 179.254 69.6787C179.617 69.8161 180.399 68.7188 181.223 66.9903C181.638 66.1208 182.625 65.6755 183.565 65.9335C185.411 66.4482 186.747 66.5989 186.884 66.2355C187.022 65.8721 185.924 65.0907 184.196 64.266C183.326 63.8517 182.881 62.8647 183.139 61.9238C183.654 60.0781 183.805 58.7424 183.441 58.605Z" fill="white"/>
<path d="M41.3475 4.11632C41.0268 3.99506 40.3594 4.95221 39.6344 6.44956C39.2752 7.2056 38.4101 7.58709 37.6016 7.36685C35.9991 6.91973 34.8399 6.7868 34.7186 7.10747C34.5974 7.42814 35.5545 8.09549 37.0519 8.82052C37.8079 9.17972 38.1894 10.0448 37.9692 10.8534C37.522 12.4558 37.3891 13.6151 37.7098 13.7363C38.0305 13.8576 38.6978 12.9004 39.4228 11.4031C39.782 10.647 40.6471 10.2656 41.4557 10.4858C43.0581 10.9329 44.2174 11.0658 44.3386 10.7452C44.4599 10.4245 43.5027 9.75715 42.0054 9.03212C41.2494 8.67292 40.8679 7.80784 41.0881 6.99926C41.5459 5.40087 41.6682 4.23758 41.3475 4.11632Z" fill="white"/>
<path d="M44.0614 41.5258C43.8797 41.4571 43.4743 42.0123 43.0559 42.8926C42.8394 43.3361 42.3385 43.562 41.8627 43.431C40.9259 43.1623 40.2412 43.0988 40.1725 43.2805C40.1038 43.4622 40.6591 43.8677 41.5394 44.2861C41.9828 44.5027 42.2088 45.0035 42.0778 45.4793C41.809 46.4161 41.7456 47.1008 41.9273 47.1695C42.109 47.2382 42.5145 46.6829 42.9329 45.8026C43.1494 45.3592 43.6503 45.1332 44.1261 45.2642C45.0629 45.533 45.7476 45.5964 45.8163 45.4146C45.885 45.2329 45.3297 44.8275 44.4494 44.4091C44.006 44.1926 43.78 43.6917 43.911 43.2159C44.1798 42.2791 44.2538 41.5985 44.0614 41.5258Z" fill="white"/>
<path d="M125.609 52.0328C125.212 51.1128 123.927 51.0544 123.447 51.9358L122.263 54.0659C122.072 54.4091 121.715 54.6409 121.319 54.6866L118.898 54.9194C117.896 55.0169 117.443 56.2141 118.134 56.9396L119.796 58.7163C120.066 59.002 120.18 59.4115 120.092 59.8059L119.571 62.1865C119.358 63.169 120.354 63.9609 121.256 63.5447L123.463 62.5222C123.821 62.352 124.239 62.3759 124.579 62.5775L126.678 63.8111C127.536 64.319 128.61 63.613 128.483 62.6243L128.184 60.2146C128.139 59.8186 128.288 59.4231 128.58 59.1671L130.399 57.5578C131.148 56.9004 130.81 55.661 129.83 55.4737L127.44 55.0097C127.053 54.9364 126.723 54.6774 126.568 54.3132L125.609 52.0328Z" fill="#F4BD0F"/>
<path d="M139.301 134.399C139.013 133.74 138.099 133.7 137.753 134.327L136.911 135.841C136.767 136.092 136.522 136.256 136.243 136.285L134.518 136.451C133.806 136.524 133.483 137.379 133.972 137.894L135.155 139.16C135.346 139.366 135.432 139.656 135.363 139.935L134.992 141.627C134.838 142.326 135.549 142.901 136.201 142.597L137.775 141.861C138.029 141.737 138.329 141.753 138.58 141.896L140.078 142.781C140.696 143.149 141.461 142.644 141.363 141.935L141.146 140.216C141.106 139.932 141.211 139.654 141.429 139.467L142.729 138.322C143.261 137.851 143.022 136.967 142.325 136.838L140.617 136.509C140.344 136.455 140.109 136.268 139.99 136.003L139.301 134.399Z" fill="#F4BD0F"/>
<path d="M7.24172 58.4146C6.95329 57.7558 6.02921 57.7118 5.68241 58.3381L4.83288 59.8739C4.68907 60.125 4.44385 60.2888 4.14951 60.3241L2.39959 60.4932C1.67715 60.5621 1.34976 61.4279 1.84585 61.9576L3.04608 63.2422C3.24746 63.4527 3.31886 63.7485 3.26057 64.0319L2.88135 65.7456C2.72291 66.4554 3.44492 67.0338 4.10116 66.7199L5.68949 65.9766C5.95464 65.857 6.25419 65.8725 6.50525 66.0163L8.02486 66.9086C8.64311 67.2768 9.42293 66.7654 9.3393 66.0496L9.11943 64.3048C9.08009 64.0211 9.1892 63.7326 9.40639 63.5459L10.7257 62.3832C11.262 61.9018 11.0264 61.0064 10.3085 60.8694L8.57874 60.5329C8.29535 60.4746 8.06045 60.2881 7.9408 60.0229L7.24172 58.4146Z" fill="#F4BD0F"/>
<path d="M33.0024 54.8756C32.8669 54.5556 32.4229 54.5343 32.2589 54.8388L31.8463 55.5746C31.7764 55.6948 31.6611 55.7734 31.5234 55.7824L30.6845 55.8684C30.3434 55.8982 30.1857 56.3151 30.4177 56.5739L30.9898 57.1934C31.0872 57.2913 31.1176 57.4371 31.0904 57.5735L30.9129 58.3983C30.8344 58.7351 31.1814 59.0129 31.4948 58.8626L32.2542 58.5022C32.3761 58.4384 32.5312 58.4481 32.6367 58.5247L33.3684 58.948C33.6689 59.1227 34.04 58.8843 33.9995 58.5391L33.8988 57.7069C33.8792 57.5651 33.9276 57.4368 34.0362 57.3435L34.6624 56.7861C34.9212 56.5541 34.8006 56.1298 34.4597 56.062L33.6309 55.8952C33.4946 55.8681 33.3825 55.7769 33.3334 55.6483L33.0024 54.8756Z" fill="#F4BD0F"/>
<path d="M78.9544 2.52785C78.5438 1.57843 77.2118 1.51457 76.7091 2.42402L75.4859 4.62492C75.2869 4.98951 74.9198 5.21716 74.5131 5.25884L72.0006 5.50609C70.9731 5.60626 70.5043 6.84613 71.2084 7.60108L72.9287 9.44893C73.2061 9.7493 73.3266 10.1736 73.2386 10.5679L72.6995 13.0275C72.4747 14.042 73.505 14.8714 74.4518 14.4353L76.7365 13.3689C77.1088 13.192 77.5421 13.2093 77.8986 13.4296L80.0685 14.7022C80.9592 15.2222 82.0726 14.5071 81.9404 13.4675L81.6276 10.9668C81.5753 10.5561 81.7289 10.1499 82.0399 9.87654L83.9291 8.20851C84.7013 7.52315 84.3544 6.24358 83.3425 6.04419L80.8734 5.56258C80.4751 5.48525 80.1281 5.20743 79.9619 4.83916L78.9544 2.52785Z" fill="#F4BD0F"/>
</svg>
