<svg width="98" height="92" viewBox="0 0 98 92" fill="none" xmlns="http://www.w3.org/2000/svg">
<path d="M39.8694 44.8225C39.8694 44.6425 39.2594 44.4825 38.3794 44.4025C37.9294 44.3625 37.5794 44.0025 37.5394 43.5625C37.4594 42.6725 37.3094 42.0725 37.1194 42.0725C36.9394 42.0725 36.7794 42.6825 36.6994 43.5625C36.6594 44.0125 36.2994 44.3625 35.8594 44.4025C34.9694 44.4825 34.3694 44.6425 34.3694 44.8225C34.3694 45.0025 34.9794 45.1625 35.8594 45.2425C36.3094 45.2825 36.6594 45.6425 36.6994 46.0825C36.7794 46.9725 36.9294 47.5725 37.1194 47.5725C37.2994 47.5725 37.4594 46.9625 37.5394 46.0825C37.5794 45.6325 37.9394 45.2825 38.3794 45.2425C39.2694 45.1625 39.8694 45.0025 39.8694 44.8225Z" fill="white"/>
<path d="M97.8394 20.5924C97.8394 20.4524 97.3694 20.3324 96.6694 20.2624C96.3194 20.2324 96.0394 19.9524 96.0094 19.6024C95.9494 18.9124 95.8294 18.4324 95.6794 18.4324C95.5394 18.4324 95.4194 18.9024 95.3494 19.6024C95.3194 19.9524 95.0394 20.2324 94.6894 20.2624C93.9994 20.3224 93.5194 20.4424 93.5194 20.5924C93.5194 20.7324 93.9894 20.8524 94.6894 20.9224C95.0394 20.9524 95.3194 21.2324 95.3494 21.5824C95.4094 22.2724 95.5294 22.7524 95.6794 22.7524C95.8194 22.7524 95.9394 22.2824 96.0094 21.5824C96.0394 21.2324 96.3194 20.9524 96.6694 20.9224C97.3694 20.8524 97.8394 20.7324 97.8394 20.5924Z" fill="white"/>
<path d="M83.5995 54.5626C83.5995 54.2226 82.4595 53.9226 80.7895 53.7826C79.9495 53.7126 79.2795 53.0426 79.1995 52.1926C79.0495 50.5226 78.7595 49.3826 78.4195 49.3826C78.0795 49.3826 77.7795 50.5226 77.6395 52.1926C77.5695 53.0326 76.8995 53.7026 76.0495 53.7826C74.3795 53.9326 73.2395 54.2226 73.2395 54.5626C73.2395 54.9026 74.3795 55.2026 76.0495 55.3426C76.8895 55.4126 77.5595 56.0826 77.6395 56.9326C77.7895 58.6026 78.0795 59.7426 78.4195 59.7426C78.7595 59.7426 79.0595 58.6026 79.1995 56.9326C79.2695 56.0926 79.9395 55.4226 80.7895 55.3426C82.4595 55.1926 83.5995 54.9026 83.5995 54.5626Z" fill="white"/>
<path d="M71.0793 5.19251C71.7093 4.58251 71.3594 3.51249 70.4894 3.39249L68.3793 3.08249C68.0393 3.03249 67.7393 2.8125 67.5793 2.5025L66.6393 0.5925C66.2493 -0.1975 65.1293 -0.1975 64.7493 0.5925L63.8093 2.5025C63.6593 2.8125 63.3593 3.03249 63.0093 3.08249L60.8993 3.39249C60.0293 3.52249 59.6893 4.58251 60.3093 5.19251L61.8293 6.6825C62.0793 6.9225 62.1893 7.27249 62.1293 7.61249L61.7693 9.71249C61.6193 10.5725 62.5294 11.2325 63.2994 10.8225L65.1794 9.83249C65.4894 9.67249 65.8593 9.67249 66.1593 9.83249L68.0393 10.8225C68.8093 11.2325 69.7193 10.5725 69.5693 9.71249L69.2093 7.61249C69.1493 7.27249 69.2593 6.9225 69.5093 6.6825L71.0793 5.19251Z" fill="#F4BD0F"/>
<path d="M7.89939 41.8926C8.34939 41.4526 8.0994 40.6926 7.4794 40.6026L5.9794 40.3826C5.7294 40.3426 5.5194 40.1926 5.4094 39.9726L4.73941 38.6126C4.45941 38.0526 3.65938 38.0526 3.38938 38.6126L2.71939 39.9726C2.60939 40.1926 2.39939 40.3526 2.14939 40.3826L0.649387 40.6026C0.0293867 40.6926 -0.220596 41.4526 0.229404 41.8926L1.31937 42.9526C1.49937 43.1226 1.5794 43.3726 1.5394 43.6226L1.27939 45.1226C1.16939 45.7426 1.81936 46.2126 2.36936 45.9126L3.70938 45.2026C3.92938 45.0826 4.1894 45.0826 4.4094 45.2026L5.74936 45.9126C6.29936 46.2026 6.94939 45.7326 6.83939 45.1226L6.57938 43.6226C6.53938 43.3826 6.61941 43.1326 6.79941 42.9526L7.89939 41.8926Z" fill="#F4BD0F"/>
<path d="M74.6094 84.3327C75.3394 83.6127 74.9394 82.3727 73.9194 82.2227L71.4494 81.8627C71.0494 81.8027 70.6994 81.5527 70.5194 81.1827L69.4194 78.9427C68.9694 78.0227 67.6494 78.0227 67.1994 78.9427L66.0994 81.1827C65.9194 81.5527 65.5694 81.8027 65.1694 81.8627L62.6994 82.2227C61.6894 82.3727 61.2794 83.6227 62.0094 84.3327L63.7994 86.0727C64.0894 86.3527 64.2194 86.7627 64.1594 87.1727L63.7394 89.6327C63.5694 90.6427 64.6294 91.4127 65.5394 90.9427L67.7494 89.7827C68.1094 89.5927 68.5394 89.5927 68.8994 89.7827L71.1094 90.9427C72.0194 91.4227 73.0794 90.6527 72.9094 89.6327L72.4894 87.1727C72.4194 86.7727 72.5494 86.3627 72.8494 86.0727L74.6094 84.3327Z" fill="#F4BD0F"/>
</svg>
