<svg width="1198" height="486" viewBox="0 0 1198 486" fill="none" xmlns="http://www.w3.org/2000/svg">
<path opacity="0.7" d="M1268.91 220.95L1238.84 209.49C1241.22 203.9 1242.56 197.751 1242.56 191.301C1242.56 165.759 1221.86 145.055 1196.32 145.055C1179.47 145.055 1164.79 154.085 1156.71 167.544C1145.77 146.001 1123.4 131.209 1097.58 131.209C1092.85 131.209 1088.23 131.725 1083.76 132.649C1085.48 127.812 1086.45 122.63 1086.45 117.212C1086.45 91.6704 1065.75 70.9659 1040.22 70.9659C1034.11 70.9659 1028.29 72.1699 1022.96 74.3414C1023.22 71.9334 1023.37 69.5039 1023.37 67.0314C1023.37 30.3955 993.685 0.703949 957.06 0.703949C920.435 0.703949 890.753 30.3955 890.753 67.0314C890.753 72.4924 891.419 77.8029 892.666 82.8769C884.993 77.2224 875.557 73.8469 865.283 73.8469C839.749 73.8469 819.051 94.5514 819.051 120.093C819.051 124.35 819.674 128.457 820.749 132.37C801.512 136.132 786.618 151.827 783.931 171.435C774.302 165.996 763.211 162.878 751.369 162.878C716.829 162.878 688.458 189.302 685.341 223.057C676.873 212.414 663.826 205.556 649.168 205.556C623.634 205.556 602.936 226.26 602.936 251.802C602.936 256.425 603.623 260.875 604.892 265.068C602.14 264.724 599.346 264.53 596.488 264.53C587.396 264.53 578.713 266.358 570.825 269.69C570.459 233.355 540.927 204.029 504.539 204.029C488.656 204.029 474.083 209.619 462.649 218.95C456.158 201.256 439.221 188.614 419.275 188.614C398.921 188.614 381.683 201.793 375.493 220.047C363.994 200.331 342.651 187.066 318.192 187.066C281.567 187.066 251.885 216.757 251.885 253.393C251.885 264.595 254.679 275.13 259.58 284.396C240.15 289.879 225.878 307.681 225.878 328.88C225.878 328.966 225.9 329.073 225.9 329.159C220.161 326.601 213.842 325.16 207.157 325.16C181.623 325.16 160.925 345.865 160.925 371.407C160.925 385.425 167.18 397.959 177.024 406.452L0.799927 646.65L331.797 683.2C331.797 683.2 933.611 676.75 940.059 674.6C946.507 672.45 1260.31 590.75 1273.21 573.55C1286.1 556.35 1277.5 448.85 1286.1 392.95C1294.7 337.05 1268.91 220.95 1268.91 220.95Z" fill="white"/>
</svg>
