<svg width="1103" height="462" viewBox="0 0 1103 462" fill="none" xmlns="http://www.w3.org/2000/svg">
<path opacity="0.5" d="M1048.46 298.645C1049.92 298.795 1051.4 298.86 1052.91 298.86C1077.6 298.86 1097.61 278.843 1097.61 254.118C1097.61 229.415 1077.6 209.377 1052.91 209.377C1050.42 209.377 1047.99 209.635 1045.6 210.022C1049.49 201.744 1051.68 192.499 1051.68 182.76C1051.68 147.328 1022.97 118.604 987.547 118.604C964.12 118.604 943.658 131.16 932.46 149.908C924.314 139.029 911.354 131.977 896.717 131.977C887.818 131.977 879.543 134.6 872.58 139.093C873.375 135.051 873.805 130.859 873.805 126.58C873.805 91.1483 845.09 62.4243 809.669 62.4243C801.909 62.4243 794.473 63.8003 787.595 66.3158C787.616 65.6493 787.638 65.0044 787.638 64.3379C787.638 28.9059 758.923 0.181885 723.502 0.181885C688.081 0.181885 659.366 28.9059 659.366 64.3379C659.366 66.8964 659.538 69.4334 659.817 71.9059C652.638 66.9824 643.933 64.0799 634.562 64.0799C609.867 64.0799 589.835 84.1179 589.835 108.821C589.835 111.38 590.093 113.852 590.501 116.282C580.335 109.488 568.105 105.532 554.973 105.532C520.347 105.532 492.148 132.987 490.901 167.323C484.56 165.216 477.769 164.055 470.719 164.055C456.189 164.055 442.777 168.892 432.009 177.062C426.98 157.863 409.57 143.673 388.808 143.673C375.783 143.673 364.09 149.284 355.923 158.185C355.966 157.347 356.052 156.508 356.052 155.648C356.052 130.945 336.02 110.907 311.324 110.907C300.577 110.907 290.712 114.712 282.996 121.033C276.784 92.0944 251.078 70.4224 220.3 70.4224C184.879 70.4224 156.164 99.1463 156.164 134.578C156.164 135.976 156.228 137.373 156.314 138.749C152.059 137.395 147.523 136.664 142.816 136.664C132.414 136.664 122.849 140.254 115.241 146.231C115.391 144.705 115.477 143.178 115.477 141.609C115.477 116.905 95.4451 96.8674 70.7493 96.8674C61.8081 96.8674 53.4901 99.5334 46.5048 104.048C47.4935 99.5549 48.0523 94.8893 48.0523 90.0948C48.0523 54.6628 19.3372 25.9388 -16.0838 25.9388C-40.5862 25.9388 -61.8861 39.6989 -72.6757 59.9089C-76.8884 39.5699 -94.8783 24.2834 -116.458 24.2834C-139.735 24.2834 -158.821 42.0638 -160.97 64.7678C-167.289 61.3493 -174.554 59.3928 -182.249 59.3928C-206.945 59.3928 -226.976 79.4094 -226.976 104.113C-226.976 108.477 -226.332 112.67 -225.171 116.647C-228.911 115.228 -232.823 114.175 -236.863 113.465V617.06C131.941 606.74 776.977 590.228 783.361 590.228C791.958 590.228 1102.9 498.487 1102.9 498.487V405.328L1048.46 298.645Z" fill="white"/>
</svg>
