<svg width="90" height="90" viewBox="0 0 90 90" fill="none" xmlns="http://www.w3.org/2000/svg">
<path opacity="0.76" d="M66.9907 66.9907C79.3233 54.658 79.3233 34.6629 66.9907 22.3302C54.658 9.99757 34.6629 9.99759 22.3302 22.3302C9.99759 34.6629 9.99757 54.658 22.3302 66.9907C34.6628 79.3233 54.658 79.3233 66.9907 66.9907Z" fill="#FF7133"/>
<path d="M64.0845 64.0845C74.8121 53.3569 74.812 35.964 64.0844 25.2364C53.3568 14.5088 35.964 14.5088 25.2364 25.2364C14.5088 35.964 14.5088 53.3569 25.2364 64.0845C35.964 74.8121 53.3569 74.8121 64.0845 64.0845Z" fill="#FFCA00"/>
<path d="M17.8167 44.2403C16.0767 44.2803 15.4267 41.8403 15.9967 40.2003C16.5667 38.5603 17.7867 37.0503 17.6867 35.3203C17.5867 33.4803 15.9967 31.7303 16.6167 30.0003C17.2767 28.1303 19.8567 27.9603 21.7867 28.4203C23.7167 28.8803 25.9067 29.5903 27.5267 28.4503C30.4867 26.3603 28.3267 20.3803 31.6167 18.8703C33.4967 18.0103 35.6967 19.5903 36.5667 21.4603C37.4367 23.3403 37.5067 25.4903 38.2167 27.4303C38.7567 28.9003 39.6567 30.2203 40.1667 31.7103C40.6767 33.1903 40.7067 35.0003 39.6567 36.1603C38.3367 37.6203 35.9367 37.4703 34.4167 38.7203C33.0567 39.8303 32.7367 41.7703 32.7567 43.5303C32.7867 45.2803 33.0667 47.0803 32.5567 48.7603C30.5067 55.5203 24.4967 51.3703 20.7667 49.8603C19.2867 49.2603 17.5067 50.4303 16.3267 48.9403C15.1967 47.5403 15.4567 44.3003 17.8167 44.2403Z" fill="#E2AF10"/>
<path d="M46.6467 20.1803C45.2067 19.6603 43.4267 20.8003 43.2867 22.3203C43.1467 23.8503 44.6967 25.2803 46.2067 25.0303C46.0367 28.1703 49.7967 30.7903 52.6767 29.5403C53.8167 27.6603 53.8367 25.1503 52.7267 23.2503C51.6167 21.3503 49.4167 20.1403 47.2167 20.2203" fill="#E2AF10"/>
<path d="M47.2367 40.7403C46.0367 40.5503 44.7567 40.6203 43.7067 41.2203C42.6567 41.8203 41.9067 43.0503 42.1167 44.2403C42.3267 45.4303 43.6967 46.3603 44.8167 45.9103C45.7867 48.1903 48.8667 49.2803 51.0567 48.1103C52.2967 46.9703 52.7767 45.0703 52.2367 43.4803C51.6867 41.8903 50.1467 40.6803 48.4667 40.5403" fill="#E2AF10"/>
<path d="M41.1967 52.8603C40.1867 51.7303 38.8767 50.9203 37.5567 50.1703C37.1267 49.9303 36.6067 49.9203 36.1767 50.1503C34.6767 50.8603 33.2867 52.0303 32.9467 53.7203C32.7967 54.4703 32.9067 55.2703 33.2867 55.9303C34.2067 57.5303 35.8767 57.2303 37.2667 57.7003C37.8267 57.8903 38.3567 58.3403 38.6167 58.8603C39.1767 59.9603 40.6467 60.2803 41.5767 59.4603C42.0867 59.0103 42.4867 58.4103 42.6567 57.7603C43.1267 56.0503 42.3867 54.1803 41.1967 52.8603Z" fill="#E2AF10"/>
<path d="M58.0567 32.4103C56.1267 33.4603 55.9767 36.6803 57.8067 37.9103C59.6367 39.1403 62.5567 37.7803 62.7967 35.5903C63.0367 33.4003 60.4767 31.4403 58.4267 32.2403" fill="#E2AF10"/>
<path d="M26.4767 58.1803C27.5667 58.1103 28.2767 56.8003 29.3767 56.7303C30.1767 56.6803 30.8667 57.3603 31.1067 58.1203C31.3467 58.8803 31.2467 59.7003 31.1367 60.4903C30.8067 62.9703 30.3067 65.7403 28.2867 67.2103C25.7467 69.0603 21.9167 67.7903 19.9467 65.3403C18.2167 63.1803 15.7767 57.7603 18.2967 55.3403C22.3767 51.4203 23.6267 58.3603 26.4767 58.1803Z" fill="#E2AF10"/>
<path d="M36.0167 62.2603C37.1467 60.8103 39.8267 61.1503 40.5667 62.8303C41.3067 64.5103 39.7267 66.7103 37.8967 66.5503C36.0667 66.3903 34.8867 63.9603 35.8967 62.4303" fill="#E2AF10"/>
<path d="M55.8567 56.2903C55.2967 55.2203 54.1967 54.5103 53.0367 54.1603L52.6567 54.7103C51.6267 54.0503 50.1267 54.9203 49.8567 56.1203C49.5867 57.3203 50.2767 58.5503 51.2267 59.3303C52.4067 60.3003 54.2967 60.6703 55.4267 59.6403C56.3167 58.8303 56.4167 57.3703 55.8567 56.2903Z" fill="#E2AF10"/>
</svg>
