<svg width="78" height="82" viewBox="0 0 78 82" fill="none" xmlns="http://www.w3.org/2000/svg">
<path d="M45.26 81.86C62.9055 81.86 77.21 67.5555 77.21 49.91C77.21 32.2645 62.9055 17.96 45.26 17.96C27.6145 17.96 13.31 32.2645 13.31 49.91C13.31 67.5555 27.6145 81.86 45.26 81.86Z" fill="#48D8FF"/>
<path d="M73.66 79.06C73.86 79.21 73.48 79.64 73.23 79.69C74.03 79.76 73.38 80.14 74.52 79.57C75.21 79.52 74.61 80.21 73.99 80.18L75.08 80.53L75 79.99C75.99 79.59 75.12 80.85 76.28 80.38L75.74 79.63L76.07 79.5C75.64 79.5 75.58 79.07 75.64 78.88C75.8 78.81 76.04 78.66 76.15 78.79C75.68 77.79 74.39 79.44 73.63 78.81C73.68 78.85 73.71 78.92 73.66 79.06Z" fill="#80EDFF"/>
<path d="M75.45 76.97L74.11 77.29L74.09 76.56C73.69 76.78 73.14 76.55 72.94 77.03C73.03 77.05 73.21 77.09 73.22 77.2C72.32 77.63 72.37 76.7 71.59 77.36C72.07 77.67 71.92 77.85 72.77 77.73C72.92 78.18 72.89 78.59 72.68 78.96C72.88 79.01 73.42 78.73 73.61 78.82C73.58 78.79 73.55 78.77 73.52 78.73L74.81 77.98C74.46 78.01 74.53 77.81 74.42 77.68L76.31 77.49C77.4 76.59 76.32 76.34 76.68 75.8C75.77 76.72 75.99 75.84 75.45 76.97Z" fill="#80EDFF"/>
<path d="M73.62 78.8L73.63 78.81C73.63 78.81 73.63 78.8 73.62 78.8Z" fill="#80EDFF"/>
<path d="M36.53 35.94C36.42 35.83 36.1 35.99 35.94 36.07L36.98 37.52C37.27 37.25 37.38 36.56 37.76 36.7C38.03 36.33 37.46 36.16 36.99 36.4L37.55 36.17C36.69 36.27 37.76 35.18 38.28 35.15L38.25 35.13L35.19 35.87C35.3 36.3 36.22 35.55 36.53 35.94Z" fill="#80EDFF"/>
<path d="M15.94 5.59C16.19 5.69 16.32 5.61999 16.42 5.50999C16.28 5.51999 16.13 5.53 15.94 5.59Z" fill="#80EDFF"/>
<path d="M34.49 36.04L33.53 36.27C33.81 36.25 34.16 36.16 34.49 36.04Z" fill="#80EDFF"/>
<path d="M47.39 30.12C47.43 30.09 47.47 30.07 47.52 30.03L47.04 30.16C47.16 30.15 47.28 30.14 47.39 30.12Z" fill="#80EDFF"/>
<path d="M27.03 31.46C26.99 31.44 26.96 31.42 26.91 31.4C26.94 31.43 26.98 31.45 27.03 31.46Z" fill="#80EDFF"/>
<path d="M54.52 31.24L53.33 31.06C53.74 30.91 53.4101 30.66 53.9101 30.53C53.8201 30.52 53.52 30.37 53.39 30.56L53.51 30.68C52.26 31.01 52.0201 31.49 50.8501 31.43C50.5001 32.2 51.15 31.99 51.74 31.87C51.85 31.89 51.92 31.92 52 31.95L53.7901 31.55L54.52 31.24Z" fill="#80EDFF"/>
<path d="M28.23 10.16L28.31 10.11C28.28 10.13 28.25 10.14 28.23 10.16Z" fill="#80EDFF"/>
<path d="M28.64 9.90001L28.31 10.11C28.49 10.03 28.74 10.05 28.64 9.90001Z" fill="#80EDFF"/>
<path d="M35.21 35.69C35.02 35.81 34.76 35.93 34.49 36.03L35.21 35.85C35.19 35.82 35.2 35.76 35.21 35.69Z" fill="#80EDFF"/>
<path d="M37.74 34.67L38.26 35.12L38.92 34.96C38.58 34.89 38.28 34.74 37.74 34.67Z" fill="#80EDFF"/>
<path d="M27.05 32.73C26.11 31.72 28.41 32.17 28.33 31.46C27.97 31.25 27.34 31.53 27.03 31.47C28.14 32.01 25.12 32.66 26.05 33.34C24.96 33.93 24.5 33.48 24.55 32.99C25.27 31.96 25.47 32.78 26.47 32.18C26.06 31.94 25.93 32.13 25.28 32.36C25.1 31.64 23.26 32.06 24.36 30.76C23.86 30.51 23.41 30.87 22.74 31C21.68 31.7 22.63 31.99 21.93 32.73C21.99 32.64 22.13 32.45 22.28 32.36L22.31 32.86C22.43 32.27 23.37 32.16 23.58 32.28C23.69 32.39 23.93 32.62 23.61 32.79L23.25 32.76C23.11 33.24 24.4 32.77 24.04 33.44C23.82 33.62 23.64 33.6 23.48 33.69C24.4 33.48 24.57 33.8 25.38 33.88L24.17 34.36C25.55 33.9 25.8 34.94 25.59 35.92C25.72 35.73 25.76 35.54 26.01 35.46C26.49 35.61 25.96 36.36 25.31 36.59C26.39 36.3 25.45 38.31 26.87 37.96L33.53 36.3C33.35 36.32 33.18 36.31 33.08 36.26C33.86 35.44 33.68 35.42 34.76 35.15C34.06 35.17 33.42 35.8 33.05 35.35C33.64 35.22 34.71 34.54 34.5 34C32.79 33.5 29.68 34.56 27.63 34.44C28.3 33.91 27.52 33.22 27.4 32.7C28.25 32.32 28.68 32.47 29.05 32.67C28.96 32.44 28.74 32.09 28.6 31.82L27.05 32.73Z" fill="#80EDFF"/>
<path d="M31.25 33.69C31.29 33.62 31.31 33.56 31.32 33.51C31.27 33.57 31.24 33.63 31.25 33.69Z" fill="#80EDFF"/>
<path d="M29.08 32.75C29.11 32.74 29.13 32.72 29.16 32.7L29.04 32.64C29.06 32.67 29.07 32.72 29.08 32.75Z" fill="#80EDFF"/>
<path d="M36.6 34.33C36.85 34.26 36.94 34.27 37.19 34.2C37.09 34.21 37 34.19 36.91 34.18C36.78 34.19 36.67 34.24 36.6 34.33Z" fill="#80EDFF"/>
<path d="M35.53 35.41L35.22 35.57C35.21 35.62 35.22 35.65 35.21 35.69C35.37 35.59 35.49 35.5 35.53 35.41Z" fill="#80EDFF"/>
<path d="M30.23 23.95H30C30.06 24.01 30.14 23.99 30.23 23.95Z" fill="#80EDFF"/>
<path d="M27.34 30.64C27.69 30.98 28.41 29.94 28.81 30.49L28.76 30.28C29.49 30.36 29.78 31.2 30.15 31.65C29.7 31.89 29.85 32.29 29.17 32.69C29.55 32.9 29.92 33.12 30.7 32.82C30.62 33.17 31.42 33.06 31.33 33.51C31.64 33.13 32.9 32.94 31.99 32.66C32.08 32.67 32.15 32.58 32.23 32.59C32.49 31.81 31.46 32.3 31.2 31.96C31.44 31.48 32.06 31.86 32.07 31.55C31.41 31.37 31.58 29.87 30.16 30.93C29.84 30.69 30.12 30.42 30.32 30.14C28.44 30.74 29.66 27.85 27.71 29.26C27.92 29.38 28.08 29.7 28.69 29.66L27.34 30.64Z" fill="#80EDFF"/>
<path d="M36.04 33.73C36.03 33.7 36 33.67 36.01 33.64C36.01 33.67 36.02 33.7 36.04 33.73Z" fill="#80EDFF"/>
<path d="M33.73 42.67L32.32 43.39C31.37 42.67 31.5 42.09 30.89 41.31C31.02 41.13 31.2 41.15 31.3 41.16C30.75 40.69 30.43 39.65 29.55 39.65C29.43 39.46 29.51 38.7 30.02 38.61C29.84 38.6 29.66 38.58 29.63 38.45C30.08 38.1 29.92 38.59 30.31 38.33C30.29 38.23 30.35 38.13 30.19 38.22C30.68 38.08 31.67 36.98 32.08 37.64C31.17 38.64 31.65 37.29 30.55 38.27C30.69 38.49 31.13 38.14 31.29 38.05C31.45 38.34 31.14 38.54 30.86 38.72C31.3 38.56 31.02 39.26 31.68 39.01C32.13 39.47 30.76 39.61 31.01 39.94L32.36 39.29L32.52 40.02C33.52 40.55 34.54 38.45 35.88 38.92C35.16 39.23 34.35 40.35 34.4 40.96C34.17 40.73 33.05 40.79 33.17 40.21C32.55 41.34 32.6 39.63 31.68 40.63C32.36 40.51 32.7 40.85 32.63 41.35L32.45 41.33C32.55 41.74 33.99 41.11 33.81 41.9C34 42.1 33.63 42.29 33.32 42.45C33.65 42.48 34 42.49 33.73 42.67ZM33.15 42.36L33.06 41.98C32.91 42.19 32.99 42.29 33.15 42.36Z" fill="#80EDFF"/>
<path d="M72.7 72.54C72.68 72.59 72.67 72.65 72.65 72.7C72.7 72.64 72.71 72.59 72.7 72.54Z" fill="#80EDFF"/>
<path d="M55.87 44.05L55.95 44.26C55.95 44.16 55.92 44.1 55.87 44.05Z" fill="#80EDFF"/>
<path d="M62.62 45.48L63.08 45.56C63 45.47 62.83 45.46 62.62 45.48Z" fill="#80EDFF"/>
<path d="M71.5 70.26V70.25C71.47 70.25 71.43 70.25 71.41 70.25L71.5 70.26Z" fill="#80EDFF"/>
<path d="M64.9 55.6C64.82 55.71 64.75 55.81 64.72 55.92C64.83 55.84 64.89 55.73 64.9 55.6Z" fill="#80EDFF"/>
<path d="M62.53 45.47C62.52 45.48 62.52 45.49 62.52 45.5C62.55 45.49 62.59 45.49 62.62 45.48L62.53 45.47Z" fill="#80EDFF"/>
<path d="M58.31 39.89C58.24 39.88 58.19 39.86 58.11 39.85C58.17 39.89 58.24 39.9 58.31 39.89Z" fill="#80EDFF"/>
<path d="M54.98 42.44C54.92 42.42 54.86 42.4 54.78 42.41L54.98 42.44Z" fill="#80EDFF"/>
<path d="M53.22 34.62L52.88 34.5C52.98 34.6 53.1 34.63 53.22 34.62Z" fill="#80EDFF"/>
<path d="M55.36 41.27C55.29 41.29 55.23 41.32 55.17 41.34C55.23 41.35 55.31 41.32 55.36 41.27Z" fill="#80EDFF"/>
<path d="M69.8 76.33C69.8 76.32 69.79 76.32 69.79 76.32L69.64 76.4L69.8 76.33Z" fill="#80EDFF"/>
<path d="M72.02 75.87C72.1 75.92 72.18 75.98 72.25 76.03C72.22 75.94 72.13 75.88 72.02 75.87Z" fill="#80EDFF"/>
<path d="M65.08 60.45C64.94 60.63 64.81 60.91 64.56 60.97C64.9 60.93 65.53 60.53 65.08 60.45Z" fill="#80EDFF"/>
<path d="M61.09 79.73C61.29 79.67 61.45 79.64 61.6 79.62C61.36 79.63 61.16 79.64 61.09 79.73Z" fill="#80EDFF"/>
<path d="M61.6 79.61C61.72 79.6 61.84 79.59 61.97 79.58C61.86 79.58 61.73 79.59 61.6 79.61Z" fill="#80EDFF"/>
<path d="M53.61 65.18C53.69 65.11 53.74 65.04 53.74 65C53.58 65.12 53.56 65.16 53.61 65.18Z" fill="#80EDFF"/>
<path d="M72.15 76.32C72.48 76.18 73.69 76.77 73.39 75.87C74.36 75.36 74.12 76.14 74.48 76.22C74.61 75.94 75.14 75.95 75.45 75.71C75.27 75.67 74.93 75.7 74.89 75.48C75.28 75.15 75.73 75.25 75.68 75.56C76.04 75.01 76.62 75.46 76.8 74.87C76.02 74.27 75.36 73.91 73.65 74.16C74.14 74.47 74.7 74.81 74.53 75.4L73.62 75.72C74.11 74.89 73.43 74.94 73.27 74.5L73.35 75.66C72.91 76.48 72.59 76.28 72.25 76.03C72.29 76.11 72.28 76.22 72.15 76.32Z" fill="#80EDFF"/>
<path d="M64.58 79.84L64.57 79.87C64.61 79.87 64.63 79.87 64.67 79.86L64.58 79.84Z" fill="#80EDFF"/>
<path d="M37.33 45.39L36.98 45.52C37.16 45.48 37.27 45.44 37.33 45.39Z" fill="#80EDFF"/>
<path d="M38.49 47.25C38.47 47.26 38.44 47.27 38.42 47.29C38.45 47.27 38.47 47.26 38.49 47.25Z" fill="#80EDFF"/>
<path d="M55.83 36.39C55.86 36.36 55.9 36.34 55.93 36.31C55.86 36.3 55.83 36.34 55.83 36.39Z" fill="#80EDFF"/>
<path d="M38.57 47.2C38.55 47.22 38.52 47.23 38.5 47.25C38.52 47.23 38.55 47.22 38.57 47.2Z" fill="#80EDFF"/>
<path d="M47.34 54.23C47.34 54.23 47.46 54.11 47.56 53.98C47.47 54.01 47.4 54.09 47.34 54.23Z" fill="#80EDFF"/>
<path d="M47.36 51.69C47.38 51.66 47.4 51.64 47.43 51.6L47.36 51.69Z" fill="#80EDFF"/>
<path d="M68.46 57.78C68.42 57.68 68.35 57.62 68.28 57.59C68.31 57.67 68.35 57.74 68.46 57.78Z" fill="#80EDFF"/>
<path d="M38.42 47.28C38.32 47.32 38.22 47.35 38.09 47.38C38.23 47.35 38.33 47.32 38.42 47.28Z" fill="#80EDFF"/>
<path d="M53.11 54.38C53.07 54.38 53.03 54.38 52.99 54.38C52.98 54.4 52.98 54.42 52.97 54.44L53.11 54.38Z" fill="#80EDFF"/>
<path d="M53.12 55.69C53.01 55.72 52.9 55.76 52.81 55.79C53.36 55.91 53.38 56.76 54.28 56.29C54.19 56.19 54.31 55.28 54.88 55.07C54.52 54.97 54.9 54.25 54.68 54.21C54.46 54.89 53.99 54.71 53.54 54.63C53.64 54.24 54.25 54.24 54.28 53.94L53.84 53.45L54.03 54L53.12 54.38C53.16 54.38 53.19 54.38 53.23 54.38C54.11 54.94 52.07 55.21 53.12 55.69Z" fill="#80EDFF"/>
<path d="M52.81 55.8C52.73 55.78 52.64 55.78 52.53 55.8C52.59 55.86 52.69 55.84 52.81 55.8Z" fill="#80EDFF"/>
<path d="M53.52 59.93C53.57 59.95 53.64 59.97 53.74 59.99C53.69 59.99 53.61 59.95 53.52 59.93Z" fill="#80EDFF"/>
<path d="M39.06 35.45C38.83 35.63 38.66 36.41 39.27 35.98C39.24 35.8 39.21 35.62 39.18 35.44L39.06 35.45Z" fill="#80EDFF"/>
<path d="M62.75 66.69C62.74 66.63 62.71 66.57 62.67 66.52C62.63 66.53 62.59 66.54 62.55 66.55C62.47 66.64 62.65 66.68 62.75 66.69Z" fill="#80EDFF"/>
<path d="M55.27 55.04C55.12 55.01 54.99 55.04 54.88 55.08C54.97 55.1 55.08 55.1 55.27 55.04Z" fill="#80EDFF"/>
<path d="M61.24 67.64C61.1 67.82 60.88 68.08 60.64 68.24C60.72 68.38 61.11 68.28 61.31 68.35C61.13 68.24 61.09 68.02 61.24 67.64Z" fill="#80EDFF"/>
<path d="M39.14 35C39.07 34.99 39 34.98 38.93 34.97L39.14 34.92L39.11 34.48C39.04 34.47 38.98 34.45 38.92 34.42C38.96 34.43 39.03 34.4 39.1 34.36V34.21C38.29 34.4 37.4 34.1 36.9 34.18C36.46 34.13 36.11 33.95 36.03 33.74C36.13 33.92 36.42 34.05 36.72 33.74C36.85 33.15 37.79 32.24 36.47 32.29L36.73 32.62L34.83 32.8C35.2 32.13 35.78 32.71 36.34 32.47C35.25 32.34 36.68 30.58 35.31 31.13C35.98 30.6 37.09 29.72 36.74 29.37C36.15 30.21 36.06 29.49 35.38 30.33C34.89 30.48 35.32 29.71 34.78 30.06L35.09 29.89C35.71 28.44 33.83 29.44 33.07 29.55C32.22 28.95 32.41 28.26 31.82 27.69C32.26 27.33 33.41 26.24 33.17 26.01C32.46 26.34 31.74 25.96 30.89 26.47C30.89 27.18 31.84 26.37 32.23 26.51C31.56 27.35 31.41 27.13 31.14 27.81C31.28 27.32 29.86 26.97 30.45 26.12L30.63 26.14C30.78 25.35 32.7 23.83 30.96 23.94H30.21C30.3 23.9 30.4 23.83 30.48 23.79C30.14 23.14 31.16 22.64 29.98 22.52C30.07 22.53 30.14 22.43 30.23 22.45C30.41 21.75 29.24 22.05 28.85 21.91C29.39 21.25 29.53 21.47 30.09 21.22C29.87 20.39 28.22 20.53 27.12 20.73L27.2 20.03C27.65 20.07 28.58 19.86 28.92 19.49C28.62 19.36 28.34 19.64 28.23 19.22C28.69 18.96 29.19 18.8 29.84 18.56C30.05 17.37 28.23 19.52 29.18 18.09C29.03 17.87 28.32 18.21 27.8 18.57L28.19 17.69C27.51 18.13 27.12 17.69 26.8 17.46C26.49 17.63 26.29 18.22 26.63 18.15C26.1 18.51 25.62 18.36 25.48 18.14C26.79 17.05 24.26 16.92 26.04 15.97C24.89 15.36 23.76 14.15 22.73 13.96C22.95 13.47 22.66 13.04 23.48 12.81C22.92 12.05 21.23 12.73 21.03 11.7C21.15 11.51 21.3 12.03 21.73 11.65C20.82 11.58 21.62 10.33 20.68 9.85C20.8 9.96 21.11 9.78 21.26 9.69C21.05 9.87 20.56 9.74 20.19 9.71C20.22 9.51 20.46 9.73 20.59 9.54C20.13 7.57 17.44 7.89 16.37 6.41C16.67 6.83 17.68 6.28999 18.05 6.00999L17.75 5.6C17.19 5.79 16.95 5.49 16.42 5.5C16.56 5.34 16.64 5.07 16.95 5.04C17.22 3.54 14.36 5.08 14.06 3.74L16.77 3.5L17.16 2.72L18.38 2.6C18.62 1.9 17.28 2.53 17.92 1.96C18.16 1.88 18.22 2.08 18.59 1.8C18.62 1.29 18.1 1.67 17.79 1.54C19.62 1.05 20.51 2.22999 21.34 2.58999C21.52 2.59999 20.94 2.76 20.79 2.86C21.04 3.08 20.73 3.56999 21.22 3.69999C21.95 3.44999 21.53 3.21999 21.46 3.00999C21.98 2.63999 22.01 2.74 22.23 2.86C21.59 3.42 22.76 4.01 22.11 4.88C23.06 5.66 23.73 3.36999 24.16 4.52999L23.6 5.4C24.61 5.48 25.68 5.77 25.98 6.5L25.86 6.38999C25.46 6.55999 25.37 6.86 25.25 7.05C25.27 7.76 26.53 7.46 25.97 8.33C27.2 8.22 28.48 8.64 29.36 8.93C28.46 9.87 27.9 8.79999 27.07 9.02999L27.49 9.58C27.22 9.25 26.73 9.41 25.99 9.65C26.17 10.27 27.18 9.74999 27.78 10.01C27.47 10.19 27.35 10.38 27.5 10.59L28.22 10.13C28.17 10.18 28.13 10.24 28.14 10.34L29.17 10.84C29.33 10.45 29.92 9.99 29.77 9.77C29.43 10.15 29.22 10.03 29.07 9.80999C29.65 9.65999 29.29 9.32 29.66 9.05C29.96 9.49 30.45 9.94 30.84 10.08L30.28 10.64C30.43 11.16 31.1 11.33 31.12 11.74L30.72 11.9C30.89 12.53 31.66 12.7 31.37 13.59C32.41 13.49 33.41 13.59 34.43 13.39C35.39 12.98 34.35 15.43 35.86 15.07C35.8 15.17 35 15.18 34.57 15.24C34.68 15.66 35.89 15.17 35.11 15.91C34.86 14.96 34.45 16.45 33.97 16.3C34.24 16.63 34.66 16.88 35.09 16.82C34.67 16.27 36.42 16.14 35.63 15.86C36.67 15.76 37.4 16.15 37.51 16.88C37.13 17.15 37.01 17.34 37 17.64L37.65 17.4C37.73 17.72 36.67 17.39 36.83 18.03C38.12 17.87 37.41 19.94 39.28 18.92C38.88 19.8 38.06 18.68 37.66 19.86C36.8 19.97 37.17 18.99 36.23 19.5C36.71 19.65 35.6 20.14 35.74 20.36L36.53 20.35L36.5 20.24C37.75 20.28 38.08 21.54 38.79 22.23C40.14 22.28 41.72 21.86 42.2 22.74C41.52 22.86 42.19 23.76 40.9 23.91C40.72 24.6 41.51 24.6 41.89 24.34C41.78 23.92 41.93 24.14 41.92 23.73C42.51 23.59 42.8 24.04 42.62 24.43C42.59 24.32 42.53 24.42 42.37 24.5C42.34 25.11 42.96 24.37 43.35 24.52C42.78 25.06 43.63 25.27 43.48 25.77L44.66 25.51C43.91 25.72 44.7 26.03 44.19 26.47C44.8 26.45 45.71 26.15 45.84 26.68C45.41 26.73 45.65 27.38 45.05 27.81C44.96 28.93 47.53 27.83 47.13 29.12C46.97 29.2 46.48 29.34 46.46 29.64C46.74 29.68 46.86 30 47.04 30.12L47.02 30.13H47.04C47.13 30.19 47.24 30.19 47.39 30.09C48.19 29.96 48.9 29.69 49.8 29.9C50.47 29.38 49.87 29.09 49.5 29.04L48.69 29.34C49.63 28.44 48.16 28.96 48.42 28.58C49.89 28.06 50.26 29.25 51.43 29.31C52.16 28.28 51.77 27.4 51.19 26.8L50.98 27.39L50.72 27.04L50.21 27.9C50.11 27.47 49.72 27.32 49.55 26.98C49.81 27.33 48.94 28.13 48.95 27.83C49.36 26.96 48.22 27.73 48.05 27.4C48.1 27.61 48.24 27.84 47.74 27.98C48.17 26.8 47.51 27.02 48.03 25.86C46.91 26.74 47.44 25.27 46.44 25.85L46.52 26.17L45.45 26.13C46.05 24.98 46.72 25.89 46.86 24.67C46.49 23.9 45.29 24.78 44.82 24.3C45.63 23.99 46.52 24.01 46.81 24.45L46.96 23.95C47.46 23.81 47.8 24.47 47.97 24.8C46.83 24.85 47.89 25.2 47.43 25.86C48.13 25.44 47.8 25.19 48.6 25.19C48.34 24.84 48.25 24.83 48.19 24.2C48.57 25.39 51.11 23.46 51.15 24.71C50.58 24.53 50.28 25.52 49.99 25.79C50.2 25.92 50.62 26.18 50.89 26.22L51.76 25.41C52.52 25.62 50.6 27.21 51.99 27.09C52.62 26.77 51.84 26.45 52.02 26.48C53.17 26.85 51.81 28.21 51.57 29.4C51.89 29.24 52.5 28.81 53.18 28.7C52.55 29.02 52.37 29.41 51.76 29.42C51.68 29.82 52.29 29.81 52.66 29.86C52.67 29.14 53.63 29.49 54.04 29.34C54.11 29.66 53.41 29.66 53.13 29.62C53.11 29.93 52.42 30.76 53.37 30.28C52.76 30.71 51.37 30.81 50.96 30.55L51.03 30.87C50.6 30.91 50.67 30.82 50.59 30.5C50.28 31.07 49.74 31.41 49.27 31.65C49.34 31.56 49.43 31.57 49.49 31.48C49.51 31.17 49.23 31.13 48.94 31.4C47.99 31.78 48.62 32.03 48.3 32.45C48.43 32.52 48.55 32.58 48.67 32.64L52.03 31.89C52.64 32.13 52.15 32.76 51.97 33.37L52.74 32.98C52.93 33.42 52.96 33.94 51.89 34.3C52.12 34.13 52.03 34.11 52 34C51.9 34.05 51.81 34.08 51.74 34.09C51.69 34.11 51.65 34.13 51.6 34.15C52.11 34.41 52.44 34.57 52.48 34.58C50.97 34.57 51.17 35.41 49.83 36.15L50.72 36.59C50.83 35.89 51.33 36.17 51.61 36.21C50.93 36.73 52.01 36.78 52.08 37.1L51.92 37.18C51.83 37.58 52.17 37.94 52.56 38.1C52.79 37.93 54.2 37.53 55.02 37.24C54.95 36.56 55.44 36.67 55.85 36.33C55.84 36.41 55.9 36.51 56 36.46C56.25 36.4 56.2 36.18 56.43 36.01C55.74 35.7 55.29 35.21 54.15 35.65C53.81 36.11 54.76 35.64 54.59 36.03C53.75 36.21 53.65 35.78 53.37 35.33L53.87 34.79L53.25 34.56C53.69 34.53 54.23 34 54.67 34.39C55.19 33.95 54.23 34.01 54.22 33.6L53.33 33.99C53.81 33.75 53.48 33.08 54.37 33.11L55.49 33.38L55.89 32.82L56.45 33.32L55.95 33.45C57.15 34.05 54.58 34.78 56.15 35.13C57.31 34.8 57.63 35.06 57.79 35.81C57.29 35.52 57.09 36.21 56.43 36.42C56.32 37.13 57.21 36.75 57.73 36.73C57.3 37.18 56.94 37.53 56.75 37.09C55.66 37.74 57.28 37.48 56.21 38.24C57.1 39.52 60.43 36.95 60.07 39.38L59.59 39.61C60.77 40.22 60.61 41.13 61.54 41.81L60.87 43.25C60.59 43.2 59.48 43.32 59.06 43.87C59.98 42.79 59.34 42.68 59.71 41.91C59.39 42.06 59.27 42.36 59.13 42.54C59 42.31 59.43 41.86 59.04 41.7C58.82 41.87 58.74 42.37 58.45 42.22L58.89 41.36C58.21 41.04 57.04 42.19 56.95 41.35C57.65 41.06 58.71 40.71 59.02 40.85C58.97 40.47 59.65 40.99 59.85 40.48C58.65 40.67 59.26 39.99 58.31 39.82C58.48 39.8 58.67 39.7 58.82 39.8L58.68 38.74C58.27 39.29 57.65 38.47 56.9 39.07C57.13 40.14 57.45 39.57 57.64 40.84C57.28 40.68 56.23 40.87 55.37 41.2C55.4 41.17 55.41 41.14 55.41 41.1C54.52 41.48 54.4 41.77 53.01 42.68C54.29 42.47 53.67 43.3 54.58 43.44C55.4 43.04 55.35 42.5 54.99 42.37L55.79 42.5L55.38 42.64L55.88 43.97C55.7 43.78 55.21 43.99 54.8 44.09C54.87 44.26 54.76 44.54 54.64 44.84C55.35 44.33 55.87 44.02 55.95 44.17C56.26 45.03 55.88 45.88 55.23 46.69C55.27 46.71 55.31 46.73 55.34 46.74C56.01 46.13 57.03 46.4 57.94 46.14C57.16 46.63 57.73 46.83 57.47 47.3C58.43 46.84 59.56 45.9 60.11 45.17C58.97 45.18 59.11 45.41 57.8 45.91L56.5 45.59L57.32 45.31C57.37 44.7 56.18 44.92 57.12 44.35C57.87 44.17 57.73 44.76 58.48 44.58L58.64 44.09C59.85 43.98 57.93 44.9 58.93 45.07C59.57 44.35 59.02 45.09 59.71 44.99C60.13 44.44 58.83 44.12 60.27 43.43C61.05 43.36 59.37 45.45 60.95 44.99L60.79 45.07C61 45.77 61.89 45.48 62.51 45.4C62.24 45.93 63.07 45.89 63.29 46.13L62.9 46.37L63.31 46.65C62.49 46.92 63.04 46.19 62.73 45.92L62.04 46.42C62.65 45.49 61.19 46.07 60.38 46.17C61.28 46.2 60.97 47.49 62.45 46.69L61.89 47.42L62.23 47.38C61.81 47.93 60.82 48.27 60.42 47.99C60.56 47.81 60.63 47.72 60.79 47.64C60.36 47.67 59.69 47.86 59.59 47.33L60.12 47.31C59.83 46.74 59.24 46.44 58.42 46.71C58.62 47.67 59.03 48.47 59.52 49.17C61.29 48.34 62.36 48.02 63.95 47.16C64.54 47.47 65.17 48 64.88 48.78L64.56 48.93C64.53 49.24 64.74 49.37 65.01 49.43C64.75 49.9 64.11 49.79 63.99 50.07L64.94 50.45C64.22 50.84 63.85 50.25 63.62 50.01C63.71 50.03 63.89 50.06 63.96 49.97C64.04 49.47 62.48 49.6 63.39 48.83C63.12 48.78 64.33 48.69 64.04 48.12C64.19 47.52 63.22 47.97 62.9 48.12C62.51 48.36 62.72 49.02 62.13 49.12C62.36 49.37 62.93 49.16 62.78 49.76C62.56 49.51 61.53 49.64 62.04 49.11C60.97 49.02 59.19 50.26 59.25 50.58C59.78 50.16 60.59 51.13 60.88 49.94C61.82 49.79 62.2 50.38 62.92 50.51L62.76 50.58L63.28 50.99C63.03 51.04 62.75 51 62.36 51.24L63.86 51.31C62.9 51.34 63.53 51.87 63.34 52.25C63.99 51.95 64.6 51.96 64.77 51.48C65.01 50.9 64.34 51.5 64.12 51.25L65.31 51.06L65.24 51.15L66.16 50.91C66.44 51.48 64.22 51.8 65.4 52.01L66.4 51.26C66.74 52.16 66.2 53.92 67.03 54.19C66.33 54.4 65.33 54.93 64.89 55.5C64.92 55.14 64.58 54.68 64.27 54.39C64.41 54.21 65.79 54.05 65.79 54.57C67.4 53.32 64.16 54.26 65.88 53.13C65.89 51.78 63.75 53.46 64.27 52C63.48 52.48 63.74 52.01 63.03 52.39C61.91 53.43 63.75 53.46 63.64 54.27C63.55 54.25 63.37 54.22 63.21 54.29C63.22 54.81 63.49 54.86 63.94 54.94L64.01 54.85C65.06 54.84 63.61 55.5 63.43 55.98C63.61 56.01 63.62 56.53 64.16 56.12L63.72 57.07L64.58 56.51C64.8 56.76 64.26 57.17 64.95 57.1L65.74 56.63L65.58 55.77C66.05 55.96 66.39 55.41 66.79 55.69C65.67 55.79 66.55 56.26 65.85 56.75L66.47 56.76L66.22 56.82C65.95 57.29 66.68 56.91 66.73 57.23C66.98 56.65 67.4 56.12 66.6 56.07C67.22 56.08 68.06 56.35 68.16 56.47C68.67 56.57 68.2 57.15 68.28 57.48C67.64 57.13 66.02 59.12 65.93 57.7C66.09 57.63 66.11 57.74 66.04 57.83C66.95 57.07 65.58 57.22 65.06 57.23C64.52 57.64 64.23 57.49 64.17 58.1C64.45 57.74 65.67 57.66 65.44 58.34L64.17 59.03L64.37 59.69L64.28 59.67C63.62 60.37 64.8 60.19 64.57 60.87C65.18 60.89 65.5 62.19 66.5 60.94C65.94 61.76 67.12 61.48 67.52 61.76L67.73 60.97C68.96 61.01 68.29 61.19 69.98 60.8C69.67 61.05 69.45 61.32 69.04 61.44C69.45 62.25 69.75 63.56 71.03 63.41C71.3 63.99 69.89 64.94 70.91 65.37C71.18 65.43 72 64.56 71.94 65.27C71.87 65.36 70.73 65.33 71.16 65.83C72.36 65.67 71.19 67.08 72.33 67.12C72.15 67.6 72.56 68 71.74 68.35C71.65 67.81 71.13 67.29 70.71 67.41C71.2 67.2 70.97 66.84 71.51 66.95C71.69 65.95 70.79 66.8 70.83 65.98C70.5 66.12 70.17 66.78 70.52 66.75C69.49 67.36 69.33 65.88 68.4 67.14C68.68 67.82 70.95 66.74 70.19 67.92C69.43 68.07 69.76 67.42 68.51 67.78L68.36 68.47L69.3 68.35L69.14 68.42C68.66 69.77 70.64 68.52 71.58 68.93C72.06 68.09 73.43 67.97 73.69 67.4C74.1 67.8 74.17 68.24 73.13 68.84C71.77 68.44 72 69.43 70.49 69.21C70.2 69.56 68.86 69.9 69.03 70.46C70.09 70.58 69.8 69.79 70.46 70.14C70.39 70.23 70.31 70.32 70.15 70.39C70.84 70.33 70.13 70.8 70.9 70.76L70.65 70.81C70.24 71.56 71.6 70.81 71.11 71.53C71.81 70.95 71.87 71.38 72.47 71.31C72.57 70.81 73.57 69.99 73.13 69.37C72.47 69.65 72.16 69.89 71.71 69.79L72.03 70.17C71.88 70.14 71.68 70.16 71.51 70.15L71.59 69.56C72.33 69.82 72.84 69.21 73.6 69.06C73.61 69.69 73.99 69.35 73.97 69.77C73.06 70.26 72.97 71.57 72.71 72.45C72.7 72.35 72.61 72.25 72.6 72.18C71.8 72.11 72.01 72.88 71.77 73.04L72.38 73.07C72.29 73.05 72.03 73.1 71.98 73.29C72.37 73.58 73.25 73.05 73.64 73.34C73.16 73.65 72.22 73.76 72.1 74.15C71.72 74.48 70.72 75.4 71.46 75.67C71.67 75.6 71.86 75.67 72.02 75.78C71.98 75.77 71.95 75.76 71.91 75.77L71.57 76.42C70.56 76.61 71.63 75.6 70.61 75.79L69.79 76.22C69.66 75.99 69.13 75.88 68.63 75.98C68.69 76.4 68.95 76.36 69.34 76.65C68.86 76.99 68.33 76.94 68.25 76.93L68.74 76.73C69.14 75.89 67.57 76.48 67.39 75.82C67.37 75.71 67.46 75.73 67.63 75.66C66.59 75.64 67.38 74.57 66.1 74.71L66.61 74.61C66.09 74.5 64.96 74.36 63.85 74.2L63.54 74.38C63.39 74.56 63.27 74.32 63.33 74.13C62.78 74.05 62.26 73.97 61.86 73.89C61.71 74.08 61.61 74.27 61.63 74.4C62.05 74.28 62.07 75 62.85 74.44C62.5 74.99 63.45 74.98 63.25 75.35C63.59 74.7 64.17 75.13 64.66 74.92C64.2 75.34 64.99 75.4 64.26 75.77C64.12 75.94 64.63 75.33 64.13 75.43C63.27 75.46 63.93 76.42 63.05 76.34C63.87 76.62 64.08 77.48 65.07 77.69L65.17 77.2C65.22 77.52 65.73 78.04 65.41 78.28C65.22 78.14 65.1 77.91 64.81 77.74C64.01 78.19 65.16 78.33 64.68 78.64L66.41 78.6L66.27 78.26C66.87 78.18 66.66 79.17 66.82 79.72C65.57 80.07 66.38 79 65.64 78.74C65.01 78.61 64.72 79.57 64.25 79.37C64.05 79.61 64.21 79.82 64.55 79.77L64.43 80.02C63.26 80.28 63.08 79.45 61.95 79.48C62.08 79.46 62.21 79.43 62.34 79.38C62.52 78.8 62.29 78.45 61.83 78.25C61.62 78.62 61.88 78.57 62.05 78.6C61.81 78.75 61.52 78.49 61.17 78.52C61.07 79.01 60.62 78.92 60.58 79.22C60.22 79.15 60.19 78.94 60.15 78.62C60.45 78.27 60.73 78.43 61.2 78.12C60.75 78.03 61.86 77.22 61.06 77.17C61.15 77.8 59.92 77.65 59.48 77.67L59.5 77.78C58.83 77.95 58.73 77.83 59.19 77.41C59.55 77.48 59.5 77.78 60.05 77.38C59.94 77.26 59.84 77.13 59.57 77.08L60.07 76.98L59.55 76.36C58.97 76.55 58.14 76.79 57.33 77.14C57.7 76.7 57.18 76.7 56.91 76.65L57.17 76.6C57.43 76.04 56.66 75.58 56.18 75.79C56.46 75.33 59.98 75.62 58.65 74.33C58.3 73.75 56.99 74.82 56.29 74.79C56.29 74.79 56.45 74.72 56.52 74.63C56.48 74.31 55.91 74.61 55.55 74.54C55.42 74.82 55.54 75.05 55.79 75C55.14 75.28 55.53 74.44 54.94 74.53C56.02 74.23 55.01 73.83 55.6 73.74C55.9 72.88 54.84 72.78 54 72.92C54.96 71.88 53.49 72.41 53.7 71.54C53.72 71.65 53.99 71.69 53.93 71.89C54.86 71.76 53.97 71.08 54.94 71.16C54.76 71.13 54.54 71.39 54.72 71.42C54.92 71.56 55.34 71.54 55.65 71.29L56.03 70.44L56.31 70.49L56.8 69.26C56.64 69.33 56.49 69.51 56.42 69.6C56.34 68.56 55.28 67.96 54.98 67.19C52.82 68.33 53.05 66.02 51.43 66.24C52.12 66.02 53.22 65.46 53.6 65.1C53.76 65.17 54.76 64.92 54.76 65.31C54.45 65.56 54.29 66.14 53.77 66.15C54.49 66.79 54.62 65.49 55.53 65.25C54.8 64.5 53.27 64.73 52.44 64.49L52.68 64.33L51.96 64.2C52.03 64.62 50.85 65.33 50.99 64.64L51.08 64.66C51.42 64.11 50.52 63.95 50.36 63.52L49.52 63.68C49.36 63.25 50.61 62.44 51.29 61.85C51 61.19 49.75 61.48 48.87 61.43C49.3 60.89 48.86 59.9 49.83 59.96C49 59.72 46.13 61.68 47.17 59.72L47.85 59.63C47.17 58.81 45.32 58.2 45.61 57.44C47.71 56.56 46.83 55.09 48.58 53.74C48.18 54.06 47.83 53.81 47.57 53.91C47.74 53.7 47.87 53.44 47.41 53.56C47.26 54.15 45.33 54.55 46.51 54.74C45.02 55.22 43.75 55.43 43.34 54.66L44.12 54.17L44.26 54.9C44.79 54.47 44.94 54.8 45.29 54.75C45.02 53.39 47.19 53.73 46.37 52.68C45.8 52.9 46.05 52.83 45.67 52.67C45.78 52.79 46.33 52.47 46.2 52.24L45.45 52.43C46.48 51.21 46.7 52.53 47.39 51.61C48.27 51.65 49.08 52.18 49.98 51.41C49.88 50.48 47.73 51.97 47.7 50.95L48.07 50.6C47.62 50.53 46.91 50.93 46.41 51.05C46.64 50.88 46.78 50.7 46.74 50.49C45.47 50.7 45.09 50.54 43.75 50.84C45.25 51.37 43.59 52.24 45.02 52.86C44.59 52.9 43.85 52.28 42.76 52.92L43.54 52.43C42.91 52.33 42.28 52.24 42.25 51.63L42.86 51.62C41.94 51.38 43.39 49.87 41.8 50.25C41.84 50.46 41.95 50.58 42.14 50.6C41.6 50.52 41.42 50.09 41.33 49.68L39.61 49.84C39.99 49.59 39.73 49.15 40.48 48.95C40.74 48.07 39.44 48.6 39.07 48.44C39.55 47.4 39.72 48.63 40.81 47.98C40.71 47.05 39.9 46.53 38.95 46.6C38.89 46.84 38.8 47 38.61 47.12C38.84 46.94 38.59 46.7 38.49 46.54L37.92 46.77C38.08 46.29 38.4 46.13 38.92 46.1C38.85 45.79 37.7 46.14 38.24 45.4C39.12 45.42 38.96 46.31 39.48 46.28C38.41 45.72 40.4 44.38 39.01 43.69C39.24 43.52 39.83 43.39 39.69 43.18C39.17 42.81 38.58 43.74 37.93 43.96C38.5 44.13 38.32 44.52 37.84 45.16L37.37 45.33C37.57 45.17 37.42 44.93 37.57 44.72L36.71 45.21C37.64 44.63 38.07 43.78 37.52 43.7C37.07 44.45 37.05 44.34 36.07 45.12C34.81 45.36 36.71 43.99 35.35 44.22C35.66 44.06 36.16 44.32 36.14 43.82C35.98 43.5 35.3 44.01 34.94 43.97C35.84 43.68 36.37 43.24 37.43 42.88C37.88 43.34 37.56 43.1 38.24 43.39L38.58 42.52C39.01 42.88 39.66 42.26 39.98 42.1C40.23 40.81 38.44 42.3 38.31 41.67C37.63 41.78 38.51 42.21 37.72 42.2C37.52 41.67 37.16 42.43 36.48 42.14L36.88 41.99C37.22 41.53 36.56 41.75 36.36 41.62C36 41.58 33.9 43.63 33.29 42.85C33.53 42.75 33.67 42.67 33.76 42.61L40.63 39.1C40.05 38.27 39.56 37.18 39.31 35.92C40.38 34.84 40.81 35.91 41.32 35.47L41.38 36.09C40.84 36.42 40.57 35.27 39.93 36.31C40.85 36.83 40.49 37.6 42.08 37.61C43.16 36.53 41.19 36.77 41.81 35.64C41.87 35.9 42.13 35.98 42.42 36.02C42.27 35.45 42.1 34.85 41.93 34.2L41.55 34.29C41.65 34.73 41.71 35.05 41.69 35.11C41.48 34.57 40.52 34.65 39.6 35.25L39.62 35.35L39.22 35.38L39.14 35ZM17.78 5.6C17.88 5.56 18 5.51 18.13 5.43C17.99 5.51 17.93 5.59 17.78 5.6ZM48.36 42.04C48.08 41.32 47.91 40.53 47.62 39.85C46.54 42.14 45.68 43.81 44.52 41.98L44.31 41.95C44.25 42.33 44.49 42.76 44.87 43.05C45.71 42.93 48.73 42.37 48.93 42.22C49.36 41.77 48.7 41.98 48.73 41.68L48.36 42.04ZM45.63 44.5C45.66 44.99 46.01 44.64 46.41 44.46L46.03 44.18C45.97 44.28 45.86 44.39 45.63 44.5ZM46.76 44.19C46.74 44.14 46.74 44.1 46.77 44.05L46.76 44.19ZM42.6 37.03C42.62 37.04 42.63 37.04 42.65 37.05C42.62 36.95 42.59 36.85 42.56 36.74C42.53 36.82 42.53 36.91 42.6 37.03ZM42.21 38.34L42.92 37.98C42.89 37.89 42.86 37.79 42.83 37.69C42.56 37.92 42.32 38.12 42.21 38.34ZM41.6 42.09C42.49 41.7 42.85 42.16 43.78 41.58C44.03 41.45 44.05 41.29 44.05 41.13C43.99 40.99 43.92 40.83 43.85 40.67C43.71 40.75 43.57 40.81 43.42 40.84C43.4 41.06 43.24 41.31 42.64 41.63C43.61 40.44 41.55 41.89 41.6 41.28C40.88 41.58 41.27 42.14 41.6 42.09ZM63.59 71.57C63.51 71.63 63.33 71.8 63.1 72.01L62.46 72C62.36 71.36 63.47 70.15 62.03 70.37C62.19 69.98 62.74 69.49 63.19 69.08C63.22 69.21 63.23 69.34 63.2 69.47C65.67 69.76 61.79 71.21 63.59 71.57ZM61.7 64.64C61.79 64.66 61.96 64.58 61.96 64.58C59.54 64.47 58.47 63.83 58.16 63.17C57.55 63.71 57.36 64.58 57.24 65.02L56.32 65.26L56.84 64.74L55.89 64.77C55.44 65.2 55.74 65.46 55.47 65.92C55.63 65.85 56.96 65.99 57.55 65.9L57.75 65.01C57.62 65.29 58.25 65.92 58.63 66.1C59.02 65.87 59.32 65 58.43 65.45C58.97 65.04 59.33 65.62 59.73 64.87C60.61 64.94 60.52 65.95 60.43 66.44L59.49 67.08C59.33 67.66 60.81 66.61 60.5 67.37C60 66.97 59.48 68.1 59.16 67.73C58.87 68.08 58.13 68.35 58.45 68.72C59.95 68.29 57.91 69.64 59.24 69.28C58.97 69.74 58.32 69.51 58.41 70.04C59.38 70.13 59.85 69.81 60.81 69.28C60.8 68.66 59.28 69.49 59.29 68.98L61.34 68.77C61.49 68.5 61.45 68.38 61.33 68.33C61.51 68.43 61.83 68.41 62.22 68.32C62.44 68.28 62.63 68.24 62.8 68.21C62.56 67.78 62.35 67.39 62.71 67.08L63.2 66.87C63.53 66.47 63.05 66.42 62.65 66.51C62.37 66.16 61.51 66.16 62.04 65.72L62.54 65.61C62.15 65.24 62.06 65.23 61.7 64.64ZM53.22 48.79C51.76 50.13 50.52 51.36 51.64 52.47L51.46 52.44C50.85 53.75 53.63 52.85 52.99 54.38C52.13 54.39 52.19 54.37 50.51 54.85L51.24 54.97C50.27 55.42 51 55.54 51.15 55.87L49.92 56.28C50.11 55.9 49.92 55.36 49.69 55.53C49.87 55.56 50.64 54.05 50.08 53.85C49.39 54.35 50.21 55 48.79 55.38C49.49 55.39 48.8 55.89 49.27 56.07C48.57 56.06 48.24 56.61 47.56 56.7L48.16 57.1C47.93 57.27 47.11 56.63 46.52 57.65C47.04 57.63 46.94 58.53 47.73 58.05L47.5 58.22C47.6 58.75 48.72 57.71 48.6 58.5C48.99 58.26 49.2 57.99 49.01 57.86C48.74 57.81 48.19 58.13 47.88 57.88C48.4 57.35 48.05 58.32 48.94 57.44C49.38 57 47.96 56.87 49.26 56.37L49.36 56.9C50.14 56.42 50.29 56.75 50.91 56.34C51.36 56.42 50.64 57.21 51.48 57.05C52.05 56.84 52.87 56.06 52.74 56.75C51.8 57.82 52.67 58.67 53.06 58.95L53.76 58.97C54.22 58.64 53.3 58.38 54.06 58.2L54.57 58.6L54.24 58.75C54.28 58.96 54.71 58.94 54.98 58.99C54.32 59.18 54.31 58.67 53.55 59.25C53.54 59.59 53.26 59.82 53.56 59.94C53.47 59.93 53.37 59.94 53.26 60.01C53.21 60.72 54.46 59.92 54.8 59.87C56.17 59.7 55.47 58.76 56.35 58.3L57.69 59.47C57.35 59.51 57.01 59.55 56.7 59.8C56.54 60.39 56.07 60.2 56.42 60.67C57.51 59.95 57.5 60.87 58.37 60.82C58.01 61.27 57.94 61.36 57.71 61.01C57.01 61.5 57.59 61.81 57.63 62.02C57.87 62.01 58.08 62.11 58.31 62.12C58.58 61.75 59.07 61.54 59.58 61.66L59.74 61.58C59.62 60.95 59.92 59.66 58.98 59.8L59.39 59.67C59.65 58.69 57.29 59.19 58.49 58.07C59.05 57.76 58.54 57.87 59.33 57.4L58.45 57.34L58.86 57.21L58.22 56.58L58.38 56.51C57.45 56.6 56.71 56.68 56.1 56.76C55.76 56.97 55.67 57.06 55.35 57.1C55.11 57.09 55.03 57.02 55.02 56.91C55 56.67 55.42 56.24 55.47 55.89L55.99 56.52C56.6 56.21 57.16 55.78 57.35 55.19C57.46 55.31 57.95 55.09 57.9 54.88C57.74 54.96 57.25 54.66 56.89 55.11C56.27 54.59 57.11 52.58 55.39 52.28C56.5 52.57 55.8 51.22 56.53 51.86C57.1 50.72 55.32 51.96 55.11 51.31C55.41 51.05 55.26 51.64 55.99 51.36C55.76 50.19 53.51 50.73 53.2 49.66L53.89 49.16C53.67 49.05 53.45 48.92 53.22 48.79ZM51.18 47.6C50.99 47.48 50.79 47.36 50.59 47.24C50.59 47.26 50.6 47.28 50.6 47.31L49.69 47.17C49.62 47.67 48.97 48.39 48.32 48.18C48.64 48.03 48.91 47.66 49.19 47.7C49.42 47.12 49.41 46.2 48.45 47.07C49.84 46.98 47.17 48.1 48.21 48.05C47.35 48.27 47.51 47.82 47.05 47.8C47.79 47.65 48.34 46.87 48.38 46.34C48.11 46.3 47.99 45.77 47.54 45.7C46.94 46.22 46.42 46.25 46.53 46.77C46.26 46.73 45.96 46.58 46.13 46.1C46.31 46.13 46.51 46.26 46.74 46.09C47.23 45.52 47.07 45.34 47.25 45.06L46.97 44.87C46.93 44.93 46.87 45.01 46.79 45.08L46.02 45.17C46.59 45.36 45.84 45.55 45.45 45.8C46.22 45.3 45.38 45.48 45.27 45.37L44.65 46.2C44.15 46.33 44.91 45.32 44.15 45.92C44.23 46.75 44.53 46.89 45.14 47.28L45.62 46.64C46.48 46.97 44.8 47.74 45.29 48.42C46.06 48.33 46.02 49.45 47.19 48.71C46.78 48.85 46.45 49.82 47.13 49.72C48.36 49.3 49.03 50.02 49.35 49.46C49.22 49.23 48.45 49.32 49.02 48.69L49.52 48.97L49.91 48.32C49.82 48.6 50.37 48.21 51.18 47.6ZM51.28 33.76V33.73C51.28 33.74 51.28 33.74 51.29 33.75L51.28 33.76Z" fill="#80EDFF"/>
<path d="M69.85 76.65C70.2 76.62 70.33 76.96 70.88 76.56C70.24 76.94 70.46 76.05 69.85 76.65Z" fill="#80EDFF"/>
<path d="M69.43 77.38C69.6 77.31 69.84 77.16 69.94 77.29L69.55 76.99L69.43 77.38Z" fill="#80EDFF"/>
<path d="M65.25 80.29C65.84 80.21 66.19 80.19 66.32 80.52C64.81 81.53 65.59 80.26 64.04 80.95C64.22 81.61 65.69 81 66.09 81.39C66.62 80.8 66.45 79.63 65.25 80.29Z" fill="#80EDFF"/>
<path d="M63.12 81.18L63.65 81.29L63.73 81.21L63.19 81.09L63.12 81.18Z" fill="#80EDFF"/>
<path d="M72.71 66.36C73.18 66.04 72.58 66.13 72.4 66.09C72.42 66.19 72.37 66.39 72.71 66.36Z" fill="#80EDFF"/>
<path d="M32.17 5.00999L29.99 3.08C30.61 3.65 31.13 4.19999 32.17 5.00999Z" fill="#80EDFF"/>
<path d="M64.68 60.16C65.53 60.53 66.54 60.32 67.16 60.85C67.6 59.38 64.94 60.62 65.49 59.28L64.68 60.16Z" fill="#80EDFF"/>
<path d="M68.68 58.04C67.83 58.7 67.31 58.18 66.7 58.69C67.19 59 67.69 58.37 67.86 58.82L68.68 58.04Z" fill="#80EDFF"/>
<path d="M55.38 70.1L54.78 70.19L55.05 70.25L55.38 70.1Z" fill="#80EDFF"/>
<path d="M66.05 55.55L66.3 55.5L66.38 54.99L66.05 55.55Z" fill="#80EDFF"/>
<path d="M66.55 55.44L66.3 55.5L66.55 55.44Z" fill="#80EDFF"/>
<path d="M53.26 71.03L53.24 71.44L53.75 71.33L53.26 71.03Z" fill="#80EDFF"/>
<path d="M56.62 65.53L57.07 65.61C56.98 65.59 57.14 65.01 56.62 65.53Z" fill="#80EDFF"/>
<path d="M65.19 53.32L64.65 53.22L64.58 53.3L65.12 53.41L65.19 53.32Z" fill="#80EDFF"/>
<path d="M52.88 65.05C52.29 65.66 52.37 64.66 51.98 65.4C52.29 65.65 52.58 65.3 52.88 65.05Z" fill="#80EDFF"/>
<path d="M55.27 58.35C55.24 58.31 55.19 58.28 55.09 58.28C55.15 58.32 55.21 58.34 55.27 58.35Z" fill="#80EDFF"/>
<path d="M55.27 58.35C55.35 58.49 55.17 58.79 55.43 58.76C55.64 58.39 55.49 58.4 55.27 58.35Z" fill="#80EDFF"/>
<path d="M54.13 56.89L54.16 57.04C53.74 57.13 53.83 57.16 54.17 57.1C54.28 57.22 54.49 57.07 54.65 56.99C54.75 56.96 54.86 56.93 54.97 56.9C54.85 56.92 54.74 56.94 54.65 56.95C54.54 56.75 54.42 56.65 54.13 56.89Z" fill="#80EDFF"/>
<path d="M62.07 43.63C62.11 44.26 62.07 44.46 61.52 44.78C61.63 45.33 62.51 44.67 62.9 44.79C62.46 44.36 62.64 44.1 62.07 43.63Z" fill="#80EDFF"/>
<path d="M62.89 44.79C62.94 44.84 62.98 44.89 63.04 44.94C63.01 44.85 62.96 44.81 62.89 44.79Z" fill="#80EDFF"/>
<path d="M49.37 62.4L48.37 62.63L48.55 62.67L49.37 62.4Z" fill="#80EDFF"/>
<path d="M61.89 42.77C61.91 42.88 62.02 43 61.88 43.19C62.44 42.86 61.87 42.66 61.89 42.77Z" fill="#80EDFF"/>
<path d="M52.55 51.29C52.25 51.55 52.63 51.71 52.58 51.91C52.54 51.7 53.44 50.93 52.55 51.29Z" fill="#80EDFF"/>
<path d="M58.83 42.87C58.85 42.98 58.58 43.34 58.1 43.57C58.44 43.53 59.49 43.09 58.83 42.87Z" fill="#80EDFF"/>
<path d="M52.1 50.4L51.96 50.59L52.51 50.67L52.1 50.4Z" fill="#80EDFF"/>
<path d="M44.91 56.58C45.77 56.52 46.1 55.04 47.02 55.29C47.2 54.09 46.15 55.93 45.89 55.3C45.89 55.77 45.19 56.45 44.91 56.58Z" fill="#80EDFF"/>
<path d="M45.89 55.3C45.89 55.23 45.88 55.17 45.84 55.11C45.86 55.19 45.87 55.25 45.89 55.3Z" fill="#80EDFF"/>
<path d="M46.77 47.82C46.87 47.83 46.96 47.81 47.06 47.8C46.98 47.79 46.89 47.8 46.77 47.82Z" fill="#80EDFF"/>
<path d="M44.2 53.84L45.49 53.74C44.63 53.81 44.11 52.92 43.19 53.59C43.18 54 43.65 54.17 44.15 54.04L44.2 53.84Z" fill="#80EDFF"/>
<path d="M57.4801 36.55L58.01 36.53L57.93 36.17C57.84 36.35 57.0501 36.66 57.4801 36.55Z" fill="#80EDFF"/>
<path d="M57.91 36.1L57.93 36.17C57.94 36.14 57.94 36.12 57.91 36.1Z" fill="#80EDFF"/>
<path d="M47.87 48.5C47.91 48.71 48.03 48.83 48.29 48.87C48.43 48.69 48.33 48.17 47.87 48.5Z" fill="#80EDFF"/>
<path d="M55.04 35.86L55.45 36.13L55.11 35.76L55.04 35.86Z" fill="#80EDFF"/>
<path d="M55.46 33.03L55.6 32.84L55.05 32.76L54.91 32.95L55.46 33.03Z" fill="#80EDFF"/>
<path d="M38.42 47.73C38.48 48.04 39.46 47.67 39.6 47.49L39.24 47.04C38.58 47.66 39.35 47.16 39.35 47.56L38.42 47.73Z" fill="#80EDFF"/>
<path d="M45.16 21.09C45.72 20.85 45.82 21.58 45.37 21.94C45.12 22.01 44.72 21.86 44.56 22.25L46.05 21.82C45.7 22.91 44.18 22.51 43.56 22.53C43.81 23.21 44.71 22.82 45.13 23.43C45.11 23.18 45.33 22.85 45.52 22.58C46.35 21.96 46.37 22.79 46.73 23.15C46.91 22.64 47.33 22.57 47.79 22.52C47.84 22.54 47.9 22.52 47.97 22.5L48.13 22.48L48.09 22.43C48.19 22.37 48.29 22.28 48.42 22.13C47.94 21.96 48.45 21.21 48.31 20.98C47.09 22.16 47.47 20.46 46.85 20.48L46.49 20.26L46.4 20.14C46.53 20.01 46.75 19.91 47.14 19.9C46.76 19.94 46.5 19.37 46.1 19.73L45.27 18.6C45.3 18.52 45.34 18.44 45.42 18.34C45.31 18.36 45.23 18.41 45.17 18.46L41.49 13.56C41.56 13.88 41.41 14.32 41.44 14.68C40.27 14.96 41.58 15.21 40.65 15.72C40.22 15.78 40.14 15.46 40.24 15.16C39.77 15.42 39.54 15.91 39.01 16.26C38.92 17.28 41.04 15.87 41.17 16.71C40.64 17.06 40.05 17.2 40.41 17.55L40.23 17.53C41.27 17.75 39.42 18.87 41.13 18.25L40.38 18.78C41.15 18.66 41.56 19.22 41.89 19.47L41.73 19.55C43.23 19.83 42.27 19.92 43.35 20.67L42.15 20.83C42.04 21.43 43.04 20.83 43.12 21.15C42.96 21.24 42.46 21.68 42.15 21.55L44.35 21.82C45.14 21.7 44.88 21.36 45.16 21.09Z" fill="#80EDFF"/>
<path d="M45.14 23.43C45.15 23.52 45.18 23.61 45.27 23.68C45.24 23.57 45.19 23.49 45.14 23.43Z" fill="#80EDFF"/>
<path d="M41.25 13.22L41.51 13.56C41.48 13.42 41.41 13.29 41.25 13.22Z" fill="#80EDFF"/>
<path d="M48.03 24.03C48.27 23.54 48.69 23.81 49 23.64L48.45 22.89C48.16 23.1 47.78 23.25 47.53 23.45L48.03 24.03Z" fill="#80EDFF"/>
<path d="M48.84 22.28C48.62 22.4 48.38 22.44 48.15 22.47L48.45 22.88C48.66 22.73 48.83 22.54 48.84 22.28Z" fill="#80EDFF"/>
<path d="M33.44 33.24L33.32 33.12L32.95 33.08L33.44 33.24Z" fill="#80EDFF"/>
<path d="M33.25 30.28C32.92 30.75 33.47 30.81 33.65 30.83C33.4 30.5 33.67 30.53 33.25 30.28Z" fill="#80EDFF"/>
<path d="M28.86 34.03L28.38 33.88L28.32 33.97L28.86 34.03Z" fill="#80EDFF"/>
<path d="M36.45 12.81L36.28 12.68C36.34 12.76 36.39 12.79 36.45 12.81Z" fill="#80EDFF"/>
<path d="M39.27 15.15C39.51 13.74 40.35 15.17 41.23 14.14L40.56 13.96L40.87 13.79L40.39 13.33C39.98 13.8 40.01 13.9 39.48 14.26C39.16 13.41 39.93 13.59 40.19 12.6L39.51 11.88L39.71 11.83C39.65 11.77 39.56 11.79 39.46 11.83L37.17 9.40001C36.4 9.22001 36.45 10.35 35.43 10.56C35.85 11.12 35.92 12.35 36.97 11.64C36.81 11.73 36.51 11.9 36.47 12.1L37.55 11.8L37.59 11.29C38.67 11 39.26 12.19 38.88 12.76C38.15 12.37 37.36 13.42 37.3 12.18C37.07 12.41 36.73 12.9 36.45 12.82C37.47 13.57 37.65 14.78 39.27 15.15Z" fill="#80EDFF"/>
<path d="M31.5 5.77L31.6 5.71001C31.53 5.72001 31.49 5.75 31.5 5.77Z" fill="#80EDFF"/>
<path d="M31.62 6.19L32.97 5.91L32.33 5.23L31.6 5.71001C31.83 5.64001 32.37 5.63 32.18 5.94L31.62 6.19Z" fill="#80EDFF"/>
<path d="M33.98 6C33.4 5.84 32.59 6.48999 32.38 6.97999C31.74 6.91999 33.12 6.13001 32.08 6.54001C31.5 7.00001 32.17 7.16001 32.35 7.18001L33.98 6Z" fill="#80EDFF"/>
<path d="M35.67 9.13L35.25 9.28L35.35 9.61L35.67 9.13Z" fill="#80EDFF"/>
<path d="M35.25 9.28L35.14 8.95C34.9 9.16 34.67 9.36 34.53 9.53L35.25 9.28Z" fill="#80EDFF"/>
<path d="M34.86 8.09C34.84 7.93 34.79 7.78 34.7 7.61L34.86 8.09Z" fill="#80EDFF"/>
<path d="M34.88 8.54001L34.98 8.45L34.86 8.08C34.88 8.24 34.88 8.39001 34.88 8.54001Z" fill="#80EDFF"/>
<path d="M35.14 8.95C35.68 8.48 36.25 7.97001 35.81 7.71001L34.98 8.45L35.14 8.95Z" fill="#80EDFF"/>
<path d="M28.05 31.02L27.51 30.96L27.44 31.06L27.99 31.11L28.05 31.02Z" fill="#80EDFF"/>
<path d="M27.36 28.93C27.2 28.93 27.06 28.95 26.91 28.98C27.03 29.02 27.17 29.01 27.36 28.93Z" fill="#80EDFF"/>
<path d="M22.46 30.56C22.8 29.79 23.58 30.47 23.38 29.65C23.89 29.2 24.81 28.99 24.75 29.48C24.22 29.83 24.21 29.43 23.82 29.99C24.56 29.76 24.21 30.13 24.93 29.5C25.66 29.49 26.24 29.13 26.91 28.99C26.27 28.83 26.45 27.39 25.08 27.6C23.94 27.99 22.8 29.09 21.45 30.07C21.17 30.33 21.55 31.18 22.46 30.56Z" fill="#80EDFF"/>
<path d="M21.51 32.07C21.56 32.28 21.65 32.29 21.83 32.3C22.27 31.95 21.62 32.18 21.51 32.07Z" fill="#80EDFF"/>
<path d="M28.94 21.02C28.73 21.13 28.28 21.01 27.99 21.32L28.55 21.58C28.51 21.46 28.72 21.25 28.94 21.02Z" fill="#80EDFF"/>
<path d="M28.8 21.7L28.55 21.58C28.58 21.64 28.65 21.68 28.8 21.7Z" fill="#80EDFF"/>
<path d="M29.04 20.91L28.94 21.02C28.98 21 29.02 20.97 29.04 20.91Z" fill="#80EDFF"/>
<path d="M34.37 6.75C34.74 6.48 34.37 6.45001 34.19 6.43001C34.22 6.54001 34.19 6.74 34.37 6.75Z" fill="#80EDFF"/>
<path d="M27.2301 0.400009L27.38 0C27.26 0.2 27.2001 0.300009 27.2301 0.400009Z" fill="#80EDFF"/>
<path d="M15.36 5.45C15.29 5.5 15.22 5.53 15.15 5.56C15.21 5.54 15.28 5.51 15.36 5.45Z" fill="#80EDFF"/>
<path d="M15.15 5.56C14.76 5.68 14.94 4.96 14.39 5.19L14.54 5.10001L14.08 5.07001C14.3 5.26001 14.61 5.78 15.15 5.56Z" fill="#80EDFF"/>
<path d="M1.53003 15.46C1.41003 15.37 1.57001 15.11 1.70001 15.09C1.27001 15.03 1.57002 14.82 1.02002 15.14C0.66002 15.16 0.90999 14.75 1.23999 14.79L0.619995 14.56L0.720032 14.88C0.230032 15.1 0.57 14.36 0 14.62L0.369995 15.08L0.210022 15.15C0.440022 15.16 0.52001 15.42 0.51001 15.53C0.43001 15.57 0.32 15.65 0.25 15.58C0.61 16.19 1.13004 15.23 1.60004 15.62C1.54004 15.59 1.52003 15.55 1.53003 15.46Z" fill="#80EDFF"/>
<path d="M0.78004 16.68L1.47004 16.52L1.56001 16.96C1.75001 16.84 2.07002 16.99 2.13002 16.7C2.08002 16.69 1.98003 16.66 1.96003 16.59C2.40003 16.35 2.47002 16.91 2.82002 16.53C2.53002 16.33 2.59004 16.23 2.15004 16.28C2.02004 16.01 2.00002 15.76 2.07002 15.54C1.96002 15.51 1.70004 15.67 1.59004 15.6C1.61004 15.62 1.63004 15.63 1.65004 15.65L1.04005 16.07C1.22005 16.06 1.21004 16.18 1.28004 16.25L0.29005 16.33C-0.19995 16.85 0.400021 17.01 0.260021 17.33C0.640021 16.82 0.61004 17.35 0.78004 16.68Z" fill="#80EDFF"/>
<path d="M1.58001 15.62C1.58001 15.62 1.57001 15.61 1.58001 15.62C1.57001 15.61 1.57001 15.62 1.58001 15.62Z" fill="#80EDFF"/>
<path d="M25.19 43.3C25.26 43.38 25.42 43.31 25.5 43.27L24.85 42.31C24.71 42.45 24.69 42.86 24.47 42.74C24.35 42.94 24.67 43.09 24.91 42.98L24.62 43.08C25.09 43.09 24.56 43.66 24.28 43.64L24.3 43.66L25.93 43.46C25.84 43.18 25.38 43.56 25.19 43.3Z" fill="#80EDFF"/>
<path d="M37.73 63.5C37.59 63.41 37.52 63.44 37.47 63.49C37.55 63.5 37.63 63.51 37.73 63.5Z" fill="#80EDFF"/>
<path d="M26.3 43.4L26.81 43.34C26.66 43.33 26.48 43.36 26.3 43.4Z" fill="#80EDFF"/>
<path d="M19.59 45.94C19.57 45.95 19.55 45.96 19.53 45.99L19.78 45.95C19.72 45.94 19.66 45.94 19.59 45.94Z" fill="#80EDFF"/>
<path d="M30.65 46.82C30.67 46.83 30.69 46.85 30.72 46.87C30.7 46.84 30.67 46.83 30.65 46.82Z" fill="#80EDFF"/>
<path d="M15.67 44.79L16.32 44.97C16.11 45.03 16.3 45.2 16.03 45.25C16.08 45.26 16.25 45.37 16.31 45.27L16.24 45.19C16.9 45.08 17 44.81 17.64 44.93C17.79 44.5 17.44 44.58 17.13 44.61C17.07 44.59 17.03 44.57 16.98 44.54L16.03 44.66L15.67 44.79Z" fill="#80EDFF"/>
<path d="M30.88 59.45L30.84 59.47C30.85 59.46 30.86 59.46 30.88 59.45Z" fill="#80EDFF"/>
<path d="M30.66 59.56L30.84 59.47C30.74 59.5 30.6 59.46 30.66 59.56Z" fill="#80EDFF"/>
<path d="M25.93 43.55C26.03 43.49 26.16 43.44 26.31 43.4L25.93 43.45C25.93 43.48 25.93 43.52 25.93 43.55Z" fill="#80EDFF"/>
<path d="M24.6 43.96L24.29 43.65L23.94 43.69C24.13 43.76 24.3 43.88 24.6 43.96Z" fill="#80EDFF"/>
<path d="M30.57 46.05C31.15 46.75 29.85 46.26 29.93 46.7C30.14 46.86 30.47 46.75 30.65 46.82C30.01 46.39 31.64 46.28 31.09 45.78C31.66 45.52 31.94 45.84 31.93 46.13C31.59 46.69 31.43 46.17 30.92 46.44C31.16 46.63 31.22 46.52 31.57 46.44C31.71 46.89 32.7 46.82 32.16 47.5C32.45 47.7 32.68 47.52 33.04 47.51C33.59 47.19 33.05 46.92 33.4 46.54C33.37 46.59 33.31 46.69 33.22 46.73L33.17 46.42C33.13 46.77 32.62 46.74 32.5 46.65C32.43 46.57 32.29 46.41 32.45 46.34L32.65 46.4C32.7 46.12 32.01 46.28 32.18 45.91C32.29 45.82 32.39 45.85 32.47 45.81C31.97 45.85 31.87 45.64 31.41 45.52L32.05 45.34C31.31 45.49 31.12 44.84 31.18 44.26C31.12 44.36 31.11 44.48 30.97 44.5C30.7 44.36 30.95 43.96 31.29 43.88C30.71 43.96 31.11 42.82 30.35 42.91L26.79 43.34C26.89 43.35 26.98 43.36 27.04 43.4C26.66 43.83 26.76 43.86 26.18 43.93C26.56 43.98 26.88 43.65 27.11 43.95C26.8 43.98 26.25 44.3 26.39 44.64C27.35 45.09 28.99 44.72 30.13 44.98C29.79 45.24 30.26 45.73 30.36 46.05C29.91 46.2 29.67 46.07 29.45 45.92C29.51 46.07 29.65 46.3 29.74 46.47L30.57 46.05Z" fill="#80EDFF"/>
<path d="M28.21 45.09C28.19 45.13 28.19 45.16 28.18 45.19C28.2 45.17 28.22 45.13 28.21 45.09Z" fill="#80EDFF"/>
<path d="M29.45 45.86C29.43 45.87 29.42 45.87 29.41 45.88C29.43 45.9 29.46 45.91 29.48 45.93C29.47 45.9 29.46 45.88 29.45 45.86Z" fill="#80EDFF"/>
<path d="M25.24 44.26C25.11 44.28 25.06 44.27 24.93 44.29C24.98 44.29 25.03 44.31 25.09 44.32C25.15 44.33 25.21 44.31 25.24 44.26Z" fill="#80EDFF"/>
<path d="M25.77 43.7L25.93 43.63C25.93 43.6 25.93 43.58 25.93 43.56C25.84 43.6 25.78 43.65 25.77 43.7Z" fill="#80EDFF"/>
<path d="M29.26 51.04L29.38 51.06C29.35 51.03 29.3 51.03 29.26 51.04Z" fill="#80EDFF"/>
<path d="M30.52 47.29C30.31 47.05 29.97 47.61 29.72 47.25L29.76 47.38C29.36 47.27 29.15 46.73 28.93 46.43C29.16 46.32 29.06 46.07 29.41 45.89C29.19 45.73 28.98 45.56 28.56 45.68C28.58 45.47 28.15 45.47 28.18 45.21C28.03 45.41 27.35 45.42 27.87 45.67C27.82 45.65 27.79 45.71 27.74 45.69C27.64 46.14 28.18 45.93 28.34 46.16C28.24 46.43 27.88 46.15 27.88 46.33C28.25 46.49 28.24 47.38 28.96 46.87C29.15 47.04 29.01 47.18 28.91 47.33C29.91 47.14 29.38 48.77 30.38 48.1C30.26 48.01 30.15 47.8 29.82 47.76L30.52 47.29Z" fill="#80EDFF"/>
<path d="M25.58 44.66C25.59 44.68 25.6 44.7 25.6 44.72C25.6 44.7 25.59 44.68 25.58 44.66Z" fill="#80EDFF"/>
<path d="M26.31 39.45L27.04 39.12C27.61 39.64 27.57 39.98 27.96 40.51C27.9 40.61 27.8 40.58 27.75 40.57C28.08 40.9 28.32 41.56 28.81 41.64C28.89 41.76 28.89 42.22 28.62 42.23C28.72 42.25 28.82 42.28 28.84 42.36C28.62 42.54 28.67 42.25 28.48 42.38C28.5 42.44 28.47 42.5 28.55 42.46C28.29 42.5 27.81 43.09 27.55 42.65C27.99 42.12 27.81 42.9 28.35 42.4C28.26 42.26 28.04 42.43 27.95 42.47C27.85 42.28 28 42.19 28.15 42.1C27.92 42.16 28.03 41.76 27.68 41.85C27.4 41.53 28.15 41.57 27.99 41.34L27.29 41.62L27.16 41.17C26.58 40.77 26.15 41.96 25.39 41.56C25.77 41.43 26.14 40.82 26.07 40.44C26.21 40.6 26.82 40.65 26.79 41C27.06 40.36 27.14 41.4 27.58 40.87C27.22 40.89 27.01 40.65 27.01 40.35L27.11 40.38C27.03 40.12 26.28 40.39 26.33 39.92C26.21 39.79 26.4 39.7 26.57 39.63C26.37 39.57 26.17 39.54 26.31 39.45ZM26.65 39.69L26.72 39.93C26.79 39.81 26.74 39.74 26.65 39.69Z" fill="#80EDFF"/>
<path d="M2.7 19.39C2.7 19.36 2.70001 19.33 2.71001 19.3C2.69001 19.33 2.7 19.36 2.7 19.39Z" fill="#80EDFF"/>
<path d="M14.15 37.11L14.09 36.98C14.1 37.04 14.12 37.08 14.15 37.11Z" fill="#80EDFF"/>
<path d="M10.4 35.89L10.15 35.82C10.2 35.88 10.29 35.89 10.4 35.89Z" fill="#80EDFF"/>
<path d="M3.57001 20.79C3.59001 20.8 3.6 20.8 3.62 20.8L3.57001 20.79Z" fill="#80EDFF"/>
<path d="M8.41003 29.77C8.44003 29.71 8.47004 29.65 8.48004 29.59C8.43004 29.63 8.41003 29.7 8.41003 29.77Z" fill="#80EDFF"/>
<path d="M10.45 35.9C10.45 35.89 10.45 35.89 10.45 35.88C10.43 35.88 10.41 35.88 10.4 35.88L10.45 35.9Z" fill="#80EDFF"/>
<path d="M13.11 39.43C13.15 39.44 13.18 39.45 13.22 39.46C13.18 39.44 13.15 39.43 13.11 39.43Z" fill="#80EDFF"/>
<path d="M14.74 38.11C14.77 38.13 14.81 38.14 14.85 38.14L14.74 38.11Z" fill="#80EDFF"/>
<path d="M16.18 42.87L16.37 42.97C16.31 42.9 16.25 42.87 16.18 42.87Z" fill="#80EDFF"/>
<path d="M14.61 38.79C14.64 38.78 14.68 38.77 14.71 38.76C14.68 38.75 14.64 38.76 14.61 38.79Z" fill="#80EDFF"/>
<path d="M3.88 17.19L3.89001 17.2L3.97003 17.16L3.88 17.19Z" fill="#80EDFF"/>
<path d="M2.73999 17.41C2.68999 17.38 2.65004 17.34 2.60004 17.31C2.63004 17.37 2.67999 17.4 2.73999 17.41Z" fill="#80EDFF"/>
<path d="M7.91003 26.87C7.97003 26.77 8.01002 26.6 8.15002 26.58C7.97002 26.59 7.66003 26.8 7.91003 26.87Z" fill="#80EDFF"/>
<path d="M8.23004 15.38C8.13004 15.41 8.05002 15.42 7.96002 15.43C8.10002 15.43 8.20004 15.44 8.23004 15.38Z" fill="#80EDFF"/>
<path d="M7.97003 15.44C7.91003 15.44 7.84003 15.44 7.78003 15.45C7.83003 15.45 7.90003 15.45 7.97003 15.44Z" fill="#80EDFF"/>
<path d="M13.71 24.52C13.67 24.56 13.65 24.6 13.65 24.63C13.73 24.56 13.74 24.53 13.71 24.52Z" fill="#80EDFF"/>
<path d="M2.62 17.14C2.46 17.21 1.75 16.84 2 17.38C1.53 17.66 1.58 17.2 1.38 17.15C1.34 17.32 1.06003 17.3 0.910034 17.43C1.01003 17.46 1.19004 17.45 1.23004 17.58C1.05004 17.77 0.799988 17.7 0.799988 17.52C0.659988 17.84 0.30002 17.56 0.27002 17.91C0.75002 18.28 1.14003 18.51 2.03003 18.4C1.74003 18.2 1.39999 17.99 1.42999 17.64L1.89001 17.47C1.71001 17.95 2.07001 17.94 2.20001 18.21L2.04004 17.51C2.19004 17.03 2.39004 17.15 2.60004 17.31C2.57004 17.26 2.56 17.2 2.62 17.14Z" fill="#80EDFF"/>
<path d="M6.34003 15.21V15.19C6.32003 15.19 6.30003 15.19 6.28003 15.19L6.34003 15.21Z" fill="#80EDFF"/>
<path d="M24.15 37.53L24.33 37.48C24.24 37.48 24.19 37.5 24.15 37.53Z" fill="#80EDFF"/>
<path d="M23.39 36.31C23.4 36.3 23.41 36.3 23.43 36.29C23.41 36.3 23.4 36.31 23.39 36.31Z" fill="#80EDFF"/>
<path d="M14.67 41.66C14.65 41.67 14.64 41.69 14.62 41.7C14.66 41.71 14.67 41.69 14.67 41.66Z" fill="#80EDFF"/>
<path d="M23.35 36.34C23.36 36.33 23.37 36.32 23.39 36.32C23.38 36.32 23.36 36.33 23.35 36.34Z" fill="#80EDFF"/>
<path d="M18.04 31.49C18.04 31.49 17.98 31.55 17.94 31.63C17.98 31.62 18.02 31.58 18.04 31.49Z" fill="#80EDFF"/>
<path d="M18.22 33.03C18.21 33.05 18.2 33.06 18.19 33.08L18.22 33.03Z" fill="#80EDFF"/>
<path d="M6.31 28.33C6.34 28.39 6.38004 28.43 6.42004 28.45C6.41004 28.4 6.38 28.36 6.31 28.33Z" fill="#80EDFF"/>
<path d="M23.43 36.3C23.48 36.28 23.53 36.27 23.61 36.27C23.53 36.27 23.47 36.28 23.43 36.3Z" fill="#80EDFF"/>
<path d="M14.88 31.07C14.9 31.07 14.93 31.07 14.95 31.08C14.95 31.07 14.95 31.06 14.96 31.05L14.88 31.07Z" fill="#80EDFF"/>
<path d="M14.78 30.28C14.84 30.27 14.89 30.25 14.94 30.23C14.63 30.13 14.55 29.62 14.1 29.85C14.16 29.92 14.16 30.46 13.87 30.55C14.07 30.63 13.93 31.04 14.05 31.08C14.12 30.68 14.39 30.82 14.64 30.89C14.62 31.12 14.28 31.09 14.29 31.27L14.57 31.59L14.42 31.25L14.89 31.07C14.87 31.07 14.86 31.07 14.83 31.06C14.3 30.68 15.39 30.63 14.78 30.28Z" fill="#80EDFF"/>
<path d="M14.94 30.24C14.99 30.26 15.04 30.26 15.09 30.26C15.05 30.21 15 30.22 14.94 30.24Z" fill="#80EDFF"/>
<path d="M14.21 27.7C14.18 27.68 14.14 27.67 14.09 27.65C14.12 27.66 14.16 27.69 14.21 27.7Z" fill="#80EDFF"/>
<path d="M23.83 43.39C23.94 43.3 23.99 42.84 23.68 43.05C23.71 43.16 23.73 43.27 23.76 43.38L23.83 43.39Z" fill="#80EDFF"/>
<path d="M8.62 23.21C8.63 23.25 8.64999 23.28 8.67999 23.31C8.69999 23.31 8.71999 23.3 8.73999 23.3C8.76999 23.26 8.67 23.23 8.62 23.21Z" fill="#80EDFF"/>
<path d="M13.66 30.56C13.74 30.58 13.81 30.57 13.87 30.55C13.82 30.54 13.76 30.53 13.66 30.56Z" fill="#80EDFF"/>
<path d="M9.35004 22.7C9.41004 22.6 9.5 22.45 9.62 22.36C9.57 22.27 9.36 22.32 9.25 22.27C9.35 22.34 9.40004 22.48 9.35004 22.7Z" fill="#80EDFF"/>
<path d="M23.82 43.66C23.86 43.67 23.9 43.68 23.94 43.7L23.83 43.71C23.85 43.8 23.86 43.89 23.87 43.98C23.91 43.99 23.94 44.01 23.98 44.03C23.96 44.02 23.92 44.04 23.88 44.05C23.88 44.08 23.89 44.11 23.89 44.14C24.32 44.09 24.83 44.34 25.09 44.33C25.33 44.39 25.54 44.53 25.59 44.67C25.52 44.56 25.36 44.45 25.21 44.61C25.17 44.96 24.71 45.42 25.43 45.5L25.27 45.28L26.3 45.33C26.13 45.7 25.79 45.3 25.49 45.4C26.09 45.57 25.4 46.5 26.12 46.29C25.78 46.55 25.22 46.99 25.43 47.23C25.71 46.77 25.79 47.21 26.12 46.77C26.38 46.72 26.19 47.15 26.46 46.98L26.3 47.05C26.03 47.87 27.01 47.43 27.43 47.43C27.93 47.87 27.86 48.26 28.21 48.66C27.98 48.83 27.41 49.39 27.55 49.54C27.93 49.41 28.33 49.7 28.77 49.47C28.73 49.04 28.26 49.45 28.04 49.32C28.37 48.88 28.46 49.02 28.57 48.64C28.52 48.92 29.31 49.26 29.03 49.72L28.93 49.69C28.88 50.15 27.9 50.89 28.85 50.97L29.26 51.04C29.21 51.06 29.16 51.09 29.12 51.1C29.34 51.52 28.8 51.72 29.45 51.91C29.4 51.9 29.37 51.95 29.32 51.93C29.25 52.33 29.88 52.27 30.1 52.39C29.83 52.73 29.74 52.59 29.45 52.68C29.6 53.2 30.5 53.27 31.1 53.26L31.08 53.67C30.83 53.6 30.33 53.64 30.16 53.83C30.33 53.94 30.47 53.8 30.55 54.06C30.31 54.17 30.04 54.21 29.7 54.3C29.63 54.99 30.54 53.88 30.08 54.64C30.17 54.78 30.54 54.65 30.82 54.49L30.64 54.97C31 54.77 31.22 55.07 31.41 55.25C31.57 55.18 31.66 54.85 31.48 54.85C31.76 54.69 32.03 54.82 32.11 54.97C31.44 55.49 32.82 55.82 31.88 56.21C32.53 56.69 33.19 57.53 33.77 57.75C33.67 58.02 33.84 58.3 33.4 58.36C33.74 58.87 34.64 58.65 34.78 59.28C34.72 59.38 34.62 59.06 34.4 59.23C34.9 59.37 34.5 60.03 35.03 60.42C34.96 60.34 34.8 60.41 34.72 60.45C34.83 60.36 35.1 60.5 35.31 60.55C35.3 60.66 35.16 60.51 35.1 60.61C35.41 61.83 36.88 61.94 37.5 62.94C37.32 62.65 36.78 62.86 36.59 62.98L36.76 63.26C37.06 63.21 37.2 63.42 37.49 63.47C37.42 63.55 37.38 63.7 37.21 63.68C37.1 64.54 38.63 63.96 38.83 64.79L37.35 64.61L37.15 65.03L36.48 64.96C36.36 65.34 37.08 65.13 36.74 65.39C36.61 65.41 36.57 65.28 36.38 65.41C36.38 65.71 36.65 65.55 36.82 65.65C35.83 65.73 35.31 64.93 34.86 64.62C34.76 64.59 35.07 64.56 35.15 64.52C35.01 64.36 35.17 64.11 34.9 63.97C34.5 64.04 34.74 64.22 34.78 64.35C34.5 64.51 34.48 64.45 34.37 64.35C34.71 64.09 34.06 63.61 34.39 63.17C33.85 62.6 33.54 63.88 33.28 63.16L33.56 62.7C33.01 62.55 32.42 62.26 32.23 61.79L32.3 61.87C32.51 61.81 32.56 61.65 32.62 61.54C32.59 61.11 31.91 61.16 32.19 60.71C31.52 60.64 30.81 60.27 30.32 60.01C30.78 59.55 31.12 60.24 31.57 60.18L31.32 59.81C31.48 60.03 31.74 59.99 32.14 59.92C32.02 59.53 31.49 59.74 31.15 59.52C31.31 59.45 31.37 59.35 31.28 59.2L30.9 59.4C30.93 59.38 30.94 59.34 30.94 59.29L30.36 58.89C30.28 59.11 29.98 59.32 30.07 59.46C30.24 59.27 30.36 59.36 30.45 59.51C30.14 59.54 30.35 59.78 30.15 59.9C29.97 59.61 29.69 59.3 29.47 59.18L29.76 58.9C29.66 58.58 29.29 58.41 29.27 58.17L29.48 58.11C29.37 57.72 28.94 57.54 29.07 57.05C28.51 57.01 27.95 56.86 27.41 56.88C26.9 57.03 27.38 55.68 26.57 55.75C26.6 55.7 27.04 55.76 27.27 55.77C27.19 55.51 26.55 55.69 26.95 55.33C27.12 55.91 27.29 55.07 27.56 55.2C27.4 54.98 27.16 54.79 26.93 54.79C27.18 55.15 26.23 55.07 26.67 55.31C26.11 55.27 25.69 54.98 25.61 54.54C25.8 54.42 25.87 54.31 25.86 54.13L25.51 54.21C25.45 54.02 26.05 54.3 25.93 53.91C25.23 53.89 25.53 52.73 24.56 53.17C24.74 52.69 25.23 53.42 25.4 52.75C25.87 52.76 25.71 53.31 26.19 53.09C25.92 52.96 26.51 52.76 26.42 52.62L25.99 52.56L26.01 52.62C25.32 52.49 25.09 51.71 24.68 51.24C23.94 51.09 23.1 51.21 22.8 50.65C23.16 50.63 22.76 50.04 23.45 50.06C23.52 49.66 23.08 49.6 22.89 49.72C22.97 49.98 22.88 49.84 22.91 50.08C22.6 50.11 22.42 49.82 22.49 49.61C22.51 49.67 22.54 49.62 22.62 49.59C22.61 49.23 22.31 49.62 22.09 49.5C22.38 49.22 21.9 49.03 21.96 48.75L21.33 48.81C21.72 48.74 21.28 48.5 21.54 48.27C21.21 48.24 20.73 48.34 20.64 48.02C20.87 48.03 20.71 47.62 21.01 47.41C21 46.75 19.66 47.21 19.81 46.48C19.89 46.45 20.15 46.4 20.15 46.22C20 46.18 19.92 45.98 19.81 45.89H19.82H19.81C19.76 45.85 19.7 45.84 19.62 45.89C19.2 45.91 18.82 46.02 18.33 45.83C17.99 46.09 18.33 46.31 18.54 46.36L18.97 46.24C18.51 46.7 19.28 46.5 19.15 46.71C18.38 46.91 18.12 46.18 17.48 46.06C17.14 46.62 17.39 47.16 17.74 47.56L17.83 47.23L17.99 47.45L18.22 46.98C18.3 47.24 18.52 47.36 18.62 47.57C18.46 47.35 18.89 46.93 18.9 47.11C18.72 47.59 19.3 47.22 19.41 47.43C19.37 47.3 19.28 47.16 19.55 47.11C19.38 47.77 19.72 47.69 19.5 48.34C20.06 47.9 19.85 48.73 20.37 48.46L20.31 48.27L20.89 48.37C20.62 49.01 20.21 48.42 20.19 49.12C20.43 49.6 21.04 49.18 21.32 49.5C20.89 49.62 20.41 49.54 20.23 49.25L20.17 49.53C19.91 49.57 19.69 49.16 19.58 48.95C20.19 49 19.6 48.72 19.82 48.36C19.46 48.56 19.65 48.73 19.22 48.67C19.38 48.89 19.43 48.91 19.49 49.28C19.23 48.55 17.94 49.5 17.86 48.76C18.18 48.91 18.29 48.35 18.43 48.21C18.31 48.12 18.07 47.93 17.92 47.89L17.49 48.3C17.07 48.12 18.03 47.32 17.28 47.29C16.96 47.44 17.4 47.68 17.3 47.65C16.66 47.35 17.33 46.65 17.4 45.96C17.24 46.03 16.93 46.24 16.57 46.26C16.9 46.11 16.97 45.9 17.3 45.93C17.32 45.7 16.99 45.66 16.79 45.61C16.82 46.03 16.28 45.76 16.07 45.82C16.01 45.63 16.4 45.67 16.55 45.72C16.54 45.54 16.87 45.1 16.38 45.32C16.69 45.11 17.43 45.14 17.67 45.33L17.61 45.14C17.84 45.15 17.81 45.2 17.87 45.39C18.01 45.07 18.28 44.91 18.52 44.8C18.49 44.85 18.44 44.84 18.41 44.89C18.42 45.07 18.57 45.11 18.71 44.97C19.2 44.81 18.85 44.62 19 44.39C18.93 44.34 18.86 44.29 18.79 44.25L17.01 44.47C16.66 44.29 16.9 43.95 16.96 43.6L16.56 43.78C16.43 43.51 16.39 43.2 16.94 43.06C16.83 43.15 16.88 43.16 16.9 43.23C16.95 43.21 17 43.19 17.03 43.19C17.05 43.18 17.08 43.17 17.1 43.16C16.81 42.97 16.62 42.85 16.6 42.85C17.42 42.96 17.26 42.44 17.94 42.1L17.43 41.78C17.41 42.19 17.12 41.99 16.97 41.95C17.31 41.69 16.72 41.58 16.66 41.39L16.74 41.35C16.76 41.12 16.56 40.88 16.34 40.76C16.23 40.85 15.49 41 15.06 41.12C15.14 41.53 14.87 41.43 14.67 41.61C14.67 41.56 14.63 41.5 14.58 41.52C14.45 41.54 14.49 41.67 14.37 41.76C14.76 41.99 15.04 42.3 15.63 42.11C15.79 41.86 15.3 42.08 15.37 41.86C15.82 41.81 15.89 42.07 16.07 42.35L15.83 42.64L16.18 42.82C15.94 42.81 15.68 43.08 15.42 42.83C15.16 43.05 15.68 43.08 15.71 43.33L16.17 43.16C15.93 43.27 16.14 43.69 15.66 43.61L15.04 43.38L14.85 43.68L14.52 43.35L14.78 43.3C14.1 42.87 15.45 42.6 14.57 42.29C13.96 42.42 13.77 42.24 13.64 41.79C13.93 41.99 14 41.59 14.34 41.51C14.36 41.1 13.9 41.27 13.62 41.25C13.83 41.01 14 40.82 14.13 41.1C14.68 40.78 13.82 40.83 14.35 40.45C13.79 39.64 12.15 40.96 12.19 39.55L12.43 39.44C11.75 39.01 11.78 38.49 11.23 38.04L11.49 37.22C11.64 37.26 12.24 37.25 12.42 36.95C12 37.54 12.35 37.64 12.2 38.08C12.36 38.01 12.41 37.84 12.47 37.74C12.56 37.88 12.35 38.12 12.57 38.24C12.68 38.15 12.69 37.86 12.86 37.96L12.68 38.44C13.07 38.67 13.62 38.05 13.73 38.56C13.37 38.69 12.82 38.84 12.64 38.74C12.69 38.97 12.29 38.62 12.22 38.91C12.85 38.87 12.57 39.23 13.09 39.39C13 39.39 12.9 39.44 12.82 39.37L12.96 40C13.15 39.7 13.53 40.22 13.9 39.91C13.71 39.26 13.57 39.58 13.39 38.82C13.6 38.93 14.15 38.89 14.6 38.74C14.59 38.76 14.58 38.77 14.59 38.8C15.05 38.63 15.09 38.46 15.78 38.01C15.1 38.06 15.38 37.6 14.88 37.46C14.46 37.65 14.52 37.97 14.73 38.07L14.29 37.95L14.5 37.89L14.14 37.07C14.25 37.2 14.5 37.1 14.72 37.06C14.67 36.95 14.71 36.79 14.75 36.62C14.4 36.88 14.14 37.04 14.08 36.94C13.85 36.41 14 35.93 14.3 35.48C14.28 35.47 14.26 35.45 14.24 35.44C13.92 35.77 13.35 35.55 12.87 35.65C13.26 35.4 12.94 35.25 13.04 34.99C12.55 35.21 12.01 35.71 11.76 36.12C12.37 36.17 12.28 36.03 12.96 35.8L13.68 36.06L13.25 36.18C13.27 36.54 13.89 36.48 13.42 36.76C13.03 36.83 13.06 36.48 12.67 36.55L12.62 36.83C11.97 36.83 12.95 36.39 12.4 36.23C12.1 36.62 12.35 36.22 11.99 36.23C11.8 36.53 12.53 36.8 11.79 37.13C11.38 37.13 12.14 35.98 11.32 36.17L11.4 36.13C11.24 35.7 10.78 35.83 10.45 35.84C10.56 35.54 10.11 35.52 9.98004 35.37L10.17 35.25L9.92999 35.06C10.36 34.94 10.11 35.35 10.3 35.52L10.64 35.26C10.38 35.78 11.12 35.51 11.55 35.49C11.06 35.43 11.13 34.68 10.4 35.08L10.65 34.67L10.47 34.68C10.66 34.38 11.17 34.22 11.4 34.41C11.34 34.51 11.31 34.56 11.22 34.6C11.45 34.61 11.8 34.52 11.89 34.85L11.61 34.83C11.81 35.18 12.15 35.4 12.57 35.28C12.4 34.7 12.11 34.2 11.79 33.76C10.9 34.16 10.34 34.3 9.54999 34.73C9.20999 34.52 8.82999 34.17 8.92999 33.72L9.09003 33.65C9.08003 33.47 8.96 33.38 8.81 33.33C8.92 33.06 9.27 33.16 9.31 32.99L8.77002 32.72C9.13002 32.52 9.37001 32.89 9.51001 33.05C9.46001 33.04 9.36002 33.01 9.33002 33.06C9.33002 33.36 10.15 33.35 9.72003 33.76C9.87003 33.8 9.23004 33.8 9.42004 34.15C9.38004 34.5 9.87004 34.28 10.04 34.2C10.23 34.08 10.07 33.67 10.38 33.64C10.24 33.48 9.95004 33.58 9.98004 33.23C10.12 33.39 10.66 33.36 10.43 33.65C11.01 33.75 11.88 33.11 11.83 32.91C11.57 33.14 11.07 32.52 11 33.21C10.5 33.25 10.26 32.88 9.85004 32.77L9.92999 32.73L9.62 32.46C9.75 32.44 9.90004 32.48 10.1 32.36L9.28003 32.25C9.80003 32.27 9.40999 31.93 9.48999 31.71C9.15999 31.86 8.83003 31.82 8.78003 32.1C8.69003 32.43 9.01002 32.11 9.15002 32.26L8.52002 32.32L8.54999 32.27L8.07001 32.37C7.87001 32.02 9.05001 31.93 8.39001 31.75L7.91003 32.15C7.66003 31.6 7.81003 30.58 7.34003 30.39C7.70003 30.29 8.20001 30.02 8.39001 29.7C8.40001 29.91 8.62001 30.2 8.82001 30.39C8.76001 30.49 8.03004 30.52 7.98004 30.22C7.21004 30.9 8.87999 30.47 8.04999 31.07C8.14999 31.87 9.17001 30.97 9.01001 31.81C9.40001 31.56 9.29002 31.83 9.65002 31.63C10.17 31.06 9.18004 30.96 9.17004 30.49C9.22004 30.5 9.32002 30.53 9.40002 30.5C9.36002 30.19 9.21001 30.15 8.95001 30.08L8.92004 30.13C8.35004 30.09 9.09001 29.76 9.14001 29.48C9.04001 29.45 8.98999 29.14 8.73999 29.37L8.90002 28.82L8.48004 29.12C8.34004 28.96 8.60004 28.74 8.23004 28.75L7.84003 29L7.98999 29.52C7.71999 29.38 7.58003 29.7 7.34003 29.52C7.94003 29.51 7.43001 29.19 7.76001 28.93L7.42999 28.9L7.56 28.88C7.66 28.61 7.31 28.81 7.25 28.61C7.16 28.94 6.98003 29.25 7.41003 29.31C7.08003 29.28 6.61004 29.08 6.54004 29.01C6.26004 28.93 6.46001 28.61 6.39001 28.4C6.77001 28.63 7.47001 27.51 7.64001 28.36C7.56001 28.4 7.54001 28.33 7.57001 28.28C7.14001 28.69 7.87002 28.66 8.15002 28.68C8.41002 28.46 8.58 28.56 8.56 28.2C8.44 28.4 7.78999 28.4 7.85999 28L8.48999 27.64L8.32001 27.24L8.37 27.25C8.67 26.86 8.03999 26.92 8.10999 26.52C7.77999 26.49 7.5 25.69 7.06 26.4C7.29 25.93 6.68 26.06 6.44 25.87L6.39001 26.33C5.72001 26.26 6.07001 26.18 5.20001 26.35C5.35001 26.21 5.44002 26.06 5.65002 26C5.37002 25.5 5.08003 24.71 4.41003 24.76C4.21003 24.41 4.88999 23.88 4.29999 23.6C4.14999 23.56 3.79 24.05 3.75 23.63C3.78 23.58 4.4 23.63 4.12 23.32C3.49 23.38 3.99 22.57 3.38 22.52C3.43 22.24 3.18002 21.99 3.58002 21.81C3.68002 22.13 4.00003 22.46 4.22003 22.4C3.97003 22.51 4.13002 22.73 3.83002 22.65C3.82002 23.24 4.23004 22.76 4.29004 23.25C4.45004 23.18 4.57001 22.79 4.39001 22.8C4.89001 22.47 5.10999 23.36 5.48999 22.63C5.26999 22.21 4.15002 22.79 4.46002 22.1C4.85002 22.03 4.74 22.42 5.38 22.24L5.40002 21.83L4.90002 21.87L4.98004 21.83C5.11004 21.04 4.16 21.72 3.62 21.45C3.44 21.93 2.71 21.97 2.63 22.3C2.37 22.05 2.30004 21.79 2.79004 21.46C3.56004 21.74 3.33999 21.14 4.17999 21.31C4.29999 21.11 4.99004 20.94 4.85004 20.6C4.27004 20.5 4.49999 20.98 4.10999 20.75C4.13999 20.7 4.17 20.65 4.25 20.61C3.89 20.63 4.22 20.37 3.81 20.37L3.94 20.35C4.09 19.92 3.43 20.32 3.62 19.9C3.3 20.23 3.23003 19.97 2.91003 20C2.90003 20.3 2.43999 20.76 2.73999 21.14C3.06999 20.99 3.21002 20.86 3.46002 20.93L3.25 20.69C3.34 20.71 3.44003 20.71 3.53003 20.72L3.54004 21.07C3.12004 20.89 2.90001 21.25 2.51001 21.32C2.45001 20.94 2.26999 21.13 2.23999 20.89C2.67999 20.62 2.60003 19.84 2.66003 19.32C2.68003 19.38 2.73 19.44 2.75 19.49C3.18 19.55 2.99999 19.08 3.10999 19L2.78003 18.97C2.83003 18.98 2.96003 18.96 2.97003 18.85C2.73003 18.66 2.31001 18.96 2.07001 18.78C2.30001 18.6 2.79001 18.57 2.82001 18.34C2.99001 18.15 3.43001 17.62 3.01001 17.44C2.90001 17.48 2.80001 17.43 2.70001 17.36C2.72001 17.36 2.74001 17.37 2.76001 17.37L2.88 16.99C3.4 16.9 2.93002 17.48 3.46002 17.39L3.85004 17.15C3.95004 17.29 4.24 17.37 4.5 17.33C4.42 17.07 4.28999 17.09 4.04999 16.91C4.26999 16.71 4.55999 16.76 4.60999 16.77L4.37 16.88C4.24 17.38 5.02 17.06 5.19 17.47C5.21 17.53 5.16002 17.52 5.08002 17.56C5.64002 17.6 5.32 18.22 6 18.18L5.73999 18.22C6.02999 18.3 6.66002 18.42 7.27002 18.55L7.42004 18.45C7.48004 18.35 7.57 18.49 7.56 18.61C7.87 18.68 8.16 18.74 8.38 18.81C8.44 18.7 8.48001 18.59 8.45001 18.51C8.24001 18.57 8.15003 18.13 7.78003 18.44C7.92003 18.12 7.40003 18.1 7.47003 17.88C7.35003 18.26 7 17.98 6.75 18.09C6.95 17.85 6.52 17.79 6.88 17.59C6.94 17.49 6.71999 17.84 6.98999 17.8C7.44999 17.81 7.00004 17.21 7.48004 17.29C7.01004 17.1 6.8 16.57 6.25 16.41V16.7C6.19 16.51 5.86001 16.18 6.01001 16.04C6.13001 16.13 6.22001 16.28 6.39001 16.38C6.78001 16.13 6.14 16.01 6.37 15.84L5.44 15.82L5.54999 16.03C5.23999 16.06 5.25004 15.47 5.10004 15.13C5.74004 14.95 5.42003 15.58 5.84003 15.75C6.19003 15.85 6.25002 15.27 6.52002 15.41C6.60002 15.27 6.50001 15.14 6.32001 15.16L6.35999 15.01C6.96999 14.89 7.15 15.4 7.75 15.41C7.68 15.42 7.60999 15.43 7.54999 15.46C7.50999 15.81 7.67 16.03 7.94 16.16C8.01 15.94 7.88003 15.97 7.78003 15.94C7.89003 15.85 8.08001 16.03 8.26001 16.02C8.26001 15.72 8.52001 15.8 8.51001 15.61C8.71001 15.67 8.75 15.8 8.81 15.99C8.69 16.19 8.52004 16.09 8.29004 16.26C8.54004 16.33 8.03002 16.78 8.46002 16.84C8.34002 16.45 9.03001 16.58 9.26001 16.59L9.23999 16.52C9.57999 16.44 9.65001 16.52 9.45001 16.76C9.25001 16.7 9.23999 16.52 8.98999 16.75C9.05999 16.83 9.13003 16.91 9.28003 16.95L9.02002 17L9.37 17.39C9.66 17.29 10.09 17.18 10.5 16.99C10.34 17.24 10.63 17.26 10.78 17.31L10.65 17.33C10.57 17.66 11.03 17.97 11.27 17.86C11.17 18.13 9.23002 17.82 10.08 18.65C10.33 19.02 10.93 18.41 11.31 18.46C11.31 18.46 11.23 18.5 11.2 18.55C11.26 18.74 11.53 18.58 11.73 18.64C11.77 18.47 11.68 18.33 11.55 18.35C11.88 18.2 11.75 18.7 12.06 18.67C11.5 18.81 12.09 19.1 11.78 19.13C11.7 19.64 12.29 19.75 12.73 19.69C12.31 20.28 13.06 20.02 13.03 20.55C13.01 20.48 12.86 20.44 12.87 20.33C12.38 20.37 12.92 20.82 12.39 20.73C12.49 20.76 12.58 20.61 12.48 20.58C12.36 20.49 12.13 20.48 11.98 20.62L11.85 21.12L11.7 21.08L11.55 21.81C11.63 21.77 11.69 21.67 11.72 21.62C11.86 22.25 12.49 22.67 12.73 23.15C13.8 22.56 13.89 23.95 14.75 23.89C14.4 23.99 13.85 24.28 13.68 24.48C13.58 24.43 13.07 24.54 13.03 24.3C13.17 24.16 13.21 23.82 13.49 23.84C13.04 23.42 13.09 24.2 12.61 24.31C13.08 24.8 13.89 24.73 14.36 24.92L14.25 25.01L14.65 25.12C14.57 24.86 15.16 24.49 15.14 24.9L15.09 24.89C14.95 25.21 15.46 25.35 15.58 25.62L16.02 25.57C16.15 25.84 15.54 26.27 15.22 26.59C15.44 27.01 16.09 26.89 16.58 26.97C16.39 27.27 16.72 27.9 16.18 27.81C16.65 28 18.05 26.97 17.65 28.1L17.29 28.12C17.73 28.66 18.79 29.13 18.69 29.58C17.61 29.99 18.22 30.93 17.37 31.64C17.56 31.47 17.77 31.64 17.91 31.6C17.83 31.72 17.78 31.87 18.03 31.82C18.07 31.47 19.09 31.34 18.43 31.16C19.2 30.96 19.88 30.91 20.17 31.41L19.78 31.66L19.65 31.21C19.39 31.44 19.29 31.23 19.1 31.24C19.35 32.08 18.14 31.74 18.67 32.43C18.96 32.33 18.83 32.36 19.05 32.48C18.98 32.4 18.71 32.56 18.79 32.7L19.19 32.63C18.72 33.3 18.5 32.49 18.19 33C17.71 32.92 17.23 32.55 16.8 32.97C16.92 33.54 17.98 32.77 18.08 33.39L17.91 33.58C18.16 33.65 18.52 33.45 18.78 33.41C18.67 33.5 18.61 33.6 18.64 33.73C19.32 33.68 19.54 33.8 20.25 33.71C19.39 33.29 20.23 32.87 19.4 32.4C19.63 32.41 20.08 32.83 20.63 32.51L20.24 32.76C20.59 32.86 20.94 32.96 21.01 33.33L20.68 33.3C21.2 33.51 20.52 34.32 21.36 34.2C21.32 34.07 21.25 33.99 21.15 33.96C21.45 34.04 21.58 34.32 21.66 34.58L22.59 34.6C22.4 34.72 22.57 35.01 22.18 35.08C22.1 35.59 22.77 35.37 22.99 35.49C22.8 36.09 22.62 35.33 22.07 35.65C22.19 36.22 22.67 36.59 23.19 36.62C23.21 36.48 23.24 36.39 23.34 36.33C23.23 36.42 23.38 36.59 23.44 36.69L23.74 36.59C23.68 36.87 23.52 36.94 23.24 36.93C23.3 37.12 23.91 37 23.66 37.4C23.18 37.32 23.2 36.8 22.92 36.78C23.55 37.19 22.55 37.86 23.35 38.38C23.24 38.47 22.92 38.5 23.01 38.64C23.32 38.91 23.58 38.38 23.92 38.3C23.6 38.15 23.67 37.93 23.89 37.58L24.14 37.51C24.04 37.59 24.14 37.75 24.07 37.87L24.51 37.64C24.04 37.92 23.86 38.41 24.17 38.49C24.37 38.07 24.39 38.14 24.87 37.74C25.55 37.69 24.6 38.38 25.32 38.34C25.16 38.41 24.87 38.21 24.91 38.52C25.02 38.73 25.36 38.47 25.56 38.52C25.08 38.62 24.83 38.85 24.27 38.99C23.99 38.68 24.18 38.85 23.79 38.62L23.66 39.12C23.4 38.87 23.08 39.2 22.92 39.27C22.87 40.03 23.75 39.26 23.86 39.65C24.22 39.63 23.71 39.31 24.15 39.37C24.3 39.71 24.44 39.27 24.83 39.5L24.62 39.56C24.46 39.81 24.81 39.73 24.93 39.83C25.13 39.89 26.15 38.8 26.54 39.33C26.42 39.37 26.34 39.41 26.3 39.44L22.76 41.03C23.13 41.57 23.47 42.27 23.67 43.04C23.15 43.6 22.85 42.93 22.6 43.15L22.53 42.78C22.81 42.62 23.02 43.33 23.31 42.76C22.78 42.37 22.93 41.94 22.06 41.82C21.54 42.39 22.6 42.39 22.32 43.02C22.27 42.86 22.13 42.79 21.97 42.74C22.09 43.09 22.21 43.46 22.34 43.87L22.54 43.85C22.46 43.58 22.41 43.38 22.42 43.35C22.57 43.69 23.08 43.71 23.55 43.43L23.53 43.37L23.74 43.38C23.78 43.48 23.8 43.57 23.82 43.66ZM36.72 63.28C36.66 63.29 36.6 63.31 36.53 63.34C36.6 63.31 36.64 63.27 36.72 63.28ZM18.36 38.77C18.56 39.22 18.71 39.71 18.91 40.13C19.35 38.83 19.71 37.89 20.46 39.06L20.58 39.09C20.59 38.86 20.43 38.59 20.2 38.39C19.75 38.4 18.14 38.54 18.04 38.62C17.83 38.86 18.18 38.78 18.19 38.96L18.36 38.77ZM19.68 37.48C19.63 37.19 19.46 37.37 19.26 37.45C19.34 37.51 19.41 37.58 19.49 37.64C19.51 37.59 19.57 37.53 19.68 37.48ZM19.09 37.59C19.1 37.62 19.11 37.65 19.09 37.67V37.59ZM21.81 42.17C21.8 42.16 21.79 42.16 21.78 42.15C21.8 42.21 21.82 42.28 21.85 42.34C21.86 42.31 21.86 42.25 21.81 42.17ZM21.94 41.42L21.57 41.59C21.59 41.65 21.61 41.71 21.63 41.77C21.78 41.64 21.9 41.54 21.94 41.42ZM22.04 39.21C21.58 39.38 21.36 39.08 20.89 39.36C20.76 39.42 20.76 39.51 20.77 39.61C20.81 39.7 20.86 39.8 20.91 39.9C20.98 39.86 21.05 39.84 21.13 39.83C21.13 39.7 21.2 39.56 21.5 39.41C21.05 40.05 22.08 39.33 22.09 39.69C22.47 39.56 22.22 39.2 22.04 39.21ZM7.71002 20.24C7.75002 20.21 7.82999 20.11 7.92999 19.99L8.28003 20.02C8.40003 20.41 7.91004 21.1 8.67004 21.02C8.62004 21.25 8.37004 21.52 8.17004 21.76C8.14004 21.68 8.13 21.6 8.13 21.53C6.75 21.26 8.71002 20.53 7.71002 20.24ZM9.37 24.49C9.32 24.48 9.23999 24.51 9.23999 24.51C10.56 24.67 11.2 25.11 11.42 25.52C11.7 25.22 11.73 24.7 11.75 24.45L12.23 24.34L11.99 24.63L12.5 24.66C12.71 24.42 12.52 24.25 12.62 23.98C12.54 24.02 11.81 23.87 11.49 23.9L11.46 24.43C11.5 24.26 11.1 23.86 10.88 23.73C10.69 23.85 10.61 24.37 11.05 24.13C10.79 24.36 10.55 23.99 10.4 24.42C9.92002 24.34 9.88 23.74 9.88 23.44L10.33 23.09C10.37 22.74 9.66001 23.32 9.76001 22.87C10.07 23.13 10.24 22.47 10.45 22.71C10.57 22.51 10.95 22.38 10.74 22.14C9.96999 22.34 10.95 21.6 10.26 21.77C10.36 21.5 10.73 21.67 10.64 21.34C10.11 21.25 9.88003 21.43 9.41003 21.71C9.47003 22.08 10.22 21.64 10.26 21.95L9.17004 22C9.12004 22.16 9.15003 22.23 9.22003 22.26C9.11003 22.2 8.93999 22.19 8.73999 22.23C8.61999 22.25 8.52 22.27 8.44 22.28C8.61 22.55 8.76003 22.79 8.59003 22.96L8.34003 23.07C8.20003 23.3 8.46004 23.35 8.67004 23.31C8.85004 23.53 9.32001 23.57 9.07001 23.81L8.81 23.85C9.07 24.11 9.12 24.13 9.37 24.49ZM15.25 34.43C15.94 33.71 16.53 33.04 15.84 32.31L15.94 32.34C16.17 31.58 14.73 31.97 14.95 31.09C15.42 31.13 15.38 31.14 16.26 30.95L15.86 30.84C16.35 30.62 15.95 30.51 15.84 30.3L16.48 30.12C16.41 30.34 16.55 30.67 16.67 30.59C16.57 30.56 16.27 31.43 16.59 31.58C16.93 31.32 16.43 30.88 17.17 30.73C16.79 30.68 17.12 30.42 16.85 30.28C17.23 30.33 17.37 30.01 17.73 29.99L17.37 29.71C17.48 29.62 17.98 30.06 18.22 29.47C17.94 29.45 17.92 28.91 17.53 29.16L17.64 29.07C17.54 28.75 17.02 29.31 17.02 28.84C16.82 28.96 16.73 29.12 16.85 29.21C17 29.25 17.28 29.09 17.47 29.26C17.23 29.55 17.34 28.99 16.93 29.47C16.73 29.71 17.51 29.87 16.84 30.1L16.74 29.78C16.35 30.03 16.24 29.82 15.94 30.03C15.69 29.96 16.02 29.52 15.57 29.57C15.28 29.67 14.9 30.09 14.91 29.68C15.33 29.09 14.8 28.52 14.56 28.33L14.18 28.28C13.96 28.45 14.48 28.66 14.08 28.73L13.77 28.46L13.93 28.39C13.89 28.26 13.66 28.25 13.51 28.21C13.85 28.13 13.9 28.44 14.27 28.13C14.25 27.92 14.38 27.8 14.21 27.71C14.26 27.72 14.32 27.72 14.37 27.68C14.34 27.25 13.72 27.68 13.54 27.69C12.81 27.72 13.27 28.33 12.83 28.56L12 27.79C12.18 27.78 12.36 27.77 12.51 27.64C12.55 27.29 12.82 27.43 12.59 27.13C12.06 27.52 11.99 26.96 11.52 26.95C11.67 26.7 11.71 26.65 11.86 26.87C12.2 26.61 11.86 26.39 11.82 26.26C11.69 26.26 11.57 26.18 11.44 26.17C11.32 26.38 11.08 26.49 10.79 26.39L10.71 26.43C10.83 26.82 10.77 27.58 11.27 27.54L11.06 27.6C11 28.18 12.24 27.99 11.68 28.61C11.4 28.77 11.67 28.73 11.28 28.97L11.76 29.05L11.55 29.11L11.95 29.52L11.87 29.56C12.36 29.55 12.76 29.54 13.09 29.52C13.26 29.41 13.3 29.36 13.47 29.35C13.6 29.37 13.65 29.42 13.66 29.48C13.69 29.63 13.5 29.86 13.49 30.07L13.16 29.66C12.85 29.81 12.58 30.05 12.53 30.39C12.46 30.31 12.22 30.42 12.25 30.55C12.33 30.51 12.62 30.71 12.78 30.46C13.16 30.8 12.86 31.97 13.81 32.23C13.19 32 13.67 32.84 13.22 32.42C13 33.07 13.87 32.42 14.03 32.83C13.89 32.97 13.92 32.62 13.55 32.75C13.76 33.46 14.95 33.26 15.19 33.92L14.85 34.18C14.99 34.25 15.12 34.33 15.25 34.43ZM16.45 35.26C16.56 35.34 16.68 35.43 16.79 35.51C16.79 35.5 16.78 35.48 16.78 35.47L17.28 35.61C17.28 35.31 17.58 34.92 17.95 35.09C17.79 35.16 17.66 35.37 17.51 35.32C17.42 35.65 17.5 36.21 17.96 35.74C17.21 35.71 18.58 35.2 18.02 35.16C18.47 35.08 18.42 35.34 18.67 35.38C18.28 35.42 18.03 35.85 18.05 36.17C18.2 36.21 18.3 36.54 18.55 36.61C18.84 36.33 19.12 36.35 19.02 36.03C19.17 36.07 19.34 36.18 19.29 36.46C19.19 36.43 19.07 36.34 18.96 36.42C18.73 36.73 18.83 36.85 18.75 37.01C18.81 37.05 18.86 37.1 18.92 37.15C18.94 37.11 18.96 37.08 19 37.03H19.41C19.09 36.88 19.48 36.81 19.68 36.69C19.29 36.94 19.74 36.89 19.81 36.96L20.09 36.5C20.35 36.46 20.01 37.01 20.38 36.7C20.28 36.2 20.11 36.09 19.75 35.81L19.53 36.16C19.04 35.9 19.9 35.55 19.58 35.11C19.17 35.11 19.11 34.44 18.52 34.81C18.73 34.75 18.84 34.19 18.48 34.2C17.84 34.38 17.42 33.9 17.29 34.22C17.38 34.36 17.79 34.36 17.52 34.7L17.23 34.5L17.06 34.87C17.11 34.74 16.84 34.94 16.45 35.26ZM17.29 43.51C17.29 43.51 17.29 43.52 17.29 43.53C17.28 43.52 17.28 43.52 17.29 43.51Z" fill="#80EDFF"/>
<path d="M3.83002 17C3.65002 17.01 3.54003 16.8 3.28003 17.03C3.59003 16.81 3.56002 17.34 3.83002 17Z" fill="#80EDFF"/>
<path d="M3.98004 16.57C3.90004 16.61 3.78003 16.69 3.72003 16.61L3.96002 16.8L3.98004 16.57Z" fill="#80EDFF"/>
<path d="M5.93002 14.92C5.62002 14.95 5.43004 14.96 5.33004 14.75C6.04004 14.18 5.75004 14.93 6.51004 14.55C6.34004 14.15 5.61006 14.48 5.35006 14.23C5.14006 14.58 5.35002 15.29 5.93002 14.92Z" fill="#80EDFF"/>
<path d="M6.98999 14.44L6.67999 14.36L6.65002 14.41L6.96002 14.49L6.98999 14.44Z" fill="#80EDFF"/>
<path d="M3.28001 23.08C3.06001 23.25 3.37001 23.22 3.47001 23.25C3.45001 23.19 3.46001 23.07 3.28001 23.08Z" fill="#80EDFF"/>
<path d="M28.87 62.09L30.1 63.45C29.76 63.05 29.46 62.67 28.87 62.09Z" fill="#80EDFF"/>
<path d="M8.15003 27.06C7.66003 26.8 7.13001 26.89 6.75001 26.55C6.64001 27.41 7.97004 26.77 7.78004 27.55L8.15003 27.06Z" fill="#80EDFF"/>
<path d="M6.17004 28.17C6.57004 27.81 6.89999 28.14 7.17999 27.86C6.88999 27.66 6.66999 28.01 6.54999 27.74L6.17004 28.17Z" fill="#80EDFF"/>
<path d="M12.29 21.45L12.61 21.42L12.46 21.38L12.29 21.45Z" fill="#80EDFF"/>
<path d="M7.79999 29.75L7.67004 29.77L7.66003 30.07L7.79999 29.75Z" fill="#80EDFF"/>
<path d="M7.53003 29.8L7.66003 29.78L7.53003 29.8Z" fill="#80EDFF"/>
<path d="M13.35 20.98L13.33 20.73L13.06 20.78L13.35 20.98Z" fill="#80EDFF"/>
<path d="M12.04 24.17L11.79 24.1C11.84 24.12 11.81 24.46 12.04 24.17Z" fill="#80EDFF"/>
<path d="M8.42999 31.12L8.73999 31.2L8.77002 31.15L8.46002 31.07L8.42999 31.12Z" fill="#80EDFF"/>
<path d="M14.12 24.63C14.39 24.29 14.43 24.89 14.58 24.46C14.38 24.29 14.26 24.5 14.12 24.63Z" fill="#80EDFF"/>
<path d="M13.39 28.57C13.41 28.6 13.44 28.62 13.49 28.62C13.46 28.6 13.43 28.58 13.39 28.57Z" fill="#80EDFF"/>
<path d="M13.39 28.57C13.33 28.48 13.41 28.31 13.27 28.32C13.19 28.53 13.27 28.53 13.39 28.57Z" fill="#80EDFF"/>
<path d="M14.13 29.51L14.1 29.42C14.32 29.39 14.27 29.37 14.09 29.39C14.02 29.31 13.92 29.39 13.84 29.43C13.79 29.44 13.73 29.45 13.67 29.47C13.73 29.47 13.79 29.46 13.84 29.46C13.93 29.57 14 29.64 14.13 29.51Z" fill="#80EDFF"/>
<path d="M10.83 37.02C10.76 36.65 10.78 36.53 11.05 36.37C10.95 36.04 10.52 36.39 10.31 36.29C10.57 36.56 10.49 36.71 10.83 37.02Z" fill="#80EDFF"/>
<path d="M10.31 36.29C10.28 36.26 10.25 36.23 10.22 36.2C10.24 36.24 10.27 36.27 10.31 36.29Z" fill="#80EDFF"/>
<path d="M16.26 26.42L16.79 26.33L16.68 26.3L16.26 26.42Z" fill="#80EDFF"/>
<path d="M10.98 37.53C10.96 37.46 10.89 37.39 10.95 37.28C10.68 37.45 11 37.6 10.98 37.53Z" fill="#80EDFF"/>
<path d="M15.43 32.96C15.57 32.82 15.35 32.7 15.36 32.58C15.41 32.72 14.98 33.13 15.43 32.96Z" fill="#80EDFF"/>
<path d="M12.63 37.64C12.61 37.58 12.7301 37.37 12.9801 37.26C12.7901 37.27 12.26 37.48 12.63 37.64Z" fill="#80EDFF"/>
<path d="M15.74 33.52L15.8 33.42L15.5 33.34L15.74 33.52Z" fill="#80EDFF"/>
<path d="M19.18 30.21C18.72 30.2 18.65 31.07 18.13 30.87C18.13 31.59 18.55 30.53 18.74 30.93C18.71 30.65 19.04 30.28 19.18 30.21Z" fill="#80EDFF"/>
<path d="M18.75 30.93C18.75 30.97 18.77 31.01 18.79 31.05C18.77 31 18.76 30.96 18.75 30.93Z" fill="#80EDFF"/>
<path d="M18.83 35.4C18.78 35.39 18.72 35.39 18.67 35.4C18.72 35.4 18.77 35.41 18.83 35.4Z" fill="#80EDFF"/>
<path d="M19.78 31.92L19.08 31.9C19.54 31.91 19.9 32.49 20.35 32.14C20.33 31.89 20.05 31.76 19.79 31.81L19.78 31.92Z" fill="#80EDFF"/>
<path d="M13.76 41.46L13.48 41.44L13.54 41.66C13.58 41.56 13.99 41.42 13.76 41.46Z" fill="#80EDFF"/>
<path d="M13.56 41.7L13.55 41.66C13.54 41.67 13.54 41.69 13.56 41.7Z" fill="#80EDFF"/>
<path d="M18.18 34.92C18.14 34.79 18.07 34.71 17.92 34.67C17.86 34.77 17.96 35.09 18.18 34.92Z" fill="#80EDFF"/>
<path d="M15.13 42.02L14.89 41.84L15.1 42.07L15.13 42.02Z" fill="#80EDFF"/>
<path d="M15.06 43.67L15 43.77L15.3 43.85L15.36 43.75L15.06 43.67Z" fill="#80EDFF"/>
<path d="M23.4 36.02C23.34 35.82 22.83 35.98 22.77 36.08L23 36.38C23.32 36.05 22.93 36.3 22.9 36.06L23.4 36.02Z" fill="#80EDFF"/>
<path d="M21.25 51.46C20.96 51.56 20.87 51.12 21.09 50.94C21.22 50.92 21.44 51.04 21.52 50.82L20.73 50.95C20.87 50.34 21.71 50.69 22.05 50.73C21.88 50.31 21.41 50.47 21.15 50.08C21.17 50.23 21.07 50.41 20.98 50.55C20.56 50.85 20.51 50.36 20.3 50.12C20.22 50.41 20 50.42 19.75 50.41C19.72 50.4 19.69 50.4 19.65 50.41C19.62 50.41 19.59 50.41 19.56 50.41L19.58 50.44C19.53 50.47 19.48 50.52 19.41 50.59C19.68 50.73 19.43 51.13 19.52 51.28C20.13 50.68 20 51.65 20.33 51.69L20.53 51.85L20.58 51.93C20.51 52 20.4 52.04 20.19 52.01C20.39 52.02 20.56 52.37 20.76 52.19L21.26 52.92C21.25 52.96 21.23 53.01 21.19 53.06C21.25 53.06 21.29 53.04 21.32 53.01L23.51 56.2C23.46 56 23.53 55.76 23.49 55.55C24.12 55.49 23.39 55.23 23.88 55.01C24.11 55.01 24.17 55.21 24.13 55.38C24.37 55.27 24.48 55 24.75 54.84C24.76 54.25 23.66 54.89 23.55 54.39C23.83 54.23 24.14 54.2 23.93 53.96L24.03 53.99C23.46 53.77 24.41 53.27 23.51 53.49L23.9 53.24C23.49 53.24 23.24 52.88 23.05 52.7L23.13 52.66C22.31 52.37 22.82 52.4 22.2 51.87H22.85C22.88 51.52 22.37 51.79 22.31 51.6C22.39 51.56 22.65 51.34 22.82 51.45L21.61 51.11C21.23 51.1 21.39 51.32 21.25 51.46Z" fill="#80EDFF"/>
<path d="M21.15 50.08C21.14 50.02 21.12 49.97 21.07 49.92C21.09 49.98 21.12 50.03 21.15 50.08Z" fill="#80EDFF"/>
<path d="M23.69 56.42L23.54 56.2C23.56 56.28 23.6 56.36 23.69 56.42Z" fill="#80EDFF"/>
<path d="M19.56 49.5C19.45 49.77 19.21 49.58 19.05 49.66L19.38 50.15C19.53 50.05 19.72 49.99 19.85 49.89L19.56 49.5Z" fill="#80EDFF"/>
<path d="M19.2 50.47C19.31 50.42 19.44 50.41 19.57 50.41L19.39 50.14C19.28 50.22 19.2 50.31 19.2 50.47Z" fill="#80EDFF"/>
<path d="M27.04 45.18L27.11 45.26L27.31 45.32L27.04 45.18Z" fill="#80EDFF"/>
<path d="M27.29 46.97C27.44 46.72 27.14 46.63 27.04 46.6C27.2 46.83 27.05 46.79 27.29 46.97Z" fill="#80EDFF"/>
<path d="M29.5 45.1L29.77 45.23L29.8 45.18L29.5 45.1Z" fill="#80EDFF"/>
<path d="M26.31 57.09C26.34 57.12 26.37 57.15 26.41 57.18C26.37 57.13 26.34 57.1 26.31 57.09Z" fill="#80EDFF"/>
<path d="M24.69 55.45C24.61 56.26 24.1 55.35 23.66 55.88L24.03 56.04L23.87 56.11L24.15 56.42C24.36 56.18 24.34 56.12 24.61 55.96C24.81 56.49 24.39 56.32 24.28 56.88L24.67 57.37L24.56 57.38C24.59 57.42 24.64 57.42 24.69 57.4L26.01 59.03C26.43 59.21 26.37 58.54 26.92 58.51C26.67 58.14 26.59 57.41 26.04 57.73C26.12 57.69 26.28 57.62 26.3 57.5L25.72 57.58V57.88C25.14 57.95 24.78 57.2 24.97 56.9C25.38 57.19 25.77 56.65 25.85 57.39C25.97 57.28 26.14 57.02 26.29 57.09C25.73 56.55 25.59 55.81 24.69 55.45Z" fill="#80EDFF"/>
<path d="M29.22 61.71L29.17 61.74C29.21 61.73 29.23 61.72 29.22 61.71Z" fill="#80EDFF"/>
<path d="M29.15 61.45L28.42 61.48L28.79 61.94L29.18 61.73C29.06 61.75 28.76 61.7 28.86 61.54L29.15 61.45Z" fill="#80EDFF"/>
<path d="M27.86 61.33C28.18 61.48 28.6 61.18 28.71 60.91C29.06 61.01 28.33 61.34 28.89 61.2C29.2 60.99 28.82 60.83 28.72 60.8L27.86 61.33Z" fill="#80EDFF"/>
<path d="M26.85 59.32L27.08 59.28L27.01 59.07L26.85 59.32Z" fill="#80EDFF"/>
<path d="M27.08 59.28L27.15 59.48C27.27 59.38 27.39 59.28 27.47 59.19L27.08 59.28Z" fill="#80EDFF"/>
<path d="M27.33 60.02C27.35 60.11 27.38 60.21 27.43 60.32L27.33 60.02Z" fill="#80EDFF"/>
<path d="M27.3 59.75L27.25 59.79L27.32 60.02C27.31 59.92 27.31 59.84 27.3 59.75Z" fill="#80EDFF"/>
<path d="M27.15 59.48C26.87 59.71 26.58 59.95 26.83 60.14L27.26 59.78L27.15 59.48Z" fill="#80EDFF"/>
<path d="M30.11 46.99L30.41 47.08L30.44 47.03L30.14 46.94L30.11 46.99Z" fill="#80EDFF"/>
<path d="M30.59 48.32C30.68 48.33 30.76 48.33 30.83 48.33C30.77 48.3 30.69 48.29 30.59 48.32Z" fill="#80EDFF"/>
<path d="M33.21 47.8C33.06 48.23 32.6 47.74 32.75 48.26C32.49 48.48 32 48.52 32 48.23C32.28 48.07 32.3 48.31 32.49 48.01C32.09 48.08 32.27 47.89 31.9 48.2C31.5 48.14 31.2 48.3 30.84 48.32C31.2 48.48 31.17 49.32 31.91 49.33C32.52 49.2 33.09 48.65 33.79 48.19C33.93 48.06 33.68 47.52 33.21 47.8Z" fill="#80EDFF"/>
<path d="M33.65 46.98C33.61 46.85 33.56 46.84 33.46 46.81C33.24 46.98 33.59 46.9 33.65 46.98Z" fill="#80EDFF"/>
<path d="M30.09 52.92C30.2 52.88 30.45 52.99 30.6 52.83L30.28 52.62C30.31 52.7 30.2 52.8 30.09 52.92Z" fill="#80EDFF"/>
<path d="M30.14 52.52L30.28 52.61C30.26 52.58 30.22 52.55 30.14 52.52Z" fill="#80EDFF"/>
<path d="M30.04 52.97C30.06 52.95 30.08 52.93 30.09 52.92C30.07 52.93 30.05 52.94 30.04 52.97Z" fill="#80EDFF"/>
<path d="M27.63 60.85C27.44 60.97 27.64 61.03 27.74 61.06C27.72 60.99 27.73 60.87 27.63 60.85Z" fill="#80EDFF"/>
<path d="M31.67 65.31L31.6 65.53C31.66 65.42 31.69 65.37 31.67 65.31Z" fill="#80EDFF"/>
<path d="M38.05 63.65C38.09 63.63 38.13 63.62 38.16 63.61C38.13 63.61 38.1 63.62 38.05 63.65Z" fill="#80EDFF"/>
<path d="M38.16 63.61C38.37 63.58 38.29 63.99 38.59 63.92L38.51 63.96L38.76 64.03C38.64 63.89 38.45 63.54 38.16 63.61Z" fill="#80EDFF"/>
</svg>
