<svg width="171" height="133" viewBox="0 0 171 133" fill="none" xmlns="http://www.w3.org/2000/svg">
<path d="M100.062 109.144C123.846 98.8478 134.779 71.2201 124.482 47.4364C114.186 23.6526 86.5579 12.7192 62.7742 23.0159C38.9904 33.3126 28.0571 60.9403 38.3538 84.724C48.6505 108.508 76.2781 119.441 100.062 109.144Z" fill="#8735BC"/>
<g opacity="0.51">
<g opacity="0.51">
<path opacity="0.51" d="M165.477 5.70241C165.769 5.27457 166.702 5.91633 166.819 6.40251C166.897 4.80783 167.733 5.99411 166.449 3.87436C166.274 2.51305 167.772 3.54377 167.752 4.76894L168.375 2.51305L167.266 2.80478C166.352 0.937839 169.016 2.35748 167.947 0.179382L166.469 1.44344L166.158 0.821147C166.216 1.67683 165.321 1.9102 164.913 1.83241C164.757 1.52126 164.427 1.0934 164.68 0.840583C162.657 2.02687 166.177 4.16607 164.971 5.81909C165.049 5.72185 165.185 5.64406 165.477 5.70241Z" fill="#C66EFF"/>
<path opacity="0.51" d="M161.004 2.66869L161.782 5.25518L160.285 5.46911C160.771 6.2081 160.362 7.37494 161.354 7.62776C161.393 7.43328 161.451 7.06379 161.665 7.0249C162.618 8.69736 160.712 8.83348 162.132 10.2337C162.735 9.20298 163.104 9.45581 162.774 7.78334C163.688 7.37495 164.544 7.33604 165.321 7.64719C165.399 7.2388 164.777 6.247 164.952 5.83861C164.894 5.9164 164.855 5.97472 164.777 6.03306L163.104 3.66049C163.182 4.34115 162.793 4.26336 162.54 4.51618L161.957 0.821205C160.012 -1.12352 159.604 1.07402 158.457 0.490604C160.479 2.10473 158.632 1.87135 161.004 2.66869Z" fill="#C66EFF"/>
<path opacity="0.51" d="M164.952 5.85827L164.971 5.83884C164.971 5.83884 164.952 5.83883 164.952 5.85827Z" fill="#C66EFF"/>
<path opacity="0.51" d="M75.6111 87.1475C75.3583 87.3809 75.6694 88.0032 75.8056 88.3144L78.9366 86.1168C78.4115 85.5529 76.9724 85.3973 77.3225 84.6194C76.5835 84.1137 76.1556 85.2611 76.6029 86.1946L76.1751 85.0861C76.2723 86.8169 74.1331 84.7361 74.1136 83.6859L74.0553 83.7443L75.261 89.8507C76.2334 89.5979 74.7554 87.8087 75.6111 87.1475Z" fill="#C66EFF"/>
<path opacity="0.51" d="M8.94575 129.076C9.19857 128.57 9.10129 128.318 8.90682 128.123C8.88737 128.395 8.88741 128.687 8.94575 129.076Z" fill="#C66EFF"/>
<path opacity="0.51" d="M75.5916 91.2512L75.9611 93.157C75.9417 92.593 75.8055 91.9124 75.5916 91.2512Z" fill="#C66EFF"/>
<path opacity="0.51" d="M64.6428 65.7948C64.5845 65.717 64.5456 65.6392 64.4678 65.5419L64.7011 66.4949C64.7011 66.2615 64.6817 66.0281 64.6428 65.7948Z" fill="#C66EFF"/>
<path opacity="0.51" d="M64.9929 106.595C64.954 106.673 64.8956 106.731 64.8567 106.848C64.9345 106.77 64.9734 106.692 64.9929 106.595Z" fill="#C66EFF"/>
<path opacity="0.51" d="M67.4627 51.501L67.0154 53.8736C66.7431 53.0763 66.1986 53.7375 65.9653 52.7457C65.9264 52.9207 65.6152 53.543 65.9847 53.7958L66.2375 53.5624C66.8209 56.0323 67.7933 56.4795 67.5794 58.8132C69.1351 59.455 68.7462 58.1715 68.5517 56.9852C68.5906 56.7518 68.6684 56.6157 68.7267 56.4601L68.0267 52.9207L67.4627 51.501Z" fill="#C66EFF"/>
<path opacity="0.51" d="M20.9836 104.573L20.8864 104.417C20.9252 104.475 20.9447 104.534 20.9836 104.573Z" fill="#C66EFF"/>
<path opacity="0.51" d="M20.5363 103.756L20.9058 104.417C20.7502 104.048 20.8475 103.561 20.5363 103.756Z" fill="#C66EFF"/>
<path opacity="0.51" d="M74.9499 89.8316C75.1833 90.2011 75.3972 90.7067 75.5916 91.2512L75.2999 89.8121C75.2221 89.851 75.086 89.8316 74.9499 89.8316Z" fill="#C66EFF"/>
<path opacity="0.51" d="M73.1024 84.8141L74.0942 83.725L73.8414 82.4026C73.6469 83.1027 73.2968 83.725 73.1024 84.8141Z" fill="#C66EFF"/>
<path opacity="0.51" d="M67.6571 106.478C65.4013 108.462 66.6847 103.756 65.1873 103.97C64.6817 104.709 65.1873 105.973 65.0123 106.595C66.3153 104.339 67.2098 110.387 68.7851 108.462C69.8547 110.64 68.8434 111.593 67.8127 111.496C65.7513 110.096 67.521 109.648 66.4125 107.665C65.8291 108.52 66.218 108.773 66.607 110.057C65.0706 110.465 65.6541 114.141 63.1065 112.001C62.5036 113.032 63.1843 113.907 63.3398 115.269C64.6234 117.388 65.4012 115.424 66.8403 116.805C66.6459 116.688 66.2764 116.416 66.1208 116.105L67.1904 116.008C65.9652 115.794 65.9069 113.888 66.1791 113.46C66.4319 113.227 66.9376 112.74 67.2487 113.363L67.1126 114.102C68.1044 114.374 67.3265 111.768 68.6684 112.488C69.0184 112.935 68.9406 113.285 69.0962 113.596C68.8045 111.749 69.5046 111.399 69.7964 109.746L70.6131 112.157C69.8741 109.376 72.0717 108.812 74.0942 109.162C73.7247 108.909 73.3163 108.832 73.1996 108.345C73.5886 107.373 75.086 108.384 75.4749 109.687C75.0276 107.529 79.1116 109.279 78.5865 106.439L75.9806 93.1376C76 93.5071 75.9611 93.8377 75.8444 94.0516C74.2303 92.5541 74.172 92.9042 73.7247 90.7455C73.6858 92.1652 74.9109 93.4098 73.9386 94.1877C73.7247 93.0209 72.4412 90.9011 71.3132 91.3678C70.0492 94.8295 71.8577 101.014 71.2938 105.175C70.2825 103.872 68.7267 105.487 67.6182 105.759C66.957 104.067 67.3265 103.192 67.7932 102.433C67.307 102.628 66.5486 103.095 65.9458 103.406L67.6571 106.478Z" fill="#C66EFF"/>
<path opacity="0.51" d="M70.2825 97.9408C70.1464 97.863 70.0297 97.8436 69.913 97.8242C70.0297 97.9019 70.1464 97.9603 70.2825 97.9408Z" fill="#C66EFF"/>
<path opacity="0.51" d="M67.9877 102.375C67.9683 102.316 67.9294 102.278 67.8905 102.219C67.8322 102.297 67.7933 102.394 67.7544 102.472C67.8322 102.433 67.9294 102.394 67.9877 102.375Z" fill="#C66EFF"/>
<path opacity="0.51" d="M72.2661 87.1284C72.1494 86.6422 72.1883 86.4478 72.0522 85.9616C72.0522 86.1561 72.0133 86.3311 71.9744 86.5255C72.0133 86.7784 72.0911 87.0117 72.2661 87.1284Z" fill="#C66EFF"/>
<path opacity="0.51" d="M74.4054 89.1897L74.7165 89.812C74.8138 89.8314 74.8721 89.812 74.9693 89.812C74.7554 89.5008 74.5609 89.2675 74.4054 89.1897Z" fill="#C66EFF"/>
<path opacity="0.51" d="M49.8239 100.489L49.7851 100.955C49.9212 100.819 49.9017 100.664 49.8239 100.489Z" fill="#C66EFF"/>
<path opacity="0.51" d="M63.3398 106.012C64.0983 105.292 62.0563 103.892 63.2426 103.056L62.7953 103.172C63.0676 101.714 64.8567 101.072 65.8485 100.294C66.2958 101.189 67.1515 100.858 67.8905 102.2C68.3961 101.422 68.9018 100.663 68.3767 99.1077C69.0962 99.2438 68.9796 97.6297 69.913 97.8047C69.1546 97.2019 68.9406 94.6737 68.2211 96.5407C68.26 96.3657 68.0655 96.2295 68.1044 96.0545C66.5097 95.5878 67.3849 97.6297 66.6653 98.1548C65.7124 97.7075 66.5681 96.4435 65.9458 96.424C65.4985 97.7659 62.3869 97.5131 64.3899 100.313C63.8454 100.975 63.3204 100.411 62.7758 100.041C63.7677 103.795 57.8946 101.461 60.5394 105.331C60.8311 104.903 61.5312 104.553 61.5312 103.328L63.3398 106.012Z" fill="#C66EFF"/>
<path opacity="0.51" d="M70.9632 88.2952C70.9048 88.3146 70.8465 88.373 70.7687 88.373C70.8271 88.373 70.9048 88.3341 70.9632 88.2952Z" fill="#C66EFF"/>
<path opacity="0.51" d="M89.3798 92.1651L90.7411 94.946C89.127 96.9297 87.9018 96.7352 86.1904 98.0382C85.8209 97.7854 85.8792 97.4159 85.9181 97.2408C84.868 98.3882 82.6315 99.1272 82.5149 100.916C82.1065 101.169 80.5118 101.072 80.3951 100.061C80.3562 100.411 80.2785 100.78 80.0062 100.858C79.3255 99.9829 80.3173 100.255 79.8311 99.4967C79.6172 99.5551 79.4228 99.4189 79.5784 99.7495C79.345 98.7577 77.1669 96.8713 78.5865 95.9962C80.5702 97.7465 77.7892 96.8908 79.7144 99.03C80.1812 98.7383 79.52 97.8631 79.3644 97.552C79.9867 97.2019 80.3757 97.8048 80.7063 98.3688C80.434 97.4936 81.8537 97.9993 81.4258 96.6768C82.4371 95.7239 82.5732 98.4855 83.2927 97.9409L82.1065 95.2766L83.6428 94.8877C84.868 92.8263 80.5896 90.9594 81.7175 88.2173C82.3009 89.6369 84.5374 91.1538 85.8209 91.0177C85.3153 91.4844 85.3153 93.7598 84.0901 93.5653C86.4043 94.7127 82.8066 94.7516 84.8096 96.5213C84.6346 95.1599 85.3931 94.4404 86.4433 94.5377L86.3654 94.9072C87.2406 94.6738 86.0932 91.8345 87.7073 92.1067C88.1352 91.6984 88.5046 92.4373 88.7964 93.0402C88.9714 92.3595 89.0297 91.64 89.3798 92.1651ZM88.6602 93.3903L87.8435 93.6042C88.2713 93.8764 88.5046 93.7014 88.6602 93.3903Z" fill="#C66EFF"/>
<path opacity="0.51" d="M152.117 9.16414C152.233 9.18359 152.35 9.20303 152.447 9.22248C152.331 9.14469 152.233 9.14469 152.117 9.16414Z" fill="#C66EFF"/>
<path opacity="0.51" d="M93.8137 47.592L94.2416 47.4169C94.0471 47.4364 93.911 47.5142 93.8137 47.592Z" fill="#C66EFF"/>
<path opacity="0.51" d="M96.9058 33.9985L97.0809 33.065C96.8864 33.2401 96.8669 33.5901 96.9058 33.9985Z" fill="#C66EFF"/>
<path opacity="0.51" d="M147.527 12.0619H147.488C147.488 12.1202 147.488 12.198 147.488 12.2564L147.527 12.0619Z" fill="#C66EFF"/>
<path opacity="0.51" d="M117.656 27.9891C117.87 28.1252 118.103 28.2419 118.317 28.3003C118.142 28.0863 117.909 27.9891 117.656 27.9891Z" fill="#C66EFF"/>
<path opacity="0.51" d="M96.8864 34.1735C96.9059 34.1929 96.9253 34.193 96.9448 34.193C96.9253 34.1346 96.9253 34.0568 96.9058 33.9985L96.8864 34.1735Z" fill="#C66EFF"/>
<path opacity="0.51" d="M85.3736 43.2165C85.3541 43.3526 85.3152 43.4498 85.2958 43.6249C85.3736 43.4887 85.3736 43.3526 85.3736 43.2165Z" fill="#C66EFF"/>
<path opacity="0.51" d="M90.4882 49.5753C90.4493 49.692 90.4104 49.8282 90.4104 49.9643L90.4882 49.5753Z" fill="#C66EFF"/>
<path opacity="0.51" d="M74.3276 53.8541L74.0553 54.5347C74.2692 54.3208 74.3276 54.0875 74.3276 53.8541Z" fill="#C66EFF"/>
<path opacity="0.51" d="M88.0962 48.9339C88.1351 49.07 88.174 49.1867 88.2323 49.3033C88.2518 49.2061 88.1934 49.0311 88.0962 48.9339Z" fill="#C66EFF"/>
<path opacity="0.51" d="M160.168 14.0455C160.148 14.0455 160.148 14.065 160.148 14.065L160.323 14.3567L160.168 14.0455Z" fill="#C66EFF"/>
<path opacity="0.51" d="M159.04 9.74775C159.137 9.57272 159.254 9.41715 159.351 9.24213C159.176 9.35881 159.079 9.53383 159.04 9.74775Z" fill="#C66EFF"/>
<path opacity="0.51" d="M127.613 26.7835C127.983 27.0363 128.585 27.2307 128.702 27.7169C128.624 27.0557 127.788 25.8694 127.613 26.7835Z" fill="#C66EFF"/>
<path opacity="0.51" d="M167.83 30.5952C167.694 30.2257 167.616 29.8951 167.558 29.6034C167.616 30.0701 167.636 30.4785 167.83 30.5952Z" fill="#C66EFF"/>
<path opacity="0.51" d="M167.558 29.6032C167.538 29.3698 167.519 29.117 167.461 28.8836C167.48 29.0975 167.519 29.3309 167.558 29.6032Z" fill="#C66EFF"/>
<path opacity="0.51" d="M137.648 48.8173C137.512 48.6812 137.356 48.584 137.259 48.584C137.492 48.8951 137.59 48.934 137.648 48.8173Z" fill="#C66EFF"/>
<path opacity="0.51" d="M159.973 9.39771C159.662 8.77539 160.771 6.22779 158.943 7.04457C157.815 5.23597 159.429 5.50823 159.565 4.78868C158.962 4.59421 158.943 3.54407 158.418 2.9801C158.34 3.34959 158.437 4.03023 157.99 4.14692C157.27 3.44681 157.445 2.53281 158.068 2.55225C156.92 1.96883 157.776 0.704765 156.551 0.490845C155.403 2.18276 154.723 3.58297 155.384 6.90846C155.987 5.87775 156.629 4.67201 157.854 4.86649L158.593 6.59729C156.842 5.8194 157.017 7.1807 156.103 7.58909L158.495 7.14182C160.226 7.82247 159.837 8.50313 159.351 9.24213C159.526 9.16434 159.74 9.14489 159.973 9.39771Z" fill="#C66EFF"/>
<path opacity="0.51" d="M167.85 23.5938L167.908 23.6132C167.888 23.5355 167.908 23.4771 167.888 23.3993L167.85 23.5938Z" fill="#C66EFF"/>
<path opacity="0.51" d="M95.4473 84.6194L95.6807 85.3C95.6418 84.95 95.5445 84.736 95.4473 84.6194Z" fill="#C66EFF"/>
<path opacity="0.51" d="M99.4535 82.0527C99.4729 82.0916 99.4924 82.1499 99.5118 82.1888C99.4924 82.1499 99.4729 82.111 99.4535 82.0527Z" fill="#C66EFF"/>
<path opacity="0.51" d="M78.0809 48.4864C78.0225 48.4281 77.9836 48.3503 77.9059 48.292C77.9059 48.4475 77.9836 48.4864 78.0809 48.4864Z" fill="#C66EFF"/>
<path opacity="0.51" d="M99.3562 81.9164C99.3951 81.9553 99.4146 82.0136 99.4535 82.0525C99.4146 82.0136 99.3951 81.9553 99.3562 81.9164Z" fill="#C66EFF"/>
<path opacity="0.51" d="M114.622 63.3248C114.622 63.3248 114.389 63.1108 114.117 62.9164C114.175 63.0719 114.311 63.2081 114.622 63.3248Z" fill="#C66EFF"/>
<path opacity="0.51" d="M109.313 63.636C109.255 63.5971 109.197 63.5582 109.138 63.5193L109.313 63.636Z" fill="#C66EFF"/>
<path opacity="0.51" d="M122.051 20.5406C121.857 20.6379 121.74 20.774 121.662 20.9296C121.818 20.8712 121.954 20.7546 122.051 20.5406Z" fill="#C66EFF"/>
<path opacity="0.51" d="M99.5118 82.2079C99.5896 82.4024 99.6479 82.5969 99.6868 82.8691C99.6479 82.5774 99.5896 82.3829 99.5118 82.2079Z" fill="#C66EFF"/>
<path opacity="0.51" d="M115.109 51.6952C115.109 51.773 115.109 51.8702 115.109 51.948C115.147 51.9675 115.186 51.9675 115.225 51.9869L115.109 51.6952Z" fill="#C66EFF"/>
<path opacity="0.51" d="M117.831 51.4815C117.889 51.6955 117.967 51.9094 118.045 52.0844C118.317 50.9759 120.068 50.7814 119.115 49.0506C118.901 49.2451 117.014 49.1479 116.587 48.0394C116.373 48.7784 114.875 48.1366 114.797 48.5839C116.198 48.9145 115.809 49.8869 115.653 50.8009C114.836 50.6647 114.856 49.4396 114.233 49.4201L113.222 50.373L114.37 49.9063L115.128 51.676C115.128 51.5982 115.128 51.5399 115.128 51.4621C116.295 49.6146 116.8 53.6791 117.831 51.4815Z" fill="#C66EFF"/>
<path opacity="0.51" d="M118.045 52.0841C118.006 52.2591 117.987 52.4341 118.045 52.648C118.181 52.5119 118.142 52.3174 118.045 52.0841Z" fill="#C66EFF"/>
<path opacity="0.51" d="M126.66 49.9841C126.719 49.8675 126.757 49.7313 126.796 49.5369C126.777 49.6341 126.699 49.7897 126.66 49.9841Z" fill="#C66EFF"/>
<path opacity="0.51" d="M74.8721 82.0916C75.2221 82.5389 76.8362 82.8112 76 81.6249C75.6305 81.7027 75.2416 81.7805 74.8721 81.8388V82.0916Z" fill="#C66EFF"/>
<path opacity="0.51" d="M140.604 30.2643C140.468 30.3032 140.351 30.3615 140.254 30.4588C140.273 30.5366 140.293 30.6143 140.312 30.6921C140.507 30.8088 140.584 30.4393 140.604 30.2643Z" fill="#C66EFF"/>
<path opacity="0.51" d="M116.509 47.2807C116.45 47.5918 116.509 47.8252 116.587 48.0585C116.645 47.8835 116.645 47.6502 116.509 47.2807Z" fill="#C66EFF"/>
<path opacity="0.51" d="M142.626 33.0648C142.996 33.3176 143.56 33.6871 143.91 34.1344C144.202 33.9594 143.968 33.1814 144.104 32.7731C143.89 33.162 143.424 33.2982 142.626 33.0648Z" fill="#C66EFF"/>
<path opacity="0.51" d="M73.9386 81.9749C73.9191 82.1304 73.8803 82.2666 73.8414 82.4027L73.7636 81.9943C73.4524 82.0332 73.1607 82.0721 72.8495 82.0915C72.8301 82.2277 72.7912 82.3638 72.694 82.4805C72.7134 82.4027 72.6551 82.2666 72.5967 82.111C72.4995 82.111 72.3829 82.111 72.2856 82.111C72.5968 83.7251 71.8772 85.5337 71.9939 86.5255C71.8383 87.4007 71.4299 88.1397 70.9632 88.2952C71.3521 88.0813 71.6438 87.4979 71.041 86.9145C69.8158 86.7006 68.0655 84.892 67.9877 87.5174L68.7073 86.9923L68.8434 90.8039C67.5015 90.1038 68.7656 88.8981 68.3572 87.7896C67.9488 89.9872 64.4678 87.2256 65.4401 89.9483C64.4289 88.6453 62.7175 86.4477 61.959 87.1673C63.6315 88.3147 62.1341 88.5092 63.7677 89.851C64.0011 90.8428 62.4841 90.0066 63.1259 91.0567L62.8147 90.4344C59.8782 89.2676 61.7062 92.982 61.8424 94.5184C60.4811 96.2686 59.0614 95.938 57.7974 97.1243C57.1167 96.2492 55.0164 93.9933 54.5108 94.4795C55.0942 95.8991 54.1996 97.3577 55.1525 99.0301C56.6305 98.9913 55.0748 97.1243 55.4443 96.3464C57.0973 97.6688 56.6111 97.9605 57.9918 98.4856C56.9806 98.2134 56.0471 101.092 54.3746 99.9442L54.433 99.5747C52.7994 99.3024 49.9407 95.4907 49.9212 98.9912L49.8045 100.489C49.7267 100.314 49.6101 100.119 49.5323 99.9636C48.1515 100.664 47.2569 98.6218 46.8291 101.014C46.868 100.839 46.6735 100.703 46.7124 100.528C45.2927 100.178 45.7206 102.531 45.3511 103.309C44.087 102.239 44.5538 101.947 44.1259 100.839C42.3562 101.286 42.3951 104.612 42.609 106.809L41.1699 106.653C41.345 105.739 41.0532 103.892 40.3337 103.211C40.0225 103.814 40.5476 104.378 39.6531 104.612C39.2058 103.678 38.9529 102.686 38.564 101.403C36.133 100.994 40.2753 104.631 37.4944 102.725C37.0276 103.017 37.5916 104.436 38.2529 105.506L36.5026 104.728C37.2999 106.089 36.3275 106.867 35.783 107.529C36.0747 108.151 37.2805 108.54 37.1832 107.879C37.825 108.929 37.4361 109.901 36.9693 110.193C34.9468 107.568 34.2078 112.643 32.5548 109.065C31.0768 111.36 28.3542 113.635 27.7707 115.716C26.7984 115.269 25.8649 115.852 25.5343 114.199C23.8618 115.327 24.912 118.711 22.7339 119.1C22.3644 118.847 23.4729 118.555 22.7922 117.7C22.4616 119.528 20.0307 117.894 18.8444 119.761C19.0973 119.528 18.7861 118.905 18.6305 118.594C18.9611 119.022 18.5916 119.994 18.4555 120.733C18.0471 120.656 18.5527 120.189 18.1832 119.936C14.0215 120.831 14.0799 126.217 10.7738 128.298C11.7267 127.715 10.8322 125.653 10.346 124.914L9.41249 125.498C9.68475 126.645 9.00412 127.093 8.88744 128.162C8.57628 127.87 8.05122 127.695 8.05122 127.073C5.01744 126.451 7.50667 132.285 4.68681 132.83L4.84237 127.365L3.32548 126.548L3.36441 124.098C1.98366 123.573 2.956 126.295 1.94474 124.973C1.82806 124.487 2.27535 124.37 1.76972 123.612C0.739014 123.534 1.38074 124.584 1.06959 125.206C0.486168 121.511 3.11155 119.78 4.04502 118.147C4.12281 117.777 4.31728 118.944 4.47286 119.255C4.97849 118.769 5.91197 119.411 6.30091 118.439C5.95086 116.961 5.36748 117.797 4.93964 117.913C4.29788 116.863 4.51178 116.805 4.80349 116.377C5.81475 117.68 7.29276 115.385 8.94578 116.708C10.7544 114.841 6.20372 113.402 8.65408 112.585L10.3265 113.732C10.696 111.71 11.5128 109.59 13.0881 109.007L12.8352 109.259C13.1075 110.057 13.6909 110.251 14.0604 110.504C15.5384 110.485 15.1495 107.956 16.8414 109.104C16.8608 106.653 17.9693 104.086 18.7083 102.336C20.478 104.164 18.1638 105.273 18.4944 106.926L19.7001 106.09C18.9611 106.634 19.2139 107.606 19.564 109.084C20.8864 108.754 20.0113 106.692 20.653 105.487C20.9642 106.109 21.3337 106.362 21.8004 106.051L21.0031 104.592C21.0809 104.689 21.217 104.767 21.4115 104.748L22.6367 102.686C21.8588 102.356 21.0225 101.169 20.5558 101.48C21.2559 102.161 20.9837 102.589 20.4975 102.881C20.2836 101.714 19.5251 102.433 19.0389 101.694C19.9918 101.092 21.0031 100.139 21.3532 99.3413L22.4033 100.469C23.5118 100.178 23.9591 98.8551 24.8148 98.7968L25.087 99.5941C26.4094 99.2635 26.8956 97.7272 28.6848 98.33C28.6459 96.2492 29.0154 94.2267 28.7626 92.2042C28.0625 90.2983 32.9243 92.3597 32.4381 89.3454C32.6325 89.4621 32.5353 91.0762 32.5937 91.9319C33.4688 91.6985 32.652 89.2871 34.0522 90.8623C32.0686 91.3679 35.0635 92.1653 34.694 93.1376C35.4135 92.5931 35.997 91.7568 35.9386 90.9012C34.7329 91.7374 34.7523 88.2369 34.0328 89.8121C33.9939 87.7313 34.8885 86.2727 36.4053 86.0588C36.8915 86.7978 37.2804 87.0506 37.9028 87.0701L37.5138 85.7671C38.1751 85.6115 37.3583 87.7313 38.6807 87.3812C38.5251 84.7947 42.6868 86.1755 40.8393 82.461C42.5896 83.2389 40.1781 84.892 42.5507 85.6893C42.6479 87.4201 40.6838 86.7006 41.5978 88.5481C41.9867 87.5757 42.8424 89.7927 43.3091 89.501L43.3869 87.9063L43.173 87.9646C43.4258 85.4559 46.0706 84.7753 47.5875 83.3362C47.8792 80.633 47.1986 77.502 49.0461 76.4907C49.2211 77.8326 51.1464 76.4713 51.302 79.0578C52.7022 79.3884 52.78 77.8131 52.2938 77.0547C51.4187 77.2881 51.8854 76.9769 51.0491 77.0353C50.8352 75.8684 51.7881 75.2656 52.566 75.5962C52.3521 75.6545 52.5271 75.7712 52.6827 76.0823C53.9468 76.1018 52.4883 74.9155 52.8383 74.1182C53.8885 75.2461 54.4135 73.5347 55.4053 73.807L54.9969 71.4733C55.347 72.9513 56.0665 71.3761 56.9222 72.3679C56.9417 71.1427 56.436 69.3536 57.5251 69.0619C57.5834 69.9175 58.9448 69.3925 59.7616 70.5787C62.0563 70.6954 60.0532 65.6197 62.6397 66.3587C62.7953 66.6698 63.0287 67.6422 63.651 67.6617C63.7483 67.0977 64.4289 66.8449 64.6817 66.4754L64.7011 66.5143C64.7011 66.4948 64.7011 66.4754 64.7011 66.4754C64.8373 66.3003 64.8373 66.067 64.6428 65.7753C64.4483 64.2 63.9427 62.7804 64.4484 60.9912C63.4371 59.6883 62.7953 60.894 62.6592 61.633L63.2037 63.2471C61.434 61.4385 62.3675 64.3362 61.6285 63.8305C60.695 60.9329 63.1453 60.1161 63.3593 57.8019C61.3173 56.4017 59.4698 57.2185 58.2057 58.4242L59.3921 58.8131L58.6725 59.3577L60.3838 60.3106C59.5087 60.5439 59.1392 61.3218 58.4586 61.6719C59.1781 61.1274 60.7728 62.8193 60.1311 62.8193C58.3808 62.0414 59.8588 64.2778 59.1587 64.6473C59.606 64.5306 60.0727 64.2389 60.3061 65.2307C57.9335 64.4529 58.3225 65.7364 55.9888 64.764C57.6807 66.9421 54.7247 65.9698 55.8138 67.9534L56.475 67.7783L56.2999 69.9175C54.0052 68.7702 55.9304 67.4089 53.4606 67.156C51.8465 67.9145 53.5189 70.287 52.4882 71.24C51.9437 69.6258 52.0604 67.8561 53.0133 67.2727L52.002 67.0005C51.7687 66.0086 53.1495 65.3085 53.8496 64.9585C53.8496 67.2338 54.6663 65.0946 55.9693 65.9892C55.172 64.6279 54.6275 65.2891 54.7052 63.6944C53.9663 64.2195 53.9468 64.414 52.6438 64.5695C55.1136 63.7528 51.3992 58.7743 53.9468 58.6576C53.5189 59.805 55.522 60.3495 56.0471 60.9134C56.3194 60.4856 56.9028 59.6494 57 59.0854L55.4248 57.3935C55.911 55.8572 59.0031 59.6105 58.8864 56.849C58.2641 55.6043 57.564 57.199 57.6418 56.8295C58.478 54.5153 61.1423 57.1601 63.5927 57.5685C63.2815 56.9462 62.4647 55.7599 62.2897 54.4181C62.8925 55.6627 63.6704 55.9739 63.6704 57.199C64.4872 57.3352 64.5067 56.11 64.6234 55.371C63.1454 55.4099 63.9233 53.4651 63.651 52.6483C64.3122 52.4733 64.2538 53.893 64.1566 54.4375C64.7789 54.4569 66.432 55.7794 65.5179 53.9124C66.3542 55.0987 66.4709 57.8602 65.8874 58.6965L66.5486 58.5214C66.607 59.3771 66.4125 59.2604 65.7513 59.4355C66.8987 59.9994 67.5405 61.069 68.0072 62.0025C67.8127 61.8664 67.8516 61.6914 67.6766 61.5747C67.0542 61.5552 66.9376 62.0997 67.4821 62.6832C68.2017 64.5501 68.7462 63.286 69.5824 63.8889C69.7185 63.6361 69.8741 63.3832 70.0103 63.1304L68.7073 56.4795C69.2323 55.2348 70.4965 56.1878 71.7411 56.4795L71.0021 54.9626C71.9161 54.5542 72.9857 54.457 73.6469 56.5573C73.2968 56.11 73.2774 56.3044 73.044 56.3628C73.1413 56.5573 73.1996 56.7323 73.2191 56.8684C73.2579 56.9656 73.2968 57.0434 73.3357 57.1407C73.9191 56.0905 74.2692 55.4293 74.2692 55.3515C74.1331 58.3658 75.9028 57.8991 77.3225 60.5051L78.2754 58.677C76.8363 58.5214 77.4391 57.4907 77.5364 56.9462C78.5671 58.2492 78.7421 56.11 79.4033 55.9349L79.5589 56.2461C80.3757 56.3822 81.1341 55.6627 81.4841 54.8848C81.1341 54.4375 80.3951 51.676 79.8506 50.0619C78.4504 50.2563 78.7032 49.284 78.042 48.4866C78.1976 48.4866 78.4115 48.37 78.3142 48.1755C78.1975 47.6893 77.7503 47.7865 77.4197 47.3587C76.739 48.7589 75.7278 49.7118 76.5835 51.9482C77.5169 52.59 76.6029 50.7231 77.3808 51.0342C77.7114 52.7067 76.8168 52.9206 75.8833 53.5235L74.7943 52.5706L74.2887 53.8346C74.2692 52.9595 73.2191 51.9288 74.0359 51.0342C73.1802 50.0424 73.2385 51.9482 72.4023 51.9871L73.1412 53.718C72.6745 52.7845 71.2938 53.4846 71.4105 51.7149L72.0328 49.459L70.9048 48.7005L71.955 47.5532L72.2078 48.545C73.4913 46.1141 74.8721 51.1704 75.65 48.0004C75.0276 45.7251 75.5722 45.0639 77.1085 44.675C76.4862 45.7057 77.9059 46.0363 78.2948 47.3392C79.7339 47.4948 78.9949 45.764 78.9949 44.7138C79.8895 45.5306 80.6091 46.2113 79.695 46.6391C80.9786 48.7589 80.5312 45.5501 82.0287 47.6115C84.6929 45.7057 79.5589 39.3464 84.5179 39.8132L84.9847 40.7466C86.2682 38.3157 88.1157 38.5491 89.5159 36.6043L92.4524 37.7712C92.3552 38.3352 92.5691 40.5327 93.697 41.2911C91.4995 39.5992 91.2661 40.8633 89.6909 40.2215C90.0021 40.8438 90.5855 41.0383 90.9744 41.2911C90.5077 41.5828 89.5937 40.7661 89.2437 41.5634C89.5743 41.9912 90.6244 42.0885 90.2938 42.6913L88.5435 41.9135C87.8629 43.3137 90.1965 45.5112 88.4657 45.7835C87.8823 44.4221 87.2017 42.3413 87.5128 41.719C86.7349 41.8746 87.8045 40.4549 86.7738 40.1048C87.1239 42.458 85.7431 41.3495 85.3736 43.2359C85.3347 42.9053 85.1403 42.5163 85.3347 42.2246L83.1761 42.6136C84.2845 43.372 82.5926 44.6944 83.7984 46.1335C85.9959 45.5695 84.8485 44.9861 87.4545 44.4999C87.1239 45.2389 87.4545 47.3004 88.0962 48.9923C88.0379 48.9339 87.9796 48.9145 87.9018 48.9339C88.6408 50.6647 89.2242 50.8592 91.0522 53.5429C90.6827 51.0148 92.3552 52.1622 92.7053 50.3341C91.9079 48.7394 90.7994 48.895 90.5271 49.634L90.8189 48.0199L91.0911 48.8172L93.8527 47.6504C93.4443 48.0394 93.8721 48.9923 94.0665 49.7896C94.4166 49.634 95 49.809 95.6029 50.0035C94.5916 48.6616 93.9499 47.6504 94.2805 47.4559C96.0697 46.7169 97.781 47.3781 99.4535 48.5839C99.4924 48.5061 99.5313 48.4283 99.5702 48.3699C98.3255 47.1253 98.9284 45.0445 98.4033 43.2553C99.3951 44.7527 99.8035 43.5859 100.776 44.0526C99.8619 42.1857 97.9366 40.066 96.4586 39.0547C96.4586 41.33 96.9253 41.0189 97.9365 43.5665L97.2365 46.1919L96.6919 44.5777C95.4473 44.5583 95.8557 46.8919 94.7083 45.0834C94.3583 43.6054 95.5834 43.8193 95.2139 42.3413L94.2222 42.069C94.0277 39.6575 95.8557 43.3915 96.2252 41.3689C94.7667 40.1632 96.2641 41.1939 96.0891 39.8326C94.9611 39.0741 94.2805 41.6995 92.8997 38.8991C92.7636 37.3628 97.0226 40.4549 96.1086 37.3628L96.2641 37.6739C97.7032 37.1683 97.1392 35.4375 96.9642 34.2123C98.0338 34.6791 97.956 33.0455 98.4617 32.5593L98.9478 33.3177L99.5312 32.4621C100.076 34.0762 98.5783 33.0649 98.0338 33.7067L99.0645 35.0291C97.1781 33.9206 98.345 36.7599 98.5395 38.3546C98.6173 36.5655 101.262 36.9933 99.6285 34.1734L101.126 35.1847L101.048 34.504C102.157 35.2625 102.857 37.1878 102.293 38.024C101.923 37.7712 101.729 37.6545 101.573 37.3239C101.632 38.1796 102.021 39.4825 100.912 39.7742L100.893 38.7241C99.7257 39.3853 99.084 40.591 99.6285 42.2052C101.612 41.6995 103.246 40.7466 104.704 39.677C103.032 36.2737 102.351 34.1734 100.62 31.1396C101.262 29.9339 102.351 28.5921 103.946 29.0588L104.257 29.6811C104.879 29.6811 105.171 29.2727 105.268 28.7087C106.241 29.156 106.007 30.4396 106.591 30.634L107.368 28.6893C108.166 30.0506 106.96 30.8868 106.454 31.373C106.493 31.198 106.552 30.8285 106.377 30.6924C105.346 30.6146 105.618 33.6872 104.043 31.9953C103.946 32.5399 103.751 30.1478 102.584 30.809C101.359 30.5951 102.273 32.4621 102.584 33.0844C103.071 33.8428 104.432 33.3177 104.626 34.4846C105.132 33.9984 104.704 32.8899 105.929 33.1038C105.424 33.59 105.677 35.6125 104.588 34.6596C104.413 36.7988 106.941 40.1632 107.602 40.0076C106.727 38.9963 108.73 37.2655 106.299 36.8572C106.007 35.0097 107.213 34.1734 107.485 32.7149L107.641 33.026L108.477 31.937C108.594 32.4232 108.496 32.9871 108.983 33.7261L109.119 30.7313C109.197 32.6371 110.266 31.2952 111.044 31.6258C110.422 30.3812 110.441 29.156 109.449 28.8838C108.263 28.4948 109.508 29.7394 108.983 30.2256L108.574 27.892L108.769 28.0281L108.263 26.2389C109.43 25.5972 110.091 29.9534 110.538 27.5808L109.002 25.7139C110.83 24.8971 114.447 25.7139 114.992 24.0025C115.439 25.3444 116.548 27.2696 117.714 28.0475C116.975 28.0475 116.042 28.7865 115.439 29.4672C115.07 29.2144 114.72 26.5112 115.789 26.414C113.183 23.3996 115.186 29.72 112.833 26.4723C110.072 26.6668 113.533 30.6535 110.538 29.8561C111.53 31.3536 110.558 30.9063 111.355 32.2676C113.494 34.329 113.533 30.6535 115.206 30.7701C115.167 30.9452 115.109 31.3147 115.264 31.6258C116.334 31.5286 116.431 30.9841 116.606 30.07L116.411 29.9339C116.373 27.8531 117.753 30.634 118.745 30.9063C118.804 30.5368 119.873 30.4396 119.017 29.4477L120.982 30.1673L119.815 28.5532C120.32 28.067 121.196 29.0782 121.021 27.7169L120.048 26.2195L118.278 26.6668C118.667 25.6944 117.52 25.111 118.084 24.2748C118.298 26.4917 119.27 24.6637 120.282 25.9861L120.301 24.7609L120.418 25.2471C121.39 25.6944 120.593 24.3331 121.254 24.1581C120.068 23.7691 118.94 23.0107 118.862 24.6054C118.881 23.3802 119.406 21.6688 119.659 21.4355C119.854 20.4048 121.04 21.241 121.721 21.0076C121.02 22.3495 125.163 25.2277 122.246 25.6555C122.09 25.3444 122.323 25.286 122.498 25.4221C120.923 23.7302 121.254 26.4334 121.273 27.4835C122.129 28.4754 121.818 29.0977 123.082 29.1171C122.323 28.6115 122.148 26.2195 123.549 26.5501L124.988 28.9616L126.349 28.4365L126.31 28.6115C127.769 29.8172 127.36 27.4641 128.761 27.7947C128.78 26.5695 131.464 25.7139 128.838 23.9247C130.55 24.8776 129.927 22.6023 130.491 21.7466L128.858 21.4743C128.877 19.024 129.286 20.327 128.41 17.0404C128.936 17.6043 129.5 17.9933 129.772 18.7906C131.425 17.8572 134.089 16.982 133.72 14.4539C134.886 13.8121 136.928 16.418 137.745 14.2983C137.842 13.7538 136.014 12.2952 137.492 12.2758C137.687 12.3925 137.687 14.6678 138.698 13.7149C138.29 11.3812 141.285 13.4037 141.265 11.1284C142.257 11.4007 143.054 10.4866 143.832 12.0424C142.724 12.3147 141.674 13.4621 141.946 14.2788C141.479 13.3454 140.76 13.8899 140.954 12.7814C138.893 12.6258 140.682 14.24 138.99 14.3372C139.301 14.9595 140.662 15.4846 140.584 14.8039C141.907 16.7292 138.854 17.3515 141.499 18.9267C142.899 18.2266 140.526 13.9288 143.015 15.2123C143.365 16.6903 142.004 16.1652 142.821 18.5767L144.26 18.7323L143.968 16.8848L144.124 17.1959C146.944 17.8766 144.26 14.2011 145.038 12.2369C143.288 11.459 142.957 8.75583 141.751 8.36689C142.549 7.47231 143.424 7.23892 144.746 9.1642C144.027 11.9646 146.03 11.284 145.68 14.3372C146.419 14.8428 147.216 17.4293 148.344 16.9626C148.519 14.8234 146.905 15.5818 147.586 14.1816C147.761 14.3177 147.955 14.4344 148.111 14.7456C147.936 13.3843 148.947 14.7067 148.811 13.1704L148.927 13.6566C150.483 14.3178 148.85 11.7507 150.386 12.5869C149.141 11.3423 150.036 11.1089 149.822 9.94211C148.791 9.86432 147.022 8.03626 145.777 9.04752C146.399 10.2921 146.924 10.8561 146.749 11.7702L147.508 11.0506C147.449 11.3617 147.508 11.7507 147.488 12.1008L146.263 12.0813C146.749 10.5644 145.446 9.66983 145.096 8.19184C146.38 8.03626 145.68 7.33617 146.516 7.29728C147.585 9.00864 150.289 8.89195 152.117 9.2031C151.903 9.26145 151.708 9.45591 151.572 9.4948C151.494 11.0895 153.07 10.5061 153.4 10.9533L153.42 9.72819C153.381 9.92266 153.498 10.4088 153.906 10.4672C154.489 9.63093 153.303 7.99737 153.886 7.16113C154.567 8.03626 154.859 9.88376 155.676 10.0199C156.395 10.7005 158.379 12.4702 158.865 10.9533C158.69 10.545 158.826 10.1755 159.04 9.80597C159.021 9.88375 159.001 9.96156 159.02 10.0394L160.401 10.5644C160.868 12.5286 158.709 10.6422 159.176 12.6258L160.129 14.1427C159.662 14.4539 159.487 15.5235 159.721 16.4958C160.596 16.2625 160.479 15.7763 161.062 14.94C161.821 15.7957 161.743 16.8848 161.724 17.0404L161.257 16.1069C159.487 15.5235 160.829 18.4795 159.468 19.0046C159.254 19.0629 159.273 18.8879 159.137 18.5767C159.176 20.6576 156.901 19.3157 157.27 21.8438L157.037 20.852C156.842 21.9022 156.609 24.2164 156.356 26.4528L156.745 27.0363C157.115 27.2891 156.648 27.5808 156.24 27.5224C156.103 28.6504 155.967 29.7006 155.812 30.5173C156.201 30.7702 156.609 30.9257 156.901 30.8674C156.628 30.0506 158.126 29.8561 156.92 28.417C158.068 29.0005 158.009 27.0946 158.787 27.4058C157.426 26.8807 158.281 25.6166 157.815 24.6832C158.709 25.4999 158.787 23.9053 159.604 25.286C159.973 25.5388 158.67 24.6442 158.904 25.6361C159.001 27.3474 160.965 25.7916 160.849 27.5808C161.374 25.8694 163.163 25.2471 163.532 23.2246L162.502 23.1468C163.163 22.9718 164.213 21.8244 164.738 22.4078C164.446 22.8357 163.98 23.1274 163.649 23.7302C164.641 25.2277 164.855 22.894 165.535 23.7691L165.321 20.327L164.621 20.677C164.407 19.5102 166.488 19.6852 167.616 19.199C168.433 21.6105 166.158 20.2686 165.671 21.7855C165.438 23.069 167.461 23.4191 167.091 24.3914C167.597 24.7415 168.025 24.3525 167.908 23.6913L168.433 23.8664C169.055 26.1417 167.324 26.7057 167.461 28.9421C167.402 28.6893 167.344 28.4365 167.227 28.2031C166.002 27.9892 165.283 28.5337 164.894 29.5061C165.671 29.8367 165.555 29.3311 165.613 28.9616C165.944 29.3894 165.399 30.0506 165.496 30.7313C166.527 30.8091 166.352 31.7231 166.994 31.7425C166.858 32.4815 166.41 32.5787 165.749 32.7538C165.01 32.2481 165.321 31.6453 164.641 30.7701C164.466 31.6842 162.735 29.6811 162.657 31.2758C163.98 30.9257 163.727 33.4539 163.785 34.3096L163.999 34.2512C164.388 35.5542 164.135 35.7876 163.241 34.9708C163.377 34.2318 163.999 34.2512 163.143 33.2594C162.891 33.4928 162.638 33.7456 162.54 34.2901L162.307 33.2983L161.043 34.504C161.471 35.6125 162.015 37.2266 162.774 38.763C161.84 38.1212 161.86 39.1714 161.763 39.7353L161.646 39.2297C160.46 38.8408 159.526 40.4743 159.993 41.4078C159.02 40.9605 159.487 33.8428 156.842 36.7988C155.637 37.635 157.931 40.0076 157.873 41.4273C157.873 41.4273 157.718 41.1161 157.543 40.9994C156.881 41.155 157.523 42.2246 157.387 42.9636C157.99 43.1581 158.457 42.8664 158.34 42.3802C158.943 43.6248 157.173 43.022 157.368 44.1888C156.706 42.0885 155.889 44.2277 155.695 43.0414C153.886 42.633 153.692 44.7916 154.023 46.4447C151.825 44.7527 152.972 47.592 151.125 47.3587C151.339 47.3003 151.455 46.7558 151.864 46.8142C151.572 44.9861 150.172 46.9114 150.328 44.9472C150.25 45.3167 150.814 45.6862 150.892 45.3167C151.183 44.8889 151.125 44.0332 150.6 43.4692L148.83 42.8858L148.927 42.3218L146.341 41.6023C146.496 41.9135 146.866 42.1663 147.041 42.2829C144.863 42.6719 143.618 44.9083 142.004 45.6668C144.396 49.7702 139.573 49.7896 140.04 52.9984C139.593 51.6565 138.406 49.5562 137.667 48.8756C137.823 48.5255 137.278 46.5808 138.095 46.503C138.62 47.067 139.845 47.2809 139.865 48.3116C141.207 46.7364 138.465 46.7558 137.959 44.9667C136.403 46.5808 136.889 49.6146 136.384 51.3065L136.034 50.8592L135.762 52.3177C136.656 52.1038 138.134 54.3403 136.676 54.1847L136.714 53.9902C135.567 53.4068 135.217 55.2543 134.303 55.6627L134.634 57.3157C133.72 57.7241 132.047 55.3515 130.822 54.1069C129.422 54.807 130.025 57.2768 129.908 59.0465C128.78 58.2881 126.699 59.3382 126.855 57.3935C126.33 59.1049 130.375 64.5307 126.291 62.7804L126.116 61.4191C124.365 62.9165 123.043 66.7476 121.448 66.2809C119.679 62.197 116.587 64.2195 113.825 60.9134C114.467 61.6524 113.942 62.4109 114.136 62.9165C113.689 62.6054 113.164 62.372 113.378 63.3055C114.603 63.5194 115.361 67.3311 115.809 64.939C116.742 67.8561 117.131 70.3648 115.478 71.3178L114.486 69.8203L116.023 69.4314C115.147 68.4201 115.848 68.0701 115.77 67.3894C112.911 68.1284 113.708 63.7333 111.491 65.5225C111.919 66.631 111.802 66.1448 111.433 66.9421C111.686 66.6893 111.044 65.6392 110.577 65.9503L110.927 67.4283C108.438 65.5225 111.2 64.9001 109.313 63.6555C109.43 61.8858 110.577 60.1939 109.002 58.502C107.057 58.8326 110.072 62.936 107.952 63.1499L107.232 62.4692C107.057 63.3833 107.855 64.7446 108.088 65.7364C107.757 65.3086 107.388 65.0557 106.941 65.153C107.31 67.6811 106.96 68.459 107.524 71.1233C108.73 68.0312 110.441 71.24 111.822 68.284C111.88 69.1397 110.538 70.7149 111.822 72.8152L110.83 71.3178C110.597 72.6013 110.363 73.8848 109.08 74.0404L109.099 72.8152C108.535 74.7016 105.463 71.9984 106.163 75.1489C106.61 75.0322 106.863 74.7988 106.921 74.4293C106.727 75.5378 105.813 75.9462 104.938 76.1601L105.132 79.6023C104.646 78.8633 103.693 79.4467 103.343 77.9687C101.515 77.5603 102.526 80.1079 102.176 80.8858C100.037 80.0496 102.623 79.5439 101.34 77.4436C99.3951 77.7742 98.2477 79.4662 98.306 81.3526C98.8117 81.4498 99.1228 81.6054 99.3562 81.9749C98.9867 81.547 98.4811 82.0721 98.131 82.286L98.5589 83.3945C97.5671 83.1222 97.2559 82.4999 97.2365 81.4498C96.5753 81.6248 97.1976 83.9001 95.7196 82.8889C95.8363 81.1192 97.6838 81.3331 97.6643 80.3024C96.4197 82.5388 93.7749 78.6883 92.1996 81.5276C91.8496 81.0803 91.6551 79.9135 91.1884 80.2246C90.3522 81.3137 92.258 82.4027 92.6469 83.6862C93.0553 82.5194 93.8526 82.85 95.1556 83.7446L95.4668 84.678C95.1556 84.2891 94.6305 84.6197 94.2027 84.3474L95.1556 86.0199C94.0276 84.2113 92.2774 83.4529 92.0829 84.5419C93.6193 85.3587 93.3859 85.417 94.9222 87.3034C95.2917 89.8316 92.6274 86.1366 92.958 88.8592C92.6469 88.2369 93.2498 87.2062 92.1802 87.3034C91.4801 87.6729 92.5108 88.9759 92.3746 89.6954C91.869 87.9063 90.9939 86.895 90.3327 84.8142C91.344 83.8613 90.7994 84.5225 91.4801 83.1222L89.6909 82.5194C90.4882 81.6248 89.2436 80.3607 88.9519 79.7579C86.2876 79.3884 89.2242 82.8305 87.9018 83.1611C88.0768 84.5225 89.0297 82.6944 88.9519 84.2891C87.824 84.7558 89.3797 85.3976 88.6991 86.7978L88.4268 86.0005C87.4934 85.3587 87.8823 86.6617 87.5906 87.0701C87.4545 87.8091 91.5579 91.8347 89.8465 93.1376C89.652 92.6709 89.5159 92.3792 89.3992 92.2236L82.7482 78.7466C80.9591 80.0107 78.6448 81.0803 76 81.6832C73.8608 79.6218 76.1361 78.6883 75.2805 77.6965L76.564 77.5409C77.2057 78.591 74.7748 79.2134 76.8752 80.4385C78.0614 78.5522 79.6172 79.2134 79.7728 76.024C77.6336 73.9431 77.9642 77.8909 75.65 76.7241C76.1945 76.588 76.389 76.0629 76.5056 75.4795C75.3194 75.8295 74.0553 76.2185 72.694 76.6074L72.8495 77.3659C73.783 77.1325 74.4442 76.9769 74.5609 77.0158C73.433 77.4825 73.4913 79.3884 74.6387 81.197L74.8526 81.1386L74.8721 81.936C74.5609 81.8971 74.2497 81.936 73.9386 81.9749ZM9.41249 125.381C9.35415 125.167 9.27639 124.934 9.14026 124.681C9.27639 124.953 9.43194 125.09 9.41249 125.381ZM89.3214 62.8387C87.824 63.4805 86.1709 63.9083 84.7513 64.5695C89.4186 66.4948 92.8219 68.0312 88.9519 70.5593L88.8742 70.9872C89.6715 71.0649 90.566 70.5399 91.2078 69.7231C91.0133 68.0311 90.041 62.0608 89.7492 61.6719C88.8547 60.8551 89.2436 62.1581 88.6213 62.1386L89.3214 62.8387ZM94.2222 68.0312C95.2334 67.9145 94.5333 67.2533 94.1832 66.4754C93.9888 66.7476 93.7748 67.0199 93.5804 67.2727C93.7943 67.3894 94.0277 67.6033 94.2222 68.0312ZM93.6776 65.8142C93.5804 65.8531 93.4831 65.8725 93.3859 65.8142H93.6776ZM78.5087 74.8571C78.5282 74.8183 78.5282 74.7988 78.5476 74.7599C78.3337 74.8183 78.1198 74.8961 77.9059 74.9739C78.042 75.0322 78.2365 75.0322 78.5087 74.8571ZM81.173 75.5378L80.4729 74.1376C80.2784 74.1959 80.0645 74.2738 79.8701 74.3321C80.3368 74.8766 80.7451 75.3433 81.173 75.5378ZM88.913 76.3935C88.174 74.6627 89.1659 73.8848 88.0185 72.0762C87.7851 71.5706 87.435 71.5511 87.1044 71.5706C86.8127 71.7067 86.4821 71.8623 86.1321 72.0179C86.2877 72.2901 86.4043 72.5624 86.4627 72.8541C86.9099 72.8735 87.4156 73.1653 88.0379 74.3321C85.6459 72.504 88.4852 76.4907 87.2211 76.4713C87.8045 77.8909 89.0103 77.0547 88.913 76.3935ZM150.697 27.5224C150.833 27.6586 151.183 27.9892 151.631 28.417V29.7006C150.308 30.0506 147.741 28.0864 148.266 30.9257C147.449 30.6924 146.419 29.6811 145.544 28.8838C145.816 28.806 146.069 28.7671 146.341 28.7865C146.846 23.7691 150.036 31.198 150.697 27.5224ZM136.384 32.7538C136.423 32.5787 136.267 32.2482 136.267 32.2482C136.092 37.0905 134.789 39.3659 133.428 40.1048C134.556 41.2133 136.364 41.4273 137.278 41.5828L137.784 43.372L136.695 42.4191L136.773 44.3249C137.667 45.1417 138.212 44.4805 139.184 44.9278C139.029 44.6166 139.32 41.9329 139.106 40.7466L137.259 40.5327C137.842 40.7272 139.145 39.3464 139.515 38.5491C139.029 37.8101 137.201 37.4017 138.154 39.0741C137.278 38.0823 138.484 37.2461 136.928 36.5849C137.045 34.8152 139.145 34.7957 140.176 34.8735L141.537 36.6238C142.763 36.8377 140.526 34.0762 142.121 34.5429C141.285 35.632 143.677 36.4293 142.918 37.1489C143.657 37.6545 144.241 39.0742 144.999 38.3546C144.066 35.457 146.924 39.2492 146.146 36.6627C147.119 37.11 146.652 38.4518 147.761 38.1601C147.916 36.1959 147.235 35.3208 146.088 33.5317C144.805 33.6872 146.574 36.546 145.524 36.6432L145.018 32.5788C144.435 32.3454 144.202 32.4426 144.104 32.6954C144.299 32.3065 144.26 31.6842 144.066 30.9063C143.949 30.4784 143.871 30.0895 143.813 29.7783C142.938 30.3618 142.121 30.848 141.479 30.1867L141.012 29.2533C140.176 28.6893 140.079 29.6422 140.273 30.4201C139.554 31.0424 139.593 32.7732 138.659 31.7814L138.426 30.7896C137.628 31.7231 137.59 31.9175 136.384 32.7538ZM103.518 52.2983C106.241 55.0209 108.769 57.3546 111.102 54.9626L111.044 55.3321C113.747 56.3628 111.939 50.9175 115.109 51.9482C115.109 53.6791 115.07 53.5429 116.023 56.849L116.295 55.371C117.209 57.2379 117.481 55.7599 118.181 55.4099L118.998 57.8213C118.22 57.4907 117.092 57.9575 117.423 58.4048C117.481 58.0353 114.37 56.7323 113.942 57.8991C114.972 59.2216 116.334 57.4713 117.073 60.2328C117.112 58.8132 118.142 60.1356 118.531 59.1632C118.473 60.5829 119.64 61.1468 119.795 62.5081L120.651 61.244C121.001 61.6719 119.62 63.4222 121.74 64.4529C121.721 63.4027 123.607 63.4611 122.615 61.9636L122.946 62.3915C124.054 62.0997 121.915 60.0383 123.568 60.1356C123.082 59.3771 122.518 59.0076 122.226 59.4355C122.129 59.9994 122.771 61.0496 122.226 61.7108C121.137 60.7579 123.14 61.3024 121.332 59.6688C120.437 58.852 120.106 61.7302 119.115 59.2021L120.223 58.9104C119.231 57.4129 119.931 57.0629 119.095 55.8766C119.27 54.9626 120.904 56.285 120.593 54.6125C120.165 53.504 118.551 51.9871 119.99 52.1427C122.187 53.8541 124.015 51.9871 124.579 51.1315L124.618 49.7118C123.938 48.8367 123.393 50.7231 123.024 49.2451L123.86 48.156L124.171 48.7784C124.618 48.6617 124.56 47.806 124.657 47.2615C125.046 48.545 123.976 48.6617 125.182 50.0813C125.902 50.0424 126.368 50.5675 126.621 49.9452C126.602 50.1202 126.602 50.3341 126.777 50.548C128.255 50.5091 126.582 48.156 126.505 47.4754C126.155 44.7722 124.21 46.328 123.257 44.6361L125.668 41.7384C125.746 42.4191 125.843 43.0803 126.369 43.6443C127.594 43.8582 127.205 44.8305 128.177 44.0526C126.66 41.9912 128.586 41.8551 128.488 40.1438C129.422 40.7661 129.597 40.9022 128.877 41.4273C129.888 42.7302 130.53 41.5245 130.978 41.4078C130.958 40.9216 131.172 40.4938 131.191 40.0271C130.433 39.5409 129.966 38.6074 130.219 37.5767L130.063 37.2656C128.741 37.6156 126.077 37.2461 126.369 39.0936L126.096 38.2963C124.074 37.9462 125.104 42.5747 122.771 40.3771C122.129 39.327 122.362 40.2993 121.371 38.8213L121.254 40.591L120.982 39.7937L119.679 41.1745L119.523 40.8633C119.698 42.6913 119.873 44.1888 120.029 45.3751C120.457 46.0168 120.651 46.1919 120.729 46.8336C120.709 47.3198 120.554 47.4948 120.32 47.5143C119.815 47.5921 118.94 46.8336 118.22 46.7753L119.543 45.6473C118.92 44.4805 118.026 43.4303 116.8 43.1386C117.053 42.9053 116.587 41.9718 116.159 42.0885C116.314 42.3996 115.692 43.4304 116.645 44.0721C115.556 45.3945 111.414 44.0138 110.772 47.4948C111.394 45.2389 108.594 46.8336 109.916 45.2778C107.582 44.3055 110.111 47.6699 108.749 48.1949C108.224 47.631 109.449 47.8449 108.866 46.4252C106.455 47.0475 107.524 51.4815 105.268 52.24L104.257 50.937C104.062 51.3648 103.79 51.8316 103.518 52.2983ZM100.97 56.5378C100.718 56.9462 100.465 57.3546 100.192 57.763C100.251 57.763 100.27 57.7435 100.329 57.7241L99.998 59.5716C101.029 59.6494 102.487 60.8551 102.04 62.1775C101.729 61.5552 100.99 61.0496 101.087 60.5051C99.9008 60.1161 97.9949 60.2522 99.7452 62.0803C99.6091 59.3188 101.826 64.5112 101.768 62.4303C102.176 64.1222 101.262 63.85 101.184 64.7835C100.912 63.3249 99.3368 62.3137 98.2088 62.2942C98.1116 62.8387 97.0031 63.1304 96.8475 64.0445C97.8977 65.1724 97.9171 66.2226 99.0256 65.9308C98.9284 66.4754 98.5978 67.0783 97.606 66.8254C97.6838 66.4559 97.956 66.0281 97.6254 65.6002C96.478 64.6862 96.089 65.0363 95.5056 64.6862C95.3695 64.8807 95.214 65.0752 95.0778 65.2696C95.214 65.3474 95.3501 65.4447 95.5056 65.6002L95.6418 67.1366C96.0696 65.9698 96.4197 67.4672 96.9058 68.2062C95.914 66.7087 96.2446 68.3812 95.9918 68.6146L97.6643 69.762C97.8977 70.7538 95.8557 69.3536 97.0614 70.7927C98.7923 70.5204 99.1034 69.9176 99.9785 68.6535L98.6755 67.7783C99.4145 66.0086 100.912 69.2952 102.371 68.2256C102.234 66.6893 104.568 66.6115 103.09 64.3751C103.362 65.1724 105.365 65.7169 105.19 64.3556C104.374 61.9442 105.89 60.5051 104.743 59.9411C104.257 60.2328 104.393 61.7691 103.129 60.6995L103.732 59.6688L102.39 58.9687C102.973 59.1243 102.215 58.0741 100.97 56.5378ZM72.4217 57.7824C72.4023 57.7824 72.3828 57.7824 72.3634 57.7824C72.3828 57.7824 72.4023 57.763 72.4023 57.763L72.4217 57.7824Z" fill="#C66EFF"/>
<path opacity="0.51" d="M160.829 13.8898C160.751 13.2091 161.432 12.859 160.576 11.8672C161.393 13.0341 159.565 12.8202 160.829 13.8898Z" fill="#C66EFF"/>
<path opacity="0.51" d="M162.385 14.5317C162.229 14.2206 161.899 13.7733 162.152 13.5399L161.568 14.3762L162.385 14.5317Z" fill="#C66EFF"/>
<path opacity="0.51" d="M168.744 22.1548C168.55 20.988 168.452 20.3073 169.153 19.9572C171.37 22.6993 168.666 21.4741 170.222 24.3912C171.583 23.8661 170.203 21.0852 171 20.1712C169.697 19.2766 167.266 19.9184 168.744 22.1548Z" fill="#C66EFF"/>
<path opacity="0.51" d="M170.747 26.1804L170.942 25.0719L170.767 24.9552L170.553 26.0637L170.747 26.1804Z" fill="#C66EFF"/>
<path opacity="0.51" d="M139.418 10.4864C138.737 9.61124 138.951 10.7781 138.873 11.1476C139.106 11.0892 139.515 11.1476 139.418 10.4864Z" fill="#C66EFF"/>
<path opacity="0.51" d="M11.1628 96.5603L6.80658 100.819C8.07065 99.6135 9.31526 98.6022 11.1628 96.5603Z" fill="#C66EFF"/>
<path opacity="0.51" d="M127.03 27.6391C127.769 25.8694 127.302 23.9053 128.372 22.5829C125.338 21.9605 127.963 27.0557 125.202 26.2001L127.03 27.6391Z" fill="#C66EFF"/>
<path opacity="0.51" d="M122.557 20.0545C123.938 21.6102 122.907 22.7576 123.957 23.8856C124.56 22.8549 123.257 21.9603 124.171 21.5713L122.557 20.0545Z" fill="#C66EFF"/>
<path opacity="0.51" d="M147.897 44.2857L148.111 45.4525L148.208 44.8886L147.897 44.2857Z" fill="#C66EFF"/>
<path opacity="0.51" d="M117.539 25.7138L117.423 25.2276L116.373 25.1304L117.539 25.7138Z" fill="#C66EFF"/>
<path opacity="0.51" d="M117.287 24.7221L117.403 25.2083L117.287 24.7221Z" fill="#C66EFF"/>
<path opacity="0.51" d="M149.9 48.3114L150.736 48.2725L150.503 47.2807L149.9 48.3114Z" fill="#C66EFF"/>
<path opacity="0.51" d="M138.329 42.7304L138.484 41.8163C138.465 41.9914 137.24 41.7774 138.329 42.7304Z" fill="#C66EFF"/>
<path opacity="0.51" d="M112.969 27.7555L112.755 28.864L112.93 28.9807L113.144 27.8916L112.969 27.7555Z" fill="#C66EFF"/>
<path opacity="0.51" d="M137.356 50.3145C138.62 51.3841 136.52 51.4036 138.095 52.0454C138.62 51.3647 137.881 50.8785 137.356 50.3145Z" fill="#C66EFF"/>
<path opacity="0.51" d="M123.393 46.7361C123.296 46.7944 123.237 46.9111 123.257 47.1056C123.315 46.9889 123.354 46.8528 123.393 46.7361Z" fill="#C66EFF"/>
<path opacity="0.51" d="M123.393 46.7364C123.685 46.5419 124.307 46.8531 124.249 46.3475C123.471 45.9974 123.49 46.3086 123.393 46.7364Z" fill="#C66EFF"/>
<path opacity="0.51" d="M120.34 49.2646L120.67 49.1868C120.845 50.023 120.904 49.8286 120.787 49.1479C121.02 48.9146 120.729 48.5061 120.573 48.195C120.515 48.0005 120.457 47.7866 120.398 47.5727C120.437 47.806 120.476 48.02 120.495 48.195C120.048 48.4867 119.834 48.7395 120.34 49.2646Z" fill="#C66EFF"/>
<path opacity="0.51" d="M93.1136 35.3209C94.3972 35.1654 94.8055 35.2237 95.4473 36.2933C96.5752 36.0016 95.2334 34.3291 95.5056 33.5512C94.6111 34.4458 94.086 34.1152 93.1136 35.3209Z" fill="#C66EFF"/>
<path opacity="0.51" d="M95.5056 33.5509C95.6029 33.4537 95.7001 33.3564 95.7974 33.2203C95.6223 33.2981 95.5445 33.4148 95.5056 33.5509Z" fill="#C66EFF"/>
<path opacity="0.51" d="M131.775 57.8604L132.242 59.8245L132.319 59.455L131.775 57.8604Z" fill="#C66EFF"/>
<path opacity="0.51" d="M91.3439 35.7678C91.5578 35.7095 91.8106 35.4761 92.1996 35.7289C91.5384 34.6593 91.13 35.8262 91.3439 35.7678Z" fill="#C66EFF"/>
<path opacity="0.51" d="M108.691 53.3092C109.216 53.8732 109.566 53.0758 109.974 53.1536C109.527 53.2703 107.952 51.5784 108.691 53.3092Z" fill="#C66EFF"/>
<path opacity="0.51" d="M91.4995 41.8552C91.7134 41.7969 92.4524 42.3025 92.9192 43.236C92.8219 42.5359 91.9468 40.5133 91.4995 41.8552Z" fill="#C66EFF"/>
<path opacity="0.51" d="M106.824 54.3204L107.193 54.5733L107.407 53.4648L106.824 54.3204Z" fill="#C66EFF"/>
<path opacity="0.51" d="M119.445 67.8364C119.348 66.125 116.275 65.6778 116.839 63.7914C114.35 63.6164 118.142 65.4249 116.8 66.0472C117.792 65.9889 119.173 67.2919 119.445 67.8364Z" fill="#C66EFF"/>
<path opacity="0.51" d="M116.8 66.0476C116.645 66.0476 116.528 66.0865 116.392 66.1643C116.567 66.1448 116.703 66.1059 116.8 66.0476Z" fill="#C66EFF"/>
<path opacity="0.51" d="M101.223 65.3666C101.243 65.1722 101.223 64.9777 101.184 64.7832C101.184 64.9388 101.184 65.1138 101.223 65.3666Z" fill="#C66EFF"/>
<path opacity="0.51" d="M113.65 69.6843L113.494 67.0978C113.592 68.8092 111.705 69.9955 113.047 71.7457C113.903 71.7068 114.292 70.7345 114.039 69.7426L113.65 69.6843Z" fill="#C66EFF"/>
<path opacity="0.51" d="M78.4892 45.1806L78.4698 44.1304L77.7308 44.3249C78.1003 44.4805 78.7032 46.0363 78.4892 45.1806Z" fill="#C66EFF"/>
<path opacity="0.51" d="M77.5947 44.3638L77.7308 44.3249C77.6725 44.3054 77.6336 44.3054 77.5947 44.3638Z" fill="#C66EFF"/>
<path opacity="0.51" d="M102.701 63.0527C103.148 62.936 103.401 62.7027 103.498 62.1581C103.129 61.9053 102.02 62.1776 102.701 63.0527Z" fill="#C66EFF"/>
<path opacity="0.51" d="M76.9723 50.12L77.5363 49.2643L76.7779 49.9839L76.9723 50.12Z" fill="#C66EFF"/>
<path opacity="0.51" d="M71.1965 49.4977L70.827 49.2448L70.6131 50.3534L71.0021 50.6062L71.1965 49.4977Z" fill="#C66EFF"/>
<path opacity="0.51" d="M100.445 82.1496C101.106 81.9746 100.406 80.0688 100.037 79.8159L99.0645 80.5939C100.309 81.8579 99.3173 80.3605 100.173 80.3216L100.445 82.1496Z" fill="#C66EFF"/>
<path opacity="0.51" d="M45.915 70.676C45.4872 69.5675 47.0041 69.3536 47.6847 70.2093C47.8014 70.7149 47.4514 71.4928 48.2293 71.8234L47.5097 68.8675C49.6878 69.5287 48.7155 72.5819 48.696 73.8071C50.1157 73.282 49.4156 71.4928 50.6991 70.6371C50.174 70.676 49.5323 70.2677 48.9877 69.8982C47.8209 68.2646 49.5128 68.1868 50.2713 67.4673C49.2405 67.1172 49.1433 66.3004 49.0849 65.3864C49.1238 65.2891 49.1044 65.153 49.0655 65.0363C49.0655 64.9197 49.0461 64.8224 49.0461 64.7057L48.9489 64.7835C48.8322 64.589 48.6571 64.3946 48.3654 64.1223C47.9765 65.0947 46.479 64.0834 46.0123 64.3751C48.3071 66.7477 44.8649 66.067 44.8454 67.2922L44.3593 68.0118L44.1064 68.1868C43.8536 67.9145 43.6786 67.5061 43.6981 66.7088C43.737 67.4673 42.5507 67.9923 43.2313 68.7897L40.8198 70.4816C40.6643 70.4232 40.5087 70.3454 40.3143 70.1899C40.3531 70.4232 40.4309 70.5593 40.5281 70.6955L30.0655 78.0855C30.7267 77.9493 31.6019 78.241 32.3408 78.1827C32.7492 80.5164 33.4494 77.9104 34.3634 79.7579C34.4217 80.6136 33.7605 80.7886 33.1576 80.5942C33.6243 81.5276 34.5967 81.9749 35.2385 83.0251C37.2999 83.1807 34.7328 78.9606 36.4442 78.6883C37.086 79.7385 37.2999 80.9248 38.0584 80.2052L38 80.5747C38.5834 78.4938 40.6448 82.1694 39.5947 78.7661L40.5865 80.2636C40.4504 78.7272 41.6561 77.891 42.2006 77.2298L42.3562 77.5409C43.1146 74.546 43.1924 76.4519 44.8454 74.2738L45.0399 76.6658C46.2651 76.8797 45.1566 74.8961 45.8178 74.7211C45.9734 75.0322 46.8291 76.0241 46.5179 76.6464L47.3347 72.2513C47.1597 70.6955 46.4401 71.24 45.915 70.676Z" fill="#C66EFF"/>
<path opacity="0.51" d="M50.6991 70.6371C50.8936 70.6176 51.0686 70.5398 51.2242 70.3648C51.0102 70.4426 50.8352 70.5204 50.6991 70.6371Z" fill="#C66EFF"/>
<path opacity="0.51" d="M29.3459 78.6104L30.085 78.0853C29.7932 78.1437 29.521 78.2798 29.3459 78.6104Z" fill="#C66EFF"/>
<path opacity="0.51" d="M52.216 64.8611C51.2436 64.4138 51.827 63.5581 51.5159 62.9358L49.9212 64.0638C50.3102 64.6277 50.5824 65.3667 50.9713 65.8724L52.216 64.8611Z" fill="#C66EFF"/>
<path opacity="0.51" d="M48.7349 63.3247C48.9488 63.7525 49.0266 64.2192 49.0655 64.686L49.9406 64.0637C49.6295 63.6553 49.26 63.3247 48.7349 63.3247Z" fill="#C66EFF"/>
<path opacity="0.51" d="M69.6019 93.5653L69.349 93.8181L69.2129 94.5377L69.6019 93.5653Z" fill="#C66EFF"/>
<path opacity="0.51" d="M63.437 94.1101C64.3705 94.7324 64.565 93.6433 64.6428 93.2738C63.9038 93.8183 64.001 93.2738 63.437 94.1101Z" fill="#C66EFF"/>
<path opacity="0.51" d="M70.652 102.725L70.2631 103.717L70.4575 103.833L70.652 102.725Z" fill="#C66EFF"/>
<path opacity="0.51" d="M27.8096 88.1589C27.7123 88.2756 27.6151 88.3728 27.5179 88.4895C27.6929 88.3923 27.7707 88.2756 27.8096 88.1589Z" fill="#C66EFF"/>
<path opacity="0.51" d="M33.0215 82.5388C30.1822 82.0527 33.1965 80.3996 31.2129 78.6299L30.7656 79.9718L30.4545 79.3495L29.4432 80.3024C30.3378 81.1192 30.5517 81.0608 31.2129 82.111C29.4237 82.7528 29.9099 81.2164 27.9069 80.6913L26.3316 82.0332L26.2538 81.6248C26.1177 81.7415 26.1566 81.9165 26.215 82.111L20.9253 86.6617C20.4391 88.1785 22.7533 88.1202 23.0256 90.1427C24.2313 89.3065 26.7595 89.1704 25.476 87.0701C25.6315 87.3812 25.9232 88.0035 26.351 88.0813L25.9038 85.9226L24.8731 85.8449C24.4258 83.6862 26.9539 82.5194 28.0819 83.2778C27.1873 84.7364 29.2098 86.3116 26.6622 86.4283C27.09 86.895 28.043 87.5757 27.8291 88.1396C29.521 86.1366 32.0297 85.7865 33.0215 82.5388Z" fill="#C66EFF"/>
<path opacity="0.51" d="M12.5824 97.9408L12.4657 97.7463C12.4851 97.863 12.524 97.9408 12.5824 97.9408Z" fill="#C66EFF"/>
<path opacity="0.51" d="M13.4576 97.7076L13.1269 95.0044L11.6295 96.249L12.4657 97.727C12.3685 97.2797 12.4463 96.1907 13.0297 96.5797L13.4576 97.7076Z" fill="#C66EFF"/>
<path opacity="0.51" d="M13.477 92.9818C13.0491 94.1486 14.2354 95.7628 15.1883 96.2101C14.955 97.4936 13.5742 94.7126 14.2354 96.8129C15.0717 97.9992 15.5189 96.6573 15.5967 96.2878L13.477 92.9818Z" fill="#C66EFF"/>
<path opacity="0.51" d="M20.1668 89.6953L20.4002 90.5316L21.1003 90.3176L20.1668 89.6953Z" fill="#C66EFF"/>
<path opacity="0.51" d="M20.4002 90.5314L19.7001 90.7454C20.0891 91.2315 20.4586 91.6983 20.7892 91.99L20.4002 90.5314Z" fill="#C66EFF"/>
<path opacity="0.51" d="M17.8915 91.2707C17.5609 91.3096 17.2303 91.4068 16.8802 91.5818L17.8915 91.2707Z" fill="#C66EFF"/>
<path opacity="0.51" d="M18.825 91.251L18.65 91.0565L17.8721 91.2899C18.2221 91.251 18.5138 91.251 18.825 91.251Z" fill="#C66EFF"/>
<path opacity="0.51" d="M19.7196 90.7453C18.8445 89.6562 17.8916 88.5088 17.2887 89.3839L18.6694 91.0564L19.7196 90.7453Z" fill="#C66EFF"/>
<path opacity="0.51" d="M64.2344 104.553L64.0205 105.661L64.2149 105.778L64.4289 104.689L64.2344 104.553Z" fill="#C66EFF"/>
<path opacity="0.51" d="M59.7615 106.05C59.7421 106.361 59.7615 106.653 59.8004 106.964C59.8782 106.712 59.8782 106.439 59.7615 106.05Z" fill="#C66EFF"/>
<path opacity="0.51" d="M62.3675 115.871C60.8117 115.229 62.3674 113.615 60.5977 114.063C59.7421 113.071 59.4504 111.204 60.4811 111.301C61.1228 112.351 60.2866 112.39 61.3951 113.168C61.0256 111.69 61.7451 112.371 60.5394 110.951C60.6366 109.492 59.9754 108.326 59.8004 106.984C59.3531 108.267 56.3971 107.976 56.5916 110.737C57.2139 113.012 59.3337 115.288 61.1423 117.952C61.6673 118.497 63.5148 117.68 62.3675 115.871Z" fill="#C66EFF"/>
<path opacity="0.51" d="M65.3818 117.7C65.8291 117.583 65.868 117.408 65.9263 117.038C65.2456 116.183 65.6346 117.466 65.3818 117.7Z" fill="#C66EFF"/>
<path opacity="0.51" d="M43.5425 103.153C43.737 103.581 43.4063 104.475 43.9898 105.039L44.6316 103.892C44.3787 103.989 43.9704 103.581 43.5425 103.153Z" fill="#C66EFF"/>
<path opacity="0.51" d="M44.9233 103.406L44.6316 103.911C44.7677 103.872 44.8649 103.717 44.9233 103.406Z" fill="#C66EFF"/>
<path opacity="0.51" d="M43.3286 102.939C43.4063 103.017 43.4647 103.075 43.5425 103.153C43.5036 103.056 43.4452 102.978 43.3286 102.939Z" fill="#C66EFF"/>
<path opacity="0.51" d="M15.0911 92.2233C14.6049 91.4843 14.4688 92.2038 14.4105 92.5733C14.6244 92.515 15.0328 92.5928 15.0911 92.2233Z" fill="#C66EFF"/>
<path opacity="0.51" d="M0.77788 106.206L0 105.876C0.369499 106.148 0.544512 106.265 0.77788 106.206Z" fill="#C66EFF"/>
<path opacity="0.51" d="M8.53741 130.243C8.6152 130.399 8.67354 130.535 8.71243 130.671C8.69299 130.535 8.63465 130.399 8.53741 130.243Z" fill="#C66EFF"/>
<path opacity="0.51" d="M8.71242 130.651C8.868 131.429 7.40942 131.04 7.75947 132.168L7.60391 131.857L7.4483 132.771C7.87614 132.363 9.02358 131.74 8.71242 130.651Z" fill="#C66EFF"/>
</g>
</g>
</svg>
