<svg width="209" height="209" viewBox="0 0 209 209" fill="none" xmlns="http://www.w3.org/2000/svg">
<path opacity="0.2" d="M156.297 156.297C185.071 127.524 185.071 80.8727 156.297 52.0991C127.524 23.3256 80.8726 23.3256 52.0991 52.0992C23.3255 80.8727 23.3256 127.524 52.0991 156.297C80.8727 185.071 127.524 185.071 156.297 156.297Z" fill="#ED8C0C"/>
<path opacity="0.37" d="M104.199 160.645C135.376 160.645 160.649 135.372 160.649 104.195C160.649 73.019 135.376 47.7455 104.199 47.7455C73.0229 47.7455 47.7494 73.019 47.7494 104.195C47.7494 135.372 73.0229 160.645 104.199 160.645Z" fill="#ED8C0C"/>
<path d="M154.159 104.195C154.159 106.695 148.149 108.705 147.779 111.105C147.389 113.565 152.479 117.325 151.729 119.645C150.959 122.005 144.629 122.055 143.519 124.235C142.399 126.435 146.069 131.595 144.629 133.575C143.179 135.565 137.139 133.655 135.399 135.395C133.659 137.135 135.569 143.175 133.579 144.625C131.589 146.065 126.439 142.395 124.239 143.515C122.059 144.625 122.009 150.965 119.649 151.725C117.329 152.475 113.579 147.385 111.109 147.775C108.709 148.155 106.709 154.155 104.199 154.155C101.699 154.155 99.6894 148.145 97.2894 147.775C94.8294 147.385 91.0694 152.475 88.7494 151.725C86.3894 150.955 86.3394 144.625 84.1594 143.515C81.9594 142.395 76.7993 146.065 74.8193 144.625C72.8293 143.175 74.7394 137.135 72.9994 135.395C71.2594 133.655 65.2194 135.565 63.7694 133.575C62.3294 131.585 65.9994 126.435 64.8794 124.235C63.7694 122.055 57.4294 122.005 56.6694 119.645C55.9194 117.325 61.0094 113.575 60.6194 111.105C60.2394 108.705 54.2394 106.705 54.2394 104.195C54.2394 101.685 60.2494 99.6855 60.6194 97.2855C61.0094 94.8255 55.9194 91.0655 56.6694 88.7455C57.4394 86.3855 63.7694 86.3355 64.8794 84.1555C65.9994 81.9555 62.3294 76.7955 63.7694 74.8155C65.2194 72.8255 71.2594 74.7355 72.9994 72.9955C74.7394 71.2555 72.8293 65.2155 74.8193 63.7655C76.8093 62.3255 81.9594 65.9955 84.1594 64.8755C86.3394 63.7655 86.3894 57.4255 88.7494 56.6655C91.0694 55.9155 94.8194 61.0055 97.2894 60.6155C99.6894 60.2355 101.689 54.2355 104.199 54.2355C106.699 54.2355 108.709 60.2455 111.109 60.6155C113.569 61.0055 117.329 55.9155 119.649 56.6655C122.009 57.4355 122.059 63.7655 124.239 64.8755C126.439 65.9955 131.599 62.3255 133.579 63.7655C135.569 65.2155 133.659 71.2555 135.399 72.9955C137.139 74.7355 143.179 72.8255 144.629 74.8155C146.069 76.8055 142.399 81.9555 143.519 84.1555C144.629 86.3355 150.969 86.3855 151.729 88.7455C152.479 91.0655 147.389 94.8155 147.779 97.2855C148.149 99.6855 154.159 101.685 154.159 104.195Z" fill="#FF7133"/>
<path d="M131.337 131.337C146.325 116.349 146.325 92.048 131.337 77.0598C116.349 62.0716 92.0479 62.0716 77.0597 77.0598C62.0716 92.048 62.0716 116.349 77.0598 131.337C92.0479 146.325 116.349 146.325 131.337 131.337Z" fill="#FFCA00"/>
</svg>
